<svg xmlns="http://www.w3.org/2000/svg" width="323" height="375" viewBox="0 0 323 375">
  <g id="Grupo_117827" data-name="Grupo 117827" transform="translate(-895 -9181)">
    <rect id="Rectángulo_49942" data-name="Rectángulo 49942" width="323" height="375" rx="23" transform="translate(895 9181)" fill="#4dd0e1" opacity="0.11"/>
    <g id="Grupo_114657" data-name="Grupo 114657" transform="translate(1 32)">
      <g id="Rectángulo_49931" data-name="Rectángulo 49931" transform="translate(933.5 9324.163)" fill="#fff" stroke="#afafaf" stroke-width="1">
        <rect width="244" height="38" rx="19" stroke="none"/>
        <rect x="0.5" y="0.5" width="243" height="37" rx="18.5" fill="none"/>
      </g>
      <rect id="Rectángulo_49932" data-name="Rectángulo 49932" width="244" height="38" rx="19" transform="translate(933.5 9373.163)" fill="#4e73de"/>
      <path id="Trazado_232452" data-name="Trazado 232452" d="M6.781,10.4H2.468v3.527H7.479V15H1.155V5.047H7.41V6.12H2.468V9.326H6.781ZM10.11,7.6l.041.93a2.7,2.7,0,0,1,2.215-1.066q2.345,0,2.365,2.646V15H13.467V10.105A1.7,1.7,0,0,0,13.1,8.923a1.466,1.466,0,0,0-1.118-.383,1.825,1.825,0,0,0-1.08.328,2.228,2.228,0,0,0-.725.861V15H8.914V7.6Zm8.244-1.791V7.6h1.381v.978H18.354v4.593a1.027,1.027,0,0,0,.185.667.777.777,0,0,0,.629.222,3.062,3.062,0,0,0,.6-.082V15a3.688,3.688,0,0,1-.971.136,1.575,1.575,0,0,1-1.278-.513,2.2,2.2,0,0,1-.431-1.456V8.581H15.743V7.6H17.09V5.813Zm5.927,9.324a3.232,3.232,0,0,1-2.447-.988,3.666,3.666,0,0,1-.943-2.642v-.232a4.438,4.438,0,0,1,.42-1.965,3.28,3.28,0,0,1,1.176-1.354,2.956,2.956,0,0,1,1.637-.489,2.77,2.77,0,0,1,2.242.95,4.114,4.114,0,0,1,.8,2.721v.526H22.155a2.629,2.629,0,0,0,.639,1.767,2.009,2.009,0,0,0,1.555.673,2.2,2.2,0,0,0,1.135-.273,2.851,2.851,0,0,0,.813-.725l.772.6A3.106,3.106,0,0,1,24.281,15.137Zm-.157-6.631a1.687,1.687,0,0,0-1.285.557,2.708,2.708,0,0,0-.643,1.562H25.9v-.1a2.409,2.409,0,0,0-.52-1.494A1.588,1.588,0,0,0,24.124,8.506Zm8.08.232a3.79,3.79,0,0,0-.622-.048,1.667,1.667,0,0,0-1.688,1.06V15H28.629V7.6h1.23l.021.854a1.969,1.969,0,0,1,1.764-.991,1.292,1.292,0,0,1,.561.1ZM46.122,10.4H41.809v3.527h5.011V15H40.5V5.047h6.255V6.12H41.809V9.326h4.313Zm3.322-2.8.034.82a2.732,2.732,0,0,1,2.194-.957,2.115,2.115,0,0,1,2.112,1.189,2.8,2.8,0,0,1,.96-.861,2.837,2.837,0,0,1,1.4-.328q2.434,0,2.475,2.577V15H57.354V10.119a1.7,1.7,0,0,0-.362-1.186,1.6,1.6,0,0,0-1.217-.393,1.677,1.677,0,0,0-1.169.42,1.706,1.706,0,0,0-.54,1.131V15H52.794V10.153A1.411,1.411,0,0,0,51.215,8.54a1.692,1.692,0,0,0-1.7,1.06V15H48.248V7.6ZM65.092,15a2.657,2.657,0,0,1-.178-.779,2.822,2.822,0,0,1-2.105.916,2.611,2.611,0,0,1-1.794-.619,2,2,0,0,1-.7-1.569,2.091,2.091,0,0,1,.878-1.794,4.142,4.142,0,0,1,2.471-.639h1.23V9.935a1.42,1.42,0,0,0-.4-1.056,1.593,1.593,0,0,0-1.169-.393,1.844,1.844,0,0,0-1.135.342,1.007,1.007,0,0,0-.458.827H60.464a1.745,1.745,0,0,1,.393-1.07,2.683,2.683,0,0,1,1.066-.817,3.588,3.588,0,0,1,1.48-.3,2.924,2.924,0,0,1,2,.639,2.306,2.306,0,0,1,.752,1.76v3.4a4.162,4.162,0,0,0,.26,1.62V15Zm-2.1-.964a2.223,2.223,0,0,0,1.128-.308,1.861,1.861,0,0,0,.772-.8V11.411H63.9q-2.324,0-2.324,1.36a1.151,1.151,0,0,0,.4.93A1.524,1.524,0,0,0,62.993,14.036ZM69.515,15H68.25V7.6h1.265ZM68.147,5.642a.755.755,0,0,1,.188-.52.706.706,0,0,1,.557-.212.717.717,0,0,1,.561.212.747.747,0,0,1,.191.52.722.722,0,0,1-.191.513.73.73,0,0,1-.561.205.718.718,0,0,1-.557-.205A.73.73,0,0,1,68.147,5.642ZM72.912,15H71.647V4.5h1.265ZM84.1,12.4h-4.17L78.989,15H77.636l3.8-9.953h1.148L86.393,15H85.046Zm-3.773-1.073h3.384l-1.7-4.655Zm6.9-.082A4.333,4.333,0,0,1,88.033,8.5a2.745,2.745,0,0,1,4.17-.147V4.5h1.265V15H92.306l-.062-.793a2.575,2.575,0,0,1-2.112.93,2.526,2.526,0,0,1-2.1-1.053,4.382,4.382,0,0,1-.81-2.748Zm1.265.144a3.281,3.281,0,0,0,.52,1.969,1.68,1.68,0,0,0,1.436.711,1.845,1.845,0,0,0,1.757-1.08v-3.4A1.859,1.859,0,0,0,90.46,8.54a1.687,1.687,0,0,0-1.449.718A3.612,3.612,0,0,0,88.491,11.384Zm6.631-.144A4.333,4.333,0,0,1,95.929,8.5a2.745,2.745,0,0,1,4.17-.147V4.5h1.265V15H100.2l-.062-.793a2.575,2.575,0,0,1-2.112.93,2.526,2.526,0,0,1-2.1-1.053,4.382,4.382,0,0,1-.81-2.748Zm1.265.144a3.281,3.281,0,0,0,.52,1.969,1.68,1.68,0,0,0,1.436.711,1.845,1.845,0,0,0,1.757-1.08v-3.4A1.859,1.859,0,0,0,98.355,8.54a1.687,1.687,0,0,0-1.449.718A3.612,3.612,0,0,0,96.387,11.384ZM106.9,8.738a3.79,3.79,0,0,0-.622-.048,1.667,1.667,0,0,0-1.688,1.06V15h-1.265V7.6h1.23l.021.854a1.969,1.969,0,0,1,1.764-.991,1.292,1.292,0,0,1,.561.1Zm4.231,6.4a3.232,3.232,0,0,1-2.447-.988,3.666,3.666,0,0,1-.943-2.642v-.232a4.438,4.438,0,0,1,.42-1.965,3.28,3.28,0,0,1,1.176-1.354,2.956,2.956,0,0,1,1.637-.489,2.77,2.77,0,0,1,2.242.95,4.114,4.114,0,0,1,.8,2.721v.526h-5.011a2.629,2.629,0,0,0,.639,1.767,2.009,2.009,0,0,0,1.555.673,2.2,2.2,0,0,0,1.135-.273,2.851,2.851,0,0,0,.813-.725l.772.6A3.106,3.106,0,0,1,111.132,15.137Zm-.157-6.631a1.687,1.687,0,0,0-1.285.557,2.708,2.708,0,0,0-.643,1.562h3.705v-.1a2.409,2.409,0,0,0-.52-1.494A1.588,1.588,0,0,0,110.975,8.506Zm8.812,4.532a.931.931,0,0,0-.386-.8,3.718,3.718,0,0,0-1.347-.489,6.367,6.367,0,0,1-1.524-.492,2.169,2.169,0,0,1-.834-.684,1.635,1.635,0,0,1-.27-.943,1.919,1.919,0,0,1,.769-1.538,3,3,0,0,1,1.965-.629,3.091,3.091,0,0,1,2.041.649,2.063,2.063,0,0,1,.783,1.661h-1.271a1.142,1.142,0,0,0-.441-.9,1.652,1.652,0,0,0-1.111-.376,1.729,1.729,0,0,0-1.08.3.947.947,0,0,0-.39.786.767.767,0,0,0,.362.69,4.458,4.458,0,0,0,1.309.444,6.821,6.821,0,0,1,1.535.506,2.239,2.239,0,0,1,.872.708,1.74,1.74,0,0,1,.284,1.008,1.893,1.893,0,0,1-.793,1.589,3.326,3.326,0,0,1-2.058.6,3.725,3.725,0,0,1-1.572-.314,2.557,2.557,0,0,1-1.07-.878,2.117,2.117,0,0,1-.386-1.22h1.265a1.309,1.309,0,0,0,.509,1.008,1.976,1.976,0,0,0,1.254.373,2.039,2.039,0,0,0,1.152-.291A.893.893,0,0,0,119.786,13.038Zm7.219,0a.931.931,0,0,0-.386-.8,3.718,3.718,0,0,0-1.347-.489,6.367,6.367,0,0,1-1.524-.492,2.169,2.169,0,0,1-.834-.684,1.635,1.635,0,0,1-.27-.943,1.919,1.919,0,0,1,.769-1.538,3,3,0,0,1,1.965-.629,3.091,3.091,0,0,1,2.041.649,2.063,2.063,0,0,1,.783,1.661H126.93a1.142,1.142,0,0,0-.441-.9,1.652,1.652,0,0,0-1.111-.376,1.729,1.729,0,0,0-1.08.3.947.947,0,0,0-.39.786.767.767,0,0,0,.362.69,4.458,4.458,0,0,0,1.309.444,6.821,6.821,0,0,1,1.535.506,2.239,2.239,0,0,1,.872.708,1.74,1.74,0,0,1,.284,1.008,1.893,1.893,0,0,1-.793,1.589,3.326,3.326,0,0,1-2.058.6,3.725,3.725,0,0,1-1.572-.314,2.557,2.557,0,0,1-1.07-.878,2.117,2.117,0,0,1-.386-1.22h1.265a1.309,1.309,0,0,0,.509,1.008,1.976,1.976,0,0,0,1.254.373,2.039,2.039,0,0,0,1.152-.291A.893.893,0,0,0,127,13.038Z" transform="translate(950.5 9333.663)" fill="#afafaf"/>
      <path id="Trazado_232450" data-name="Trazado 232450" d="M43.253,10.933H39.315V15H37.265V5.047h6.48V6.708h-4.43v2.57h3.938Zm1.1.3a4.387,4.387,0,0,1,.424-1.962A3.1,3.1,0,0,1,46,7.938a3.56,3.56,0,0,1,1.849-.472,3.368,3.368,0,0,1,2.444.916,3.676,3.676,0,0,1,1.056,2.488l.014.506a3.866,3.866,0,0,1-.95,2.731,3.683,3.683,0,0,1-5.1,0,3.934,3.934,0,0,1-.954-2.789Zm1.976.14a2.765,2.765,0,0,0,.4,1.612,1.424,1.424,0,0,0,2.256.007,3.025,3.025,0,0,0,.4-1.763,2.737,2.737,0,0,0-.4-1.6,1.311,1.311,0,0,0-1.135-.568,1.29,1.29,0,0,0-1.121.565A3.076,3.076,0,0,0,46.329,11.374Zm10.4-1.918a5.367,5.367,0,0,0-.711-.055,1.447,1.447,0,0,0-1.47.759V15H52.577V7.6h1.866l.055.882a1.831,1.831,0,0,1,1.647-1.019,2.07,2.07,0,0,1,.615.089Zm.663,1.791a4.335,4.335,0,0,1,.81-2.741,2.625,2.625,0,0,1,2.184-1.039,2.3,2.3,0,0,1,1.894.834l.082-.7h1.791v7.15a3.161,3.161,0,0,1-.441,1.688,2.832,2.832,0,0,1-1.241,1.094,4.362,4.362,0,0,1-1.873.376,4.056,4.056,0,0,1-1.586-.325,2.815,2.815,0,0,1-1.169-.837l.875-1.2a2.314,2.314,0,0,0,1.791.827,1.694,1.694,0,0,0,1.224-.42,1.577,1.577,0,0,0,.438-1.193v-.4a2.285,2.285,0,0,1-1.8.772,2.618,2.618,0,0,1-2.157-1.042,4.334,4.334,0,0,1-.824-2.765Zm1.976.147a2.7,2.7,0,0,0,.4,1.578,1.283,1.283,0,0,0,1.107.572,1.372,1.372,0,0,0,1.292-.678V9.751A1.369,1.369,0,0,0,60.9,9.073a1.291,1.291,0,0,0-1.118.582A3.042,3.042,0,0,0,59.372,11.394Zm6-.161a4.387,4.387,0,0,1,.424-1.962,3.1,3.1,0,0,1,1.22-1.333,3.56,3.56,0,0,1,1.849-.472,3.368,3.368,0,0,1,2.444.916,3.676,3.676,0,0,1,1.056,2.488l.014.506a3.866,3.866,0,0,1-.95,2.731,3.683,3.683,0,0,1-5.1,0,3.934,3.934,0,0,1-.954-2.789Zm1.976.14a2.765,2.765,0,0,0,.4,1.612A1.424,1.424,0,0,0,70,12.993a3.025,3.025,0,0,0,.4-1.763,2.737,2.737,0,0,0-.4-1.6A1.311,1.311,0,0,0,68.86,9.06a1.29,1.29,0,0,0-1.121.565A3.076,3.076,0,0,0,67.343,11.374Zm8.613-5.588V7.6h1.265V9.053H75.956v3.691a.881.881,0,0,0,.157.588.79.79,0,0,0,.6.178,3.15,3.15,0,0,0,.581-.048v1.5a4.067,4.067,0,0,1-1.2.178,1.886,1.886,0,0,1-2.119-2.1V9.053H72.9V7.6h1.08V5.785Zm9.413,3.746L87.44,5.047h2.242l-3.268,6.344V15H84.33V11.391L81.063,5.047h2.249Zm4.341,1.7a4.387,4.387,0,0,1,.424-1.962,3.1,3.1,0,0,1,1.22-1.333A3.56,3.56,0,0,1,93.2,7.467a3.368,3.368,0,0,1,2.444.916A3.676,3.676,0,0,1,96.7,10.871l.014.506a3.866,3.866,0,0,1-.95,2.731,3.683,3.683,0,0,1-5.1,0,3.934,3.934,0,0,1-.954-2.789Zm1.976.14a2.765,2.765,0,0,0,.4,1.612,1.424,1.424,0,0,0,2.256.007,3.025,3.025,0,0,0,.4-1.763,2.737,2.737,0,0,0-.4-1.6A1.311,1.311,0,0,0,93.2,9.06a1.29,1.29,0,0,0-1.121.565A3.076,3.076,0,0,0,91.686,11.374Zm10.678,2.874a2.477,2.477,0,0,1-2.023.889,2.337,2.337,0,0,1-1.815-.684,2.918,2.918,0,0,1-.639-2V7.6h1.976v4.784q0,1.157,1.053,1.157a1.426,1.426,0,0,0,1.381-.7V7.6h1.982V15h-1.859Zm7.561-4.792a5.367,5.367,0,0,0-.711-.055,1.447,1.447,0,0,0-1.47.759V15h-1.976V7.6h1.866l.055.882a1.831,1.831,0,0,1,1.647-1.019,2.07,2.07,0,0,1,.615.089Zm6.617,2.037V15H114.49V5.047h3.883a4.492,4.492,0,0,1,1.972.41,3.022,3.022,0,0,1,1.309,1.166,3.25,3.25,0,0,1,.458,1.719,2.858,2.858,0,0,1-1,2.307,4.171,4.171,0,0,1-2.772.844Zm0-1.661h1.832a1.8,1.8,0,0,0,1.241-.383,1.392,1.392,0,0,0,.427-1.094,1.642,1.642,0,0,0-.431-1.183,1.609,1.609,0,0,0-1.189-.465h-1.88ZM127.6,15a2.194,2.194,0,0,1-.2-.663,2.39,2.39,0,0,1-1.866.8,2.626,2.626,0,0,1-1.8-.629,2.023,2.023,0,0,1-.714-1.586,2.09,2.09,0,0,1,.872-1.8,4.3,4.3,0,0,1,2.519-.636h.909v-.424a1.219,1.219,0,0,0-.263-.82,1.035,1.035,0,0,0-.831-.308,1.177,1.177,0,0,0-.783.239.813.813,0,0,0-.284.656h-1.976a1.985,1.985,0,0,1,.4-1.189,2.621,2.621,0,0,1,1.121-.858,4.086,4.086,0,0,1,1.627-.311,3.228,3.228,0,0,1,2.17.687,2.4,2.4,0,0,1,.8,1.931v3.206a3.536,3.536,0,0,0,.294,1.593V15Zm-1.634-1.374a1.7,1.7,0,0,0,.807-.195,1.28,1.28,0,0,0,.547-.523V11.637h-.738q-1.483,0-1.579,1.025l-.007.116a.791.791,0,0,0,.26.608A1.009,1.009,0,0,0,125.968,13.626Zm8.859-.67a.637.637,0,0,0-.359-.571,4.077,4.077,0,0,0-1.152-.373q-2.639-.554-2.639-2.242a2.032,2.032,0,0,1,.817-1.644,3.3,3.3,0,0,1,2.136-.66,3.547,3.547,0,0,1,2.252.663,2.09,2.09,0,0,1,.844,1.723h-1.976a.956.956,0,0,0-.273-.7,1.157,1.157,0,0,0-.854-.277,1.182,1.182,0,0,0-.772.226.712.712,0,0,0-.273.574.609.609,0,0,0,.311.53,3.2,3.2,0,0,0,1.049.349,8.57,8.57,0,0,1,1.244.332,2.044,2.044,0,0,1,1.565,1.989,1.929,1.929,0,0,1-.868,1.637,3.745,3.745,0,0,1-2.242.625,3.912,3.912,0,0,1-1.651-.332,2.77,2.77,0,0,1-1.131-.909,2.113,2.113,0,0,1-.41-1.248h1.873a1.031,1.031,0,0,0,.39.807,1.546,1.546,0,0,0,.971.28,1.43,1.43,0,0,0,.858-.215A.67.67,0,0,0,134.827,12.956Zm7.2,0a.637.637,0,0,0-.359-.571,4.077,4.077,0,0,0-1.152-.373q-2.639-.554-2.639-2.242a2.032,2.032,0,0,1,.817-1.644,3.3,3.3,0,0,1,2.136-.66,3.547,3.547,0,0,1,2.252.663,2.09,2.09,0,0,1,.844,1.723H141.95a.956.956,0,0,0-.273-.7,1.157,1.157,0,0,0-.854-.277,1.182,1.182,0,0,0-.772.226.712.712,0,0,0-.273.574.609.609,0,0,0,.311.53,3.2,3.2,0,0,0,1.049.349,8.57,8.57,0,0,1,1.244.332,2.044,2.044,0,0,1,1.565,1.989,1.929,1.929,0,0,1-.868,1.637,3.745,3.745,0,0,1-2.242.625,3.912,3.912,0,0,1-1.651-.332,2.77,2.77,0,0,1-1.131-.909,2.113,2.113,0,0,1-.41-1.248h1.873a1.031,1.031,0,0,0,.39.807,1.546,1.546,0,0,0,.971.28,1.43,1.43,0,0,0,.858-.215A.67.67,0,0,0,142.025,12.956Zm9.625-.643.971-4.71h1.907L152.642,15h-1.654l-1.4-4.655L148.185,15h-1.647L144.65,7.6h1.907l.964,4.7,1.354-4.7H150.3Zm3.548-1.08a4.387,4.387,0,0,1,.424-1.962,3.1,3.1,0,0,1,1.22-1.333,3.56,3.56,0,0,1,1.849-.472,3.368,3.368,0,0,1,2.444.916,3.676,3.676,0,0,1,1.056,2.488l.014.506a3.866,3.866,0,0,1-.95,2.731,3.683,3.683,0,0,1-5.1,0,3.934,3.934,0,0,1-.954-2.789Zm1.976.14a2.765,2.765,0,0,0,.4,1.612,1.424,1.424,0,0,0,2.256.007,3.025,3.025,0,0,0,.4-1.763,2.737,2.737,0,0,0-.4-1.6,1.311,1.311,0,0,0-1.135-.568,1.29,1.29,0,0,0-1.121.565A3.076,3.076,0,0,0,157.174,11.374Zm10.4-1.918a5.367,5.367,0,0,0-.711-.055,1.447,1.447,0,0,0-1.47.759V15h-1.976V7.6h1.866l.055.882a1.831,1.831,0,0,1,1.647-1.019,2.07,2.07,0,0,1,.615.089Zm.643,1.791A4.457,4.457,0,0,1,169,8.492a2.517,2.517,0,0,1,2.123-1.025,2.265,2.265,0,0,1,1.784.807V4.5h1.982V15H173.1l-.1-.786a2.325,2.325,0,0,1-1.9.923,2.511,2.511,0,0,1-2.1-1.029A4.6,4.6,0,0,1,168.221,11.247Zm1.976.147a2.92,2.92,0,0,0,.362,1.6,1.18,1.18,0,0,0,1.053.555,1.322,1.322,0,0,0,1.292-.774V9.847a1.3,1.3,0,0,0-1.278-.774Q170.2,9.073,170.2,11.394Zm7.834.557a4.112,4.112,0,0,1,.232-1.526,3.131,3.131,0,0,1,.851-1.119,4.352,4.352,0,0,0,.824-.9,1.408,1.408,0,0,0,.205-.729q0-1.157-1.066-1.157a1.08,1.08,0,0,0-.81.312,1.225,1.225,0,0,0-.318.86h-1.982a2.637,2.637,0,0,1,.844-2.046,3.9,3.9,0,0,1,4.515-.038,2.5,2.5,0,0,1,.8,1.981,2.412,2.412,0,0,1-.26,1.1,4.524,4.524,0,0,1-.909,1.146l-.554.527a1.877,1.877,0,0,0-.595,1.17l-.027.417Zm-.2,2.1a1,1,0,0,1,.311-.753,1.218,1.218,0,0,1,1.593,0,1.063,1.063,0,0,1,.007,1.5,1.248,1.248,0,0,1-1.606,0A.987.987,0,0,1,177.832,14.046Z" transform="translate(950.5 9186)" fill="#12263f"/>
      <path id="Trazado_232451" data-name="Trazado 232451" d="M9.439,11.862l.191,1.313.28-1.183,1.969-6.945h1.107l1.921,6.945.273,1.2.212-1.34,1.545-6.809h1.319L15.844,15h-1.2L12.6,7.747l-.157-.759-.157.759L10.157,15H8.96L6.554,5.047H7.867ZM20.78,8.5a2.689,2.689,0,0,1,2.188-1.032q2.345,0,2.365,2.646V15H24.068V10.105A1.7,1.7,0,0,0,23.7,8.923a1.466,1.466,0,0,0-1.118-.383,1.825,1.825,0,0,0-1.08.328,2.228,2.228,0,0,0-.725.861V15H19.515V4.5H20.78ZM30.3,15.137a3.232,3.232,0,0,1-2.447-.988,3.666,3.666,0,0,1-.943-2.642v-.232a4.438,4.438,0,0,1,.42-1.965A3.28,3.28,0,0,1,28.5,7.956a2.956,2.956,0,0,1,1.637-.489,2.77,2.77,0,0,1,2.242.95,4.114,4.114,0,0,1,.8,2.721v.526H28.169a2.629,2.629,0,0,0,.639,1.767,2.009,2.009,0,0,0,1.555.673,2.2,2.2,0,0,0,1.135-.273,2.851,2.851,0,0,0,.813-.725l.772.6A3.106,3.106,0,0,1,30.3,15.137Zm-.157-6.631a1.687,1.687,0,0,0-1.285.557,2.708,2.708,0,0,0-.643,1.562h3.705v-.1a2.409,2.409,0,0,0-.52-1.494A1.588,1.588,0,0,0,30.138,8.506Zm5.7-.9.041.93A2.7,2.7,0,0,1,38.1,7.467q2.345,0,2.365,2.646V15H39.2V10.105a1.7,1.7,0,0,0-.366-1.183,1.466,1.466,0,0,0-1.118-.383,1.825,1.825,0,0,0-1.08.328,2.228,2.228,0,0,0-.725.861V15H34.643V7.6Zm9.693,3.637a4.347,4.347,0,0,1,.8-2.751,2.757,2.757,0,0,1,4.231-.065l.062-.82h1.155v7.219a3.009,3.009,0,0,1-.851,2.263,3.141,3.141,0,0,1-2.287.827,3.8,3.8,0,0,1-1.565-.342,2.7,2.7,0,0,1-1.169-.937l.656-.759a2.473,2.473,0,0,0,1.989,1,1.938,1.938,0,0,0,1.439-.52,1.986,1.986,0,0,0,.516-1.463v-.636a2.6,2.6,0,0,1-2.071.875,2.526,2.526,0,0,1-2.1-1.046A4.571,4.571,0,0,1,45.533,11.24Zm1.271.144a3.316,3.316,0,0,0,.513,1.965,1.666,1.666,0,0,0,1.436.714,1.852,1.852,0,0,0,1.757-1.087V9.6a1.874,1.874,0,0,0-1.743-1.06,1.681,1.681,0,0,0-1.442.718A3.612,3.612,0,0,0,46.8,11.384Zm9.953,3.753a3.232,3.232,0,0,1-2.447-.988,3.666,3.666,0,0,1-.943-2.642v-.232a4.438,4.438,0,0,1,.42-1.965,3.28,3.28,0,0,1,1.176-1.354A2.956,2.956,0,0,1,56.6,7.467a2.77,2.77,0,0,1,2.242.95,4.114,4.114,0,0,1,.8,2.721v.526H54.631a2.629,2.629,0,0,0,.639,1.767,2.009,2.009,0,0,0,1.555.673,2.2,2.2,0,0,0,1.135-.273,2.851,2.851,0,0,0,.813-.725l.772.6A3.106,3.106,0,0,1,56.757,15.137ZM56.6,8.506a1.687,1.687,0,0,0-1.285.557,2.708,2.708,0,0,0-.643,1.562h3.705v-.1a2.409,2.409,0,0,0-.52-1.494A1.588,1.588,0,0,0,56.6,8.506Zm6.221-2.693V7.6H64.2v.978H62.821v4.593a1.027,1.027,0,0,0,.185.667.777.777,0,0,0,.629.222,3.062,3.062,0,0,0,.6-.082V15a3.688,3.688,0,0,1-.971.136,1.575,1.575,0,0,1-1.278-.513,2.2,2.2,0,0,1-.431-1.456V8.581H60.209V7.6h1.347V5.813ZM70.518,15H69.253V7.6h1.265ZM69.151,5.642a.755.755,0,0,1,.188-.52A.706.706,0,0,1,69.9,4.91a.717.717,0,0,1,.561.212.747.747,0,0,1,.191.52.722.722,0,0,1-.191.513.73.73,0,0,1-.561.205.718.718,0,0,1-.557-.205A.73.73,0,0,1,69.151,5.642Zm5.106.171V7.6h1.381v.978H74.257v4.593a1.027,1.027,0,0,0,.185.667.777.777,0,0,0,.629.222,3.062,3.062,0,0,0,.6-.082V15a3.688,3.688,0,0,1-.971.136,1.575,1.575,0,0,1-1.278-.513,2.2,2.2,0,0,1-.431-1.456V8.581H71.646V7.6h1.347V5.813Zm2.816,11.17-.718-.492a3.3,3.3,0,0,0,.67-1.846V13.5h1.237v.991a3.114,3.114,0,0,1-.338,1.381A3.233,3.233,0,0,1,77.074,16.982Zm9.386-6.419A6.172,6.172,0,0,1,84,9.371a2.279,2.279,0,0,1-.769-1.747,2.408,2.408,0,0,1,.94-1.945,3.736,3.736,0,0,1,2.444-.769,4.078,4.078,0,0,1,1.829.4A3.007,3.007,0,0,1,89.689,6.4a2.8,2.8,0,0,1,.441,1.524H88.811A1.82,1.82,0,0,0,88.237,6.5a2.335,2.335,0,0,0-1.62-.518,2.391,2.391,0,0,0-1.514.428A1.428,1.428,0,0,0,84.559,7.6a1.285,1.285,0,0,0,.516,1.031,5.062,5.062,0,0,0,1.757.77,8.152,8.152,0,0,1,1.941.77,2.946,2.946,0,0,1,1.039.981,2.5,2.5,0,0,1,.338,1.319,2.326,2.326,0,0,1-.943,1.938,4.022,4.022,0,0,1-2.522.728,4.678,4.678,0,0,1-1.914-.393A3.221,3.221,0,0,1,83.4,13.667a2.627,2.627,0,0,1-.482-1.552h1.319a1.714,1.714,0,0,0,.667,1.425,2.806,2.806,0,0,0,1.781.523,2.58,2.58,0,0,0,1.593-.424,1.377,1.377,0,0,0,.554-1.155,1.351,1.351,0,0,0-.513-1.131A5.911,5.911,0,0,0,86.459,10.563ZM93.35,5.813V7.6h1.381v.978H93.35v4.593a1.027,1.027,0,0,0,.185.667.777.777,0,0,0,.629.222,3.062,3.062,0,0,0,.6-.082V15a3.688,3.688,0,0,1-.971.136,1.575,1.575,0,0,1-1.278-.513,2.2,2.2,0,0,1-.431-1.456V8.581H90.739V7.6h1.347V5.813Zm7.424,8.456a2.686,2.686,0,0,1-2.167.868,2.3,2.3,0,0,1-1.8-.687,2.974,2.974,0,0,1-.625-2.034V7.6h1.265v4.778q0,1.682,1.367,1.682a1.893,1.893,0,0,0,1.928-1.08V7.6H102V15h-1.2Zm3.773.731V8.581h-1.169V7.6h1.169V6.845a2.519,2.519,0,0,1,.636-1.839,2.4,2.4,0,0,1,1.8-.649,3.339,3.339,0,0,1,.868.115l-.068,1.019a3.632,3.632,0,0,0-.684-.062,1.234,1.234,0,0,0-.95.36,1.46,1.46,0,0,0-.335,1.032V7.6h1.579v.978h-1.579V15Zm4.86,0V8.581h-1.169V7.6h1.169V6.845a2.519,2.519,0,0,1,.636-1.839,2.4,2.4,0,0,1,1.8-.649,3.339,3.339,0,0,1,.868.115l-.068,1.019a3.632,3.632,0,0,0-.684-.062,1.234,1.234,0,0,0-.95.36,1.46,1.46,0,0,0-.335,1.032V7.6h1.579v.978h-1.579V15Zm8.969-6.5a2.689,2.689,0,0,1,2.188-1.032q2.345,0,2.365,2.646V15h-1.265V10.105a1.7,1.7,0,0,0-.366-1.183,1.466,1.466,0,0,0-1.118-.383,1.825,1.825,0,0,0-1.08.328,2.228,2.228,0,0,0-.725.861V15h-1.265V4.5h1.265ZM129.389,15a2.657,2.657,0,0,1-.178-.779,2.822,2.822,0,0,1-2.105.916,2.611,2.611,0,0,1-1.794-.619,2,2,0,0,1-.7-1.569,2.091,2.091,0,0,1,.878-1.794,4.141,4.141,0,0,1,2.471-.639h1.23V9.935a1.42,1.42,0,0,0-.4-1.056,1.593,1.593,0,0,0-1.169-.393,1.844,1.844,0,0,0-1.135.342,1.007,1.007,0,0,0-.458.827h-1.271a1.745,1.745,0,0,1,.393-1.07,2.683,2.683,0,0,1,1.066-.817,3.588,3.588,0,0,1,1.48-.3,2.924,2.924,0,0,1,2,.639,2.306,2.306,0,0,1,.752,1.76v3.4a4.162,4.162,0,0,0,.26,1.62V15Zm-2.1-.964a2.223,2.223,0,0,0,1.128-.308,1.861,1.861,0,0,0,.772-.8V11.411H128.2q-2.324,0-2.324,1.36a1.151,1.151,0,0,0,.4.93A1.524,1.524,0,0,0,127.291,14.036Zm11.4-2.652a4.429,4.429,0,0,1-.772,2.721,2.476,2.476,0,0,1-2.092,1.032,2.713,2.713,0,0,1-2.119-.854v3.562h-1.265V7.6h1.155l.062.82a2.605,2.605,0,0,1,2.146-.957,2.522,2.522,0,0,1,2.109,1,4.477,4.477,0,0,1,.776,2.8Zm-1.265-.144a3.268,3.268,0,0,0-.533-1.976,1.718,1.718,0,0,0-1.463-.725A1.859,1.859,0,0,0,133.7,9.559v3.534a1.863,1.863,0,0,0,1.736,1.012,1.71,1.71,0,0,0,1.446-.721A3.567,3.567,0,0,0,137.421,11.24Zm9.119.144a4.429,4.429,0,0,1-.772,2.721,2.476,2.476,0,0,1-2.092,1.032,2.713,2.713,0,0,1-2.119-.854v3.562h-1.265V7.6h1.155l.062.82a2.605,2.605,0,0,1,2.146-.957,2.522,2.522,0,0,1,2.109,1,4.477,4.477,0,0,1,.776,2.8Zm-1.265-.144a3.268,3.268,0,0,0-.533-1.976,1.718,1.718,0,0,0-1.463-.725,1.859,1.859,0,0,0-1.723,1.019v3.534a1.863,1.863,0,0,0,1.736,1.012,1.71,1.71,0,0,0,1.446-.721A3.567,3.567,0,0,0,145.276,11.24Zm5.94,3.9a3.232,3.232,0,0,1-2.447-.988,3.666,3.666,0,0,1-.943-2.642v-.232a4.438,4.438,0,0,1,.42-1.965,3.279,3.279,0,0,1,1.176-1.354,2.956,2.956,0,0,1,1.637-.489,2.77,2.77,0,0,1,2.242.95,4.114,4.114,0,0,1,.8,2.721v.526H149.09a2.629,2.629,0,0,0,.639,1.767,2.009,2.009,0,0,0,1.555.673,2.2,2.2,0,0,0,1.135-.273,2.851,2.851,0,0,0,.813-.725l.772.6A3.106,3.106,0,0,1,151.216,15.137Zm-.157-6.631a1.687,1.687,0,0,0-1.285.557,2.708,2.708,0,0,0-.643,1.562h3.705v-.1a2.409,2.409,0,0,0-.52-1.494A1.588,1.588,0,0,0,151.059,8.506Zm5.7-.9.041.93a2.7,2.7,0,0,1,2.215-1.066q2.345,0,2.365,2.646V15h-1.265V10.105a1.7,1.7,0,0,0-.366-1.183,1.466,1.466,0,0,0-1.118-.383,1.825,1.825,0,0,0-1.08.328,2.228,2.228,0,0,0-.725.861V15h-1.265V7.6ZM167.6,13.038a.931.931,0,0,0-.386-.8,3.718,3.718,0,0,0-1.347-.489,6.367,6.367,0,0,1-1.524-.492,2.169,2.169,0,0,1-.834-.684,1.635,1.635,0,0,1-.27-.943A1.919,1.919,0,0,1,164,8.1a3,3,0,0,1,1.965-.629,3.091,3.091,0,0,1,2.041.649,2.063,2.063,0,0,1,.783,1.661H167.52a1.142,1.142,0,0,0-.441-.9,1.652,1.652,0,0,0-1.111-.376,1.729,1.729,0,0,0-1.08.3.947.947,0,0,0-.39.786.767.767,0,0,0,.362.69,4.458,4.458,0,0,0,1.309.444,6.821,6.821,0,0,1,1.535.506,2.239,2.239,0,0,1,.872.708,1.74,1.74,0,0,1,.284,1.008,1.893,1.893,0,0,1-.793,1.589,3.326,3.326,0,0,1-2.058.6,3.725,3.725,0,0,1-1.572-.314,2.557,2.557,0,0,1-1.07-.878,2.117,2.117,0,0,1-.386-1.22h1.265a1.309,1.309,0,0,0,.509,1.008,1.976,1.976,0,0,0,1.254.373,2.039,2.039,0,0,0,1.152-.291A.893.893,0,0,0,167.6,13.038Zm2.871,3.944-.718-.492a3.3,3.3,0,0,0,.67-1.846V13.5h1.237v.991a3.114,3.114,0,0,1-.338,1.381A3.233,3.233,0,0,1,170.466,16.982ZM181.089,5.047h1.319v7.048a2.919,2.919,0,0,1-.858,2.235,3.2,3.2,0,0,1-2.287.807,3.292,3.292,0,0,1-2.311-.759,2.74,2.74,0,0,1-.827-2.126h1.313a1.649,1.649,0,0,0,1.825,1.812,1.76,1.76,0,0,0,1.316-.513,1.986,1.986,0,0,0,.509-1.436Zm7.923,9.222a2.686,2.686,0,0,1-2.167.868,2.3,2.3,0,0,1-1.8-.687,2.974,2.974,0,0,1-.625-2.034V7.6h1.265v4.778q0,1.682,1.367,1.682a1.893,1.893,0,0,0,1.928-1.08V7.6h1.265V15h-1.2Zm7.458-1.23a.931.931,0,0,0-.386-.8,3.718,3.718,0,0,0-1.347-.489,6.367,6.367,0,0,1-1.524-.492,2.169,2.169,0,0,1-.834-.684,1.635,1.635,0,0,1-.27-.943,1.919,1.919,0,0,1,.769-1.538,3,3,0,0,1,1.965-.629,3.091,3.091,0,0,1,2.041.649,2.063,2.063,0,0,1,.783,1.661H196.4a1.142,1.142,0,0,0-.441-.9,1.652,1.652,0,0,0-1.111-.376,1.729,1.729,0,0,0-1.08.3.947.947,0,0,0-.39.786.767.767,0,0,0,.362.69,4.458,4.458,0,0,0,1.309.444,6.821,6.821,0,0,1,1.535.506,2.239,2.239,0,0,1,.872.708,1.74,1.74,0,0,1,.284,1.008,1.893,1.893,0,0,1-.793,1.589,3.326,3.326,0,0,1-2.058.6,3.725,3.725,0,0,1-1.572-.314,2.557,2.557,0,0,1-1.07-.878,2.117,2.117,0,0,1-.386-1.22h1.265a1.309,1.309,0,0,0,.509,1.008,1.976,1.976,0,0,0,1.254.373,2.039,2.039,0,0,0,1.152-.291A.893.893,0,0,0,196.47,13.038ZM201.1,5.813V7.6h1.381v.978H201.1v4.593a1.027,1.027,0,0,0,.185.667.777.777,0,0,0,.629.222,3.062,3.062,0,0,0,.6-.082V15a3.688,3.688,0,0,1-.971.136,1.575,1.575,0,0,1-1.278-.513,2.2,2.2,0,0,1-.431-1.456V8.581h-1.347V7.6h1.347V5.813Zm9.393,9.324a3.232,3.232,0,0,1-2.447-.988,3.666,3.666,0,0,1-.943-2.642v-.232a4.438,4.438,0,0,1,.42-1.965A3.279,3.279,0,0,1,208.7,7.956a2.956,2.956,0,0,1,1.637-.489,2.77,2.77,0,0,1,2.242.95,4.114,4.114,0,0,1,.8,2.721v.526h-5.011A2.629,2.629,0,0,0,209,13.431a2.009,2.009,0,0,0,1.555.673,2.2,2.2,0,0,0,1.135-.273,2.851,2.851,0,0,0,.813-.725l.772.6A3.106,3.106,0,0,1,210.491,15.137Zm-.157-6.631a1.687,1.687,0,0,0-1.285.557,2.708,2.708,0,0,0-.643,1.562h3.705v-.1a2.409,2.409,0,0,0-.52-1.494A1.588,1.588,0,0,0,210.333,8.506Zm5.7-.9.041.93a2.7,2.7,0,0,1,2.215-1.066q2.345,0,2.365,2.646V15h-1.265V10.105a1.7,1.7,0,0,0-.366-1.183,1.466,1.466,0,0,0-1.118-.383,1.825,1.825,0,0,0-1.08.328,2.228,2.228,0,0,0-.725.861V15h-1.265V7.6Zm8.244-1.791V7.6h1.381v.978h-1.381v4.593a1.027,1.027,0,0,0,.185.667.777.777,0,0,0,.629.222,3.062,3.062,0,0,0,.6-.082V15a3.688,3.688,0,0,1-.971.136,1.575,1.575,0,0,1-1.278-.513,2.2,2.2,0,0,1-.431-1.456V8.581h-1.347V7.6h1.347V5.813Zm5.927,9.324a3.232,3.232,0,0,1-2.447-.988,3.666,3.666,0,0,1-.943-2.642v-.232a4.438,4.438,0,0,1,.42-1.965,3.279,3.279,0,0,1,1.176-1.354,2.956,2.956,0,0,1,1.637-.489,2.77,2.77,0,0,1,2.242.95,4.114,4.114,0,0,1,.8,2.721v.526H228.08a2.629,2.629,0,0,0,.639,1.767,2.009,2.009,0,0,0,1.555.673,2.2,2.2,0,0,0,1.135-.273,2.851,2.851,0,0,0,.813-.725l.772.6A3.106,3.106,0,0,1,230.206,15.137Zm-.157-6.631a1.687,1.687,0,0,0-1.285.557,2.708,2.708,0,0,0-.643,1.562h3.705v-.1a2.409,2.409,0,0,0-.52-1.494A1.588,1.588,0,0,0,230.048,8.506Zm8.08.232a3.79,3.79,0,0,0-.622-.048,1.667,1.667,0,0,0-1.688,1.06V15h-1.265V7.6h1.23l.021.854a1.969,1.969,0,0,1,1.764-.991,1.292,1.292,0,0,1,.561.1Zm7.048,4.409L246.9,7.6h1.354l-2.974,8.538q-.69,1.846-2.194,1.846l-.239-.021-.472-.089V16.853l.342.027a1.683,1.683,0,0,0,1-.26,1.88,1.88,0,0,0,.591-.95l.28-.752L241.95,7.6h1.381Zm3.869-1.914a4.369,4.369,0,0,1,.427-1.955,3.187,3.187,0,0,1,1.189-1.34,3.238,3.238,0,0,1,1.74-.472,3.119,3.119,0,0,1,2.444,1.046,4.024,4.024,0,0,1,.933,2.782v.089a4.407,4.407,0,0,1-.414,1.938,3.14,3.14,0,0,1-1.183,1.336,3.275,3.275,0,0,1-1.767.479,3.111,3.111,0,0,1-2.437-1.046,4,4,0,0,1-.933-2.769Zm1.271.15a3.164,3.164,0,0,0,.571,1.976,1.934,1.934,0,0,0,3.059-.01,3.46,3.46,0,0,0,.567-2.116,3.159,3.159,0,0,0-.578-1.972,1.836,1.836,0,0,0-1.535-.755,1.816,1.816,0,0,0-1.511.745A3.435,3.435,0,0,0,250.317,11.384Zm11.614,2.885a2.686,2.686,0,0,1-2.167.868,2.3,2.3,0,0,1-1.8-.687,2.974,2.974,0,0,1-.625-2.034V7.6H258.6v4.778q0,1.682,1.367,1.682a1.893,1.893,0,0,0,1.928-1.08V7.6h1.265V15h-1.2Zm6.727-5.53a3.79,3.79,0,0,0-.622-.048,1.667,1.667,0,0,0-1.688,1.06V15h-1.265V7.6h1.23l.021.854a1.969,1.969,0,0,1,1.764-.991,1.292,1.292,0,0,1,.561.1ZM13.445,37.137A3.232,3.232,0,0,1,11,36.149a3.666,3.666,0,0,1-.943-2.642v-.232a4.438,4.438,0,0,1,.42-1.965,3.28,3.28,0,0,1,1.176-1.354,2.956,2.956,0,0,1,1.637-.489,2.77,2.77,0,0,1,2.242.95,4.114,4.114,0,0,1,.8,2.721v.526H11.319a2.629,2.629,0,0,0,.639,1.767,2.009,2.009,0,0,0,1.555.673,2.2,2.2,0,0,0,1.135-.273,2.851,2.851,0,0,0,.813-.725l.772.6A3.106,3.106,0,0,1,13.445,37.137Zm-.157-6.631A1.687,1.687,0,0,0,12,31.063a2.708,2.708,0,0,0-.643,1.562h3.705v-.1a2.409,2.409,0,0,0-.52-1.494A1.588,1.588,0,0,0,13.288,30.506Zm5.694-.9.034.82a2.732,2.732,0,0,1,2.194-.957,2.115,2.115,0,0,1,2.112,1.189,2.8,2.8,0,0,1,.96-.861,2.837,2.837,0,0,1,1.4-.328q2.434,0,2.475,2.577V37H26.891V32.119a1.7,1.7,0,0,0-.362-1.186,1.6,1.6,0,0,0-1.217-.393,1.677,1.677,0,0,0-1.169.42,1.706,1.706,0,0,0-.54,1.131V37H22.332V32.153a1.411,1.411,0,0,0-1.579-1.613,1.692,1.692,0,0,0-1.7,1.06V37H17.786V29.6ZM34.629,37a2.657,2.657,0,0,1-.178-.779,2.822,2.822,0,0,1-2.105.916,2.611,2.611,0,0,1-1.794-.619,2,2,0,0,1-.7-1.569,2.091,2.091,0,0,1,.878-1.794,4.142,4.142,0,0,1,2.471-.639h1.23v-.581a1.42,1.42,0,0,0-.4-1.056,1.593,1.593,0,0,0-1.169-.393,1.844,1.844,0,0,0-1.135.342,1.007,1.007,0,0,0-.458.827H30a1.745,1.745,0,0,1,.393-1.07,2.683,2.683,0,0,1,1.066-.817,3.588,3.588,0,0,1,1.48-.3,2.924,2.924,0,0,1,2,.639,2.306,2.306,0,0,1,.752,1.76v3.4a4.162,4.162,0,0,0,.26,1.62V37Zm-2.1-.964a2.223,2.223,0,0,0,1.128-.308,1.861,1.861,0,0,0,.772-.8V33.411H33.44q-2.324,0-2.324,1.36a1.151,1.151,0,0,0,.4.93A1.524,1.524,0,0,0,32.531,36.036ZM39.052,37H37.788V29.6h1.265Zm-1.367-9.358a.755.755,0,0,1,.188-.52.706.706,0,0,1,.557-.212.717.717,0,0,1,.561.212.747.747,0,0,1,.191.52.722.722,0,0,1-.191.513.73.73,0,0,1-.561.205.718.718,0,0,1-.557-.205A.73.73,0,0,1,37.685,27.642ZM42.45,37H41.185V26.5H42.45Zm10.056,0a2.657,2.657,0,0,1-.178-.779,2.822,2.822,0,0,1-2.105.916,2.611,2.611,0,0,1-1.794-.619,2,2,0,0,1-.7-1.569,2.091,2.091,0,0,1,.878-1.794,4.142,4.142,0,0,1,2.471-.639h1.23v-.581a1.42,1.42,0,0,0-.4-1.056,1.593,1.593,0,0,0-1.169-.393,1.844,1.844,0,0,0-1.135.342,1.007,1.007,0,0,0-.458.827H47.877a1.745,1.745,0,0,1,.393-1.07,2.683,2.683,0,0,1,1.066-.817,3.588,3.588,0,0,1,1.48-.3,2.924,2.924,0,0,1,2,.639,2.306,2.306,0,0,1,.752,1.76v3.4a4.162,4.162,0,0,0,.26,1.62V37Zm-2.1-.964a2.223,2.223,0,0,0,1.128-.308,1.861,1.861,0,0,0,.772-.8V33.411h-.991q-2.324,0-2.324,1.36a1.151,1.151,0,0,0,.4.93A1.524,1.524,0,0,0,50.407,36.036Zm4.84-2.8a4.333,4.333,0,0,1,.807-2.738,2.745,2.745,0,0,1,4.17-.147V26.5h1.265V37H60.326l-.062-.793a2.575,2.575,0,0,1-2.112.93,2.526,2.526,0,0,1-2.1-1.053,4.382,4.382,0,0,1-.81-2.748Zm1.265.144a3.281,3.281,0,0,0,.52,1.969,1.68,1.68,0,0,0,1.436.711,1.845,1.845,0,0,0,1.757-1.08v-3.4A1.859,1.859,0,0,0,58.48,30.54a1.687,1.687,0,0,0-1.449.718A3.612,3.612,0,0,0,56.511,33.384Zm6.631-.144a4.333,4.333,0,0,1,.807-2.738,2.745,2.745,0,0,1,4.17-.147V26.5h1.265V37H68.221l-.062-.793a2.575,2.575,0,0,1-2.112.93,2.526,2.526,0,0,1-2.1-1.053,4.382,4.382,0,0,1-.81-2.748Zm1.265.144a3.281,3.281,0,0,0,.52,1.969,1.68,1.68,0,0,0,1.436.711,1.845,1.845,0,0,0,1.757-1.08v-3.4a1.859,1.859,0,0,0-1.743-1.046,1.687,1.687,0,0,0-1.449.718A3.612,3.612,0,0,0,64.407,33.384ZM74.92,30.738a3.79,3.79,0,0,0-.622-.048,1.667,1.667,0,0,0-1.688,1.06V37H71.345V29.6h1.23l.021.854a1.969,1.969,0,0,1,1.764-.991,1.292,1.292,0,0,1,.561.1Zm4.231,6.4a3.232,3.232,0,0,1-2.447-.988,3.666,3.666,0,0,1-.943-2.642v-.232a4.438,4.438,0,0,1,.42-1.965,3.28,3.28,0,0,1,1.176-1.354,2.956,2.956,0,0,1,1.637-.489,2.77,2.77,0,0,1,2.242.95,4.114,4.114,0,0,1,.8,2.721v.526H77.026a2.629,2.629,0,0,0,.639,1.767,2.009,2.009,0,0,0,1.555.673,2.2,2.2,0,0,0,1.135-.273,2.851,2.851,0,0,0,.813-.725l.772.6A3.106,3.106,0,0,1,79.152,37.137Zm-.157-6.631a1.687,1.687,0,0,0-1.285.557,2.708,2.708,0,0,0-.643,1.562h3.705v-.1a2.409,2.409,0,0,0-.52-1.494A1.588,1.588,0,0,0,78.995,30.506Zm8.812,4.532a.931.931,0,0,0-.386-.8,3.718,3.718,0,0,0-1.347-.489,6.367,6.367,0,0,1-1.524-.492,2.169,2.169,0,0,1-.834-.684,1.635,1.635,0,0,1-.27-.943,1.919,1.919,0,0,1,.769-1.538,3,3,0,0,1,1.965-.629,3.091,3.091,0,0,1,2.041.649A2.063,2.063,0,0,1,89,31.777H87.731a1.142,1.142,0,0,0-.441-.9,1.652,1.652,0,0,0-1.111-.376,1.729,1.729,0,0,0-1.08.3.947.947,0,0,0-.39.786.767.767,0,0,0,.362.69,4.458,4.458,0,0,0,1.309.444,6.821,6.821,0,0,1,1.535.506,2.239,2.239,0,0,1,.872.708,1.74,1.74,0,0,1,.284,1.008,1.893,1.893,0,0,1-.793,1.589,3.326,3.326,0,0,1-2.058.6,3.725,3.725,0,0,1-1.572-.314,2.557,2.557,0,0,1-1.07-.878,2.117,2.117,0,0,1-.386-1.22h1.265a1.309,1.309,0,0,0,.509,1.008,1.976,1.976,0,0,0,1.254.373,2.039,2.039,0,0,0,1.152-.291A.893.893,0,0,0,87.806,35.038Zm7.219,0a.931.931,0,0,0-.386-.8,3.718,3.718,0,0,0-1.347-.489,6.367,6.367,0,0,1-1.524-.492,2.169,2.169,0,0,1-.834-.684,1.635,1.635,0,0,1-.27-.943,1.919,1.919,0,0,1,.769-1.538,3,3,0,0,1,1.965-.629,3.091,3.091,0,0,1,2.041.649,2.063,2.063,0,0,1,.783,1.661H94.95a1.142,1.142,0,0,0-.441-.9,1.652,1.652,0,0,0-1.111-.376,1.729,1.729,0,0,0-1.08.3.947.947,0,0,0-.39.786.767.767,0,0,0,.362.69,4.458,4.458,0,0,0,1.309.444,6.821,6.821,0,0,1,1.535.506,2.239,2.239,0,0,1,.872.708,1.74,1.74,0,0,1,.284,1.008,1.893,1.893,0,0,1-.793,1.589,3.326,3.326,0,0,1-2.058.6,3.725,3.725,0,0,1-1.572-.314,2.557,2.557,0,0,1-1.07-.878,2.117,2.117,0,0,1-.386-1.22h1.265a1.309,1.309,0,0,0,.509,1.008,1.976,1.976,0,0,0,1.254.373,2.039,2.039,0,0,0,1.152-.291A.893.893,0,0,0,95.025,35.038Zm12.64-1.654a4.4,4.4,0,0,1-.779,2.724,2.49,2.49,0,0,1-2.092,1.029,2.578,2.578,0,0,1-2.167-.991l-.062.854H101.4V26.5h1.265v3.917a2.564,2.564,0,0,1,2.112-.95,2.505,2.505,0,0,1,2.116,1.019,4.53,4.53,0,0,1,.769,2.789ZM106.4,33.24a3.417,3.417,0,0,0-.5-2,1.652,1.652,0,0,0-1.436-.7,1.857,1.857,0,0,0-1.8,1.162v3.2a1.909,1.909,0,0,0,1.812,1.162,1.643,1.643,0,0,0,1.415-.7A3.634,3.634,0,0,0,106.4,33.24Zm5.927,3.9a3.232,3.232,0,0,1-2.447-.988,3.666,3.666,0,0,1-.943-2.642v-.232a4.438,4.438,0,0,1,.42-1.965,3.28,3.28,0,0,1,1.176-1.354,2.956,2.956,0,0,1,1.637-.489,2.77,2.77,0,0,1,2.242.95,4.114,4.114,0,0,1,.8,2.721v.526H110.2a2.629,2.629,0,0,0,.639,1.767,2.009,2.009,0,0,0,1.555.673,2.2,2.2,0,0,0,1.135-.273,2.851,2.851,0,0,0,.813-.725l.772.6A3.106,3.106,0,0,1,112.327,37.137Zm-.157-6.631a1.687,1.687,0,0,0-1.285.557,2.708,2.708,0,0,0-.643,1.562h3.705v-.1a2.409,2.409,0,0,0-.52-1.494A1.588,1.588,0,0,0,112.169,30.506ZM118.048,37h-1.265V26.5h1.265Zm1.688-3.767a4.369,4.369,0,0,1,.427-1.955,3.187,3.187,0,0,1,1.189-1.34,3.238,3.238,0,0,1,1.74-.472,3.119,3.119,0,0,1,2.444,1.046,4.024,4.024,0,0,1,.933,2.782v.089a4.407,4.407,0,0,1-.414,1.938,3.14,3.14,0,0,1-1.183,1.336,3.275,3.275,0,0,1-1.767.479,3.111,3.111,0,0,1-2.437-1.046,4,4,0,0,1-.933-2.769Zm1.271.15a3.164,3.164,0,0,0,.571,1.976,1.934,1.934,0,0,0,3.059-.01,3.46,3.46,0,0,0,.567-2.116,3.159,3.159,0,0,0-.578-1.972,1.836,1.836,0,0,0-1.535-.755,1.816,1.816,0,0,0-1.511.745A3.435,3.435,0,0,0,121.008,33.384Zm13.6,1.873,1.422-5.653h1.265L135.138,37h-1.025l-1.8-5.605L130.565,37H129.54l-2.146-7.4h1.258l1.456,5.537L131.83,29.6h1.019Zm12,1.743a2.657,2.657,0,0,1-.178-.779,2.822,2.822,0,0,1-2.105.916,2.611,2.611,0,0,1-1.794-.619,2,2,0,0,1-.7-1.569,2.091,2.091,0,0,1,.878-1.794,4.142,4.142,0,0,1,2.471-.639h1.23v-.581a1.42,1.42,0,0,0-.4-1.056,1.593,1.593,0,0,0-1.169-.393,1.844,1.844,0,0,0-1.135.342,1.007,1.007,0,0,0-.458.827h-1.271a1.745,1.745,0,0,1,.393-1.07,2.683,2.683,0,0,1,1.066-.817,3.588,3.588,0,0,1,1.48-.3,2.924,2.924,0,0,1,2,.639,2.306,2.306,0,0,1,.752,1.76v3.4a4.162,4.162,0,0,0,.26,1.62V37Zm-2.1-.964a2.223,2.223,0,0,0,1.128-.308,1.861,1.861,0,0,0,.772-.8V33.411h-.991q-2.324,0-2.324,1.36a1.151,1.151,0,0,0,.4.93A1.524,1.524,0,0,0,144.51,36.036Zm6.344-6.433.041.93a2.7,2.7,0,0,1,2.215-1.066q2.345,0,2.365,2.646V37H154.21V32.105a1.7,1.7,0,0,0-.366-1.183,1.466,1.466,0,0,0-1.118-.383,1.825,1.825,0,0,0-1.08.328,2.228,2.228,0,0,0-.725.861V37h-1.265V29.6Zm6.221,3.637a4.333,4.333,0,0,1,.807-2.738,2.745,2.745,0,0,1,4.17-.147V26.5h1.265V37h-1.162l-.062-.793a2.575,2.575,0,0,1-2.112.93,2.526,2.526,0,0,1-2.1-1.053,4.382,4.382,0,0,1-.81-2.748Zm1.265.144a3.281,3.281,0,0,0,.52,1.969,1.68,1.68,0,0,0,1.436.711,1.845,1.845,0,0,0,1.757-1.08v-3.4a1.859,1.859,0,0,0-1.743-1.046,1.687,1.687,0,0,0-1.449.718A3.612,3.612,0,0,0,158.339,33.384Zm16.953,1.873,1.422-5.653h1.265L175.826,37H174.8L173,31.395,171.252,37h-1.025l-2.146-7.4h1.258l1.456,5.537,1.723-5.537h1.019Zm7.041,1.88a3.232,3.232,0,0,1-2.447-.988,3.666,3.666,0,0,1-.943-2.642v-.232a4.438,4.438,0,0,1,.42-1.965,3.279,3.279,0,0,1,1.176-1.354,2.956,2.956,0,0,1,1.637-.489,2.77,2.77,0,0,1,2.242.95,4.114,4.114,0,0,1,.8,2.721v.526h-5.011a2.629,2.629,0,0,0,.639,1.767,2.009,2.009,0,0,0,1.555.673,2.2,2.2,0,0,0,1.135-.273,2.851,2.851,0,0,0,.813-.725l.772.6A3.106,3.106,0,0,1,182.333,37.137Zm-.157-6.631a1.687,1.687,0,0,0-1.285.557,2.708,2.708,0,0,0-.643,1.562h3.705v-.1a2.409,2.409,0,0,0-.52-1.494A1.588,1.588,0,0,0,182.176,30.506Zm4.047-.656-.718-.492a3.291,3.291,0,0,0,.656-1.873V26.5h1.251v.889a3.378,3.378,0,0,1-1.189,2.461Zm4.3,7.15h-1.265V26.5h1.265Zm3.4,0h-1.265V26.5h1.265Zm9.8-1.962a.931.931,0,0,0-.386-.8,3.718,3.718,0,0,0-1.347-.489,6.367,6.367,0,0,1-1.524-.492,2.169,2.169,0,0,1-.834-.684,1.635,1.635,0,0,1-.27-.943,1.919,1.919,0,0,1,.769-1.538,3,3,0,0,1,1.965-.629,3.091,3.091,0,0,1,2.041.649,2.063,2.063,0,0,1,.783,1.661h-1.271a1.142,1.142,0,0,0-.441-.9,1.652,1.652,0,0,0-1.111-.376,1.729,1.729,0,0,0-1.08.3.947.947,0,0,0-.39.786.767.767,0,0,0,.362.69,4.458,4.458,0,0,0,1.309.444,6.821,6.821,0,0,1,1.535.506,2.239,2.239,0,0,1,.872.708,1.74,1.74,0,0,1,.284,1.008,1.893,1.893,0,0,1-.793,1.589,3.326,3.326,0,0,1-2.058.6,3.725,3.725,0,0,1-1.572-.314,2.557,2.557,0,0,1-1.07-.878,2.117,2.117,0,0,1-.386-1.22h1.265a1.309,1.309,0,0,0,.509,1.008,1.976,1.976,0,0,0,1.254.373,2.039,2.039,0,0,0,1.152-.291A.893.893,0,0,0,203.716,35.038Zm5.981,2.1a3.232,3.232,0,0,1-2.447-.988,3.666,3.666,0,0,1-.943-2.642v-.232a4.438,4.438,0,0,1,.42-1.965,3.279,3.279,0,0,1,1.176-1.354,2.956,2.956,0,0,1,1.637-.489,2.77,2.77,0,0,1,2.242.95,4.114,4.114,0,0,1,.8,2.721v.526h-5.011a2.629,2.629,0,0,0,.639,1.767,2.009,2.009,0,0,0,1.555.673,2.2,2.2,0,0,0,1.135-.273,2.851,2.851,0,0,0,.813-.725l.772.6A3.106,3.106,0,0,1,209.7,37.137Zm-.157-6.631a1.687,1.687,0,0,0-1.285.557,2.708,2.708,0,0,0-.643,1.562h3.705v-.1a2.409,2.409,0,0,0-.52-1.494A1.588,1.588,0,0,0,209.541,30.506Zm5.7-.9.041.93a2.7,2.7,0,0,1,2.215-1.066q2.345,0,2.365,2.646V37H218.6V32.105a1.7,1.7,0,0,0-.366-1.183,1.466,1.466,0,0,0-1.118-.383,1.825,1.825,0,0,0-1.08.328,2.228,2.228,0,0,0-.725.861V37h-1.265V29.6Zm6.221,3.637a4.333,4.333,0,0,1,.807-2.738,2.745,2.745,0,0,1,4.17-.147V26.5H227.7V37h-1.162l-.062-.793a2.575,2.575,0,0,1-2.112.93,2.526,2.526,0,0,1-2.1-1.053,4.382,4.382,0,0,1-.81-2.748Zm1.265.144a3.281,3.281,0,0,0,.52,1.969,1.68,1.68,0,0,0,1.436.711,1.845,1.845,0,0,0,1.757-1.08v-3.4A1.859,1.859,0,0,0,224.7,30.54a1.687,1.687,0,0,0-1.449.718A3.612,3.612,0,0,0,222.727,33.384Zm12.824,1.764,1.723-5.544h1.354l-2.974,8.538q-.69,1.846-2.194,1.846l-.239-.021-.472-.089V38.853l.342.027a1.683,1.683,0,0,0,1-.26,1.88,1.88,0,0,0,.591-.95l.28-.752L232.325,29.6h1.381Zm3.869-1.914a4.369,4.369,0,0,1,.427-1.955,3.187,3.187,0,0,1,1.189-1.34,3.238,3.238,0,0,1,1.74-.472,3.119,3.119,0,0,1,2.444,1.046,4.024,4.024,0,0,1,.933,2.782v.089a4.407,4.407,0,0,1-.414,1.938,3.14,3.14,0,0,1-1.183,1.336,3.275,3.275,0,0,1-1.767.479,3.111,3.111,0,0,1-2.437-1.046,4,4,0,0,1-.933-2.769Zm1.271.15a3.164,3.164,0,0,0,.571,1.976,1.934,1.934,0,0,0,3.059-.01,3.46,3.46,0,0,0,.567-2.116,3.159,3.159,0,0,0-.578-1.972,1.836,1.836,0,0,0-1.535-.755,1.816,1.816,0,0,0-1.511.745A3.435,3.435,0,0,0,240.692,33.384Zm11.614,2.885a2.686,2.686,0,0,1-2.167.868,2.3,2.3,0,0,1-1.8-.687,2.974,2.974,0,0,1-.625-2.034V29.6h1.265v4.778q0,1.682,1.367,1.682a1.893,1.893,0,0,0,1.928-1.08V29.6h1.265V37h-1.2ZM263.49,37a2.657,2.657,0,0,1-.178-.779,2.822,2.822,0,0,1-2.105.916,2.611,2.611,0,0,1-1.794-.619,2,2,0,0,1-.7-1.569,2.091,2.091,0,0,1,.878-1.794,4.141,4.141,0,0,1,2.471-.639h1.23v-.581a1.42,1.42,0,0,0-.4-1.056,1.593,1.593,0,0,0-1.169-.393,1.844,1.844,0,0,0-1.135.342,1.007,1.007,0,0,0-.458.827h-1.271a1.745,1.745,0,0,1,.393-1.07,2.683,2.683,0,0,1,1.066-.817,3.588,3.588,0,0,1,1.48-.3,2.924,2.924,0,0,1,2,.639,2.306,2.306,0,0,1,.752,1.76v3.4a4.162,4.162,0,0,0,.26,1.62V37Zm-2.1-.964a2.223,2.223,0,0,0,1.128-.308,1.861,1.861,0,0,0,.772-.8V33.411H262.3q-2.324,0-2.324,1.36a1.151,1.151,0,0,0,.4.93A1.524,1.524,0,0,0,261.391,36.036ZM54.344,59H53.08V48.5h1.265Zm3.4,0H56.477V51.6h1.265Zm-1.367-9.358a.755.755,0,0,1,.188-.52.706.706,0,0,1,.557-.212.717.717,0,0,1,.561.212.747.747,0,0,1,.191.52.722.722,0,0,1-.191.513.73.73,0,0,1-.561.205.718.718,0,0,1-.557-.205A.73.73,0,0,1,56.375,49.642ZM60.961,51.6l.041.93a2.7,2.7,0,0,1,2.215-1.066q2.345,0,2.365,2.646V59H64.318V54.105a1.7,1.7,0,0,0-.366-1.183,1.466,1.466,0,0,0-1.118-.383,1.825,1.825,0,0,0-1.08.328,2.228,2.228,0,0,0-.725.861V59H59.765V51.6Zm8.593,3.972-.793.827V59H67.5V48.5h1.265v6.351l.677-.813,2.3-2.434H73.28L70.4,54.693,73.615,59H72.131Zm10.213-5.763V51.6h1.381v.978H79.767v4.593a1.027,1.027,0,0,0,.185.667.777.777,0,0,0,.629.222,3.062,3.062,0,0,0,.6-.082V59a3.688,3.688,0,0,1-.971.136,1.575,1.575,0,0,1-1.278-.513,2.2,2.2,0,0,1-.431-1.456V52.581H77.156V51.6H78.5V49.813Zm2.386,5.421a4.369,4.369,0,0,1,.427-1.955,3.187,3.187,0,0,1,1.189-1.34,3.238,3.238,0,0,1,1.74-.472,3.119,3.119,0,0,1,2.444,1.046,4.024,4.024,0,0,1,.933,2.782v.089a4.407,4.407,0,0,1-.414,1.938,3.14,3.14,0,0,1-1.183,1.336,3.275,3.275,0,0,1-1.767.479,3.111,3.111,0,0,1-2.437-1.046,4,4,0,0,1-.933-2.769Zm1.271.15A3.164,3.164,0,0,0,84,57.359a1.934,1.934,0,0,0,3.059-.01,3.46,3.46,0,0,0,.567-2.116,3.159,3.159,0,0,0-.578-1.972,1.836,1.836,0,0,0-1.535-.755A1.816,1.816,0,0,0,84,53.251,3.435,3.435,0,0,0,83.424,55.384Zm14.089-2.646a3.79,3.79,0,0,0-.622-.048A1.667,1.667,0,0,0,95.2,53.75V59H93.938V51.6h1.23l.021.854a1.969,1.969,0,0,1,1.764-.991,1.292,1.292,0,0,1,.561.1Zm4.231,6.4a3.232,3.232,0,0,1-2.447-.988,3.666,3.666,0,0,1-.943-2.642v-.232a4.438,4.438,0,0,1,.42-1.965,3.28,3.28,0,0,1,1.176-1.354,2.956,2.956,0,0,1,1.637-.489,2.77,2.77,0,0,1,2.242.95,4.114,4.114,0,0,1,.8,2.721v.526H99.619a2.629,2.629,0,0,0,.639,1.767,2.009,2.009,0,0,0,1.555.673,2.2,2.2,0,0,0,1.135-.273,2.851,2.851,0,0,0,.813-.725l.772.6A3.106,3.106,0,0,1,101.745,59.137Zm-.157-6.631a1.687,1.687,0,0,0-1.285.557,2.708,2.708,0,0,0-.643,1.562h3.705v-.1a2.409,2.409,0,0,0-.52-1.494A1.588,1.588,0,0,0,101.587,52.506Zm8.812,4.532a.931.931,0,0,0-.386-.8,3.718,3.718,0,0,0-1.347-.489,6.367,6.367,0,0,1-1.524-.492,2.169,2.169,0,0,1-.834-.684,1.635,1.635,0,0,1-.27-.943,1.919,1.919,0,0,1,.769-1.538,3,3,0,0,1,1.965-.629,3.091,3.091,0,0,1,2.041.649,2.063,2.063,0,0,1,.783,1.661h-1.271a1.142,1.142,0,0,0-.441-.9,1.652,1.652,0,0,0-1.111-.376,1.729,1.729,0,0,0-1.08.3.947.947,0,0,0-.39.786.767.767,0,0,0,.362.69,4.458,4.458,0,0,0,1.309.444,6.821,6.821,0,0,1,1.535.506,2.239,2.239,0,0,1,.872.708,1.74,1.74,0,0,1,.284,1.008,1.893,1.893,0,0,1-.793,1.589,3.326,3.326,0,0,1-2.058.6,3.725,3.725,0,0,1-1.572-.314,2.557,2.557,0,0,1-1.07-.878,2.117,2.117,0,0,1-.386-1.22h1.265a1.309,1.309,0,0,0,.509,1.008,1.976,1.976,0,0,0,1.254.373,2.039,2.039,0,0,0,1.152-.291A.893.893,0,0,0,110.4,57.038Zm5.981,2.1a3.232,3.232,0,0,1-2.447-.988,3.666,3.666,0,0,1-.943-2.642v-.232a4.438,4.438,0,0,1,.42-1.965,3.28,3.28,0,0,1,1.176-1.354,2.956,2.956,0,0,1,1.637-.489,2.77,2.77,0,0,1,2.242.95,4.114,4.114,0,0,1,.8,2.721v.526h-5.011a2.629,2.629,0,0,0,.639,1.767,2.009,2.009,0,0,0,1.555.673,2.2,2.2,0,0,0,1.135-.273,2.851,2.851,0,0,0,.813-.725l.772.6A3.106,3.106,0,0,1,116.38,59.137Zm-.157-6.631a1.687,1.687,0,0,0-1.285.557,2.708,2.708,0,0,0-.643,1.562H118v-.1a2.409,2.409,0,0,0-.52-1.494A1.588,1.588,0,0,0,116.223,52.506Zm6.221-2.693V51.6h1.381v.978h-1.381v4.593a1.027,1.027,0,0,0,.185.667.777.777,0,0,0,.629.222,3.062,3.062,0,0,0,.6-.082V59a3.688,3.688,0,0,1-.971.136,1.575,1.575,0,0,1-1.278-.513,2.2,2.2,0,0,1-.431-1.456V52.581h-1.347V51.6h1.347V49.813Zm8.743,7.335L132.91,51.6h1.354l-2.974,8.538q-.69,1.846-2.194,1.846l-.239-.021-.472-.089V60.853l.342.027a1.683,1.683,0,0,0,1-.26,1.88,1.88,0,0,0,.591-.95l.28-.752L127.96,51.6h1.381Zm3.869-1.914a4.369,4.369,0,0,1,.427-1.955,3.187,3.187,0,0,1,1.189-1.34,3.238,3.238,0,0,1,1.74-.472,3.119,3.119,0,0,1,2.444,1.046,4.024,4.024,0,0,1,.933,2.782v.089a4.407,4.407,0,0,1-.414,1.938,3.14,3.14,0,0,1-1.183,1.336,3.275,3.275,0,0,1-1.767.479,3.111,3.111,0,0,1-2.437-1.046,4,4,0,0,1-.933-2.769Zm1.271.15a3.164,3.164,0,0,0,.571,1.976,1.934,1.934,0,0,0,3.059-.01,3.46,3.46,0,0,0,.567-2.116,3.159,3.159,0,0,0-.578-1.972,1.836,1.836,0,0,0-1.535-.755,1.816,1.816,0,0,0-1.511.745A3.435,3.435,0,0,0,136.328,55.384Zm11.614,2.885a2.686,2.686,0,0,1-2.167.868,2.3,2.3,0,0,1-1.8-.687,2.974,2.974,0,0,1-.625-2.034V51.6h1.265v4.778q0,1.682,1.367,1.682a1.893,1.893,0,0,0,1.928-1.08V51.6h1.265V59h-1.2Zm6.727-5.53a3.79,3.79,0,0,0-.622-.048,1.667,1.667,0,0,0-1.688,1.06V59h-1.265V51.6h1.23l.021.854a1.969,1.969,0,0,1,1.764-.991,1.292,1.292,0,0,1,.561.1Zm10.876,2.646a4.429,4.429,0,0,1-.772,2.721,2.476,2.476,0,0,1-2.092,1.032,2.713,2.713,0,0,1-2.119-.854v3.562H159.3V51.6h1.155l.062.82a2.605,2.605,0,0,1,2.146-.957,2.522,2.522,0,0,1,2.109,1,4.477,4.477,0,0,1,.776,2.8Zm-1.265-.144a3.268,3.268,0,0,0-.533-1.976,1.718,1.718,0,0,0-1.463-.725,1.859,1.859,0,0,0-1.723,1.019v3.534A1.863,1.863,0,0,0,162.3,58.1a1.71,1.71,0,0,0,1.446-.721A3.567,3.567,0,0,0,164.28,55.24ZM171.717,59a2.657,2.657,0,0,1-.178-.779,2.822,2.822,0,0,1-2.105.916,2.611,2.611,0,0,1-1.794-.619,2,2,0,0,1-.7-1.569,2.091,2.091,0,0,1,.878-1.794,4.142,4.142,0,0,1,2.471-.639h1.23v-.581a1.42,1.42,0,0,0-.4-1.056,1.593,1.593,0,0,0-1.169-.393,1.844,1.844,0,0,0-1.135.342,1.007,1.007,0,0,0-.458.827h-1.271a1.745,1.745,0,0,1,.393-1.07,2.683,2.683,0,0,1,1.066-.817,3.588,3.588,0,0,1,1.48-.3,2.924,2.924,0,0,1,2,.639,2.306,2.306,0,0,1,.752,1.76v3.4a4.162,4.162,0,0,0,.26,1.62V59Zm-2.1-.964a2.223,2.223,0,0,0,1.128-.308,1.861,1.861,0,0,0,.772-.8V55.411h-.991q-2.324,0-2.324,1.36a1.151,1.151,0,0,0,.4.93A1.524,1.524,0,0,0,169.619,58.036Zm9.454-1a.931.931,0,0,0-.386-.8,3.718,3.718,0,0,0-1.347-.489,6.367,6.367,0,0,1-1.524-.492,2.169,2.169,0,0,1-.834-.684,1.635,1.635,0,0,1-.27-.943,1.919,1.919,0,0,1,.769-1.538,3,3,0,0,1,1.965-.629,3.091,3.091,0,0,1,2.041.649,2.063,2.063,0,0,1,.783,1.661H179a1.142,1.142,0,0,0-.441-.9,1.652,1.652,0,0,0-1.111-.376,1.729,1.729,0,0,0-1.08.3.947.947,0,0,0-.39.786.767.767,0,0,0,.362.69,4.458,4.458,0,0,0,1.309.444,6.821,6.821,0,0,1,1.535.506,2.239,2.239,0,0,1,.872.708,1.74,1.74,0,0,1,.284,1.008,1.893,1.893,0,0,1-.793,1.589,3.326,3.326,0,0,1-2.058.6,3.725,3.725,0,0,1-1.572-.314,2.557,2.557,0,0,1-1.07-.878,2.117,2.117,0,0,1-.386-1.22h1.265a1.309,1.309,0,0,0,.509,1.008,1.976,1.976,0,0,0,1.254.373,2.039,2.039,0,0,0,1.152-.291A.893.893,0,0,0,179.073,57.038Zm7.219,0a.931.931,0,0,0-.386-.8,3.718,3.718,0,0,0-1.347-.489,6.367,6.367,0,0,1-1.524-.492,2.169,2.169,0,0,1-.834-.684,1.635,1.635,0,0,1-.27-.943A1.919,1.919,0,0,1,182.7,52.1a3,3,0,0,1,1.965-.629,3.091,3.091,0,0,1,2.041.649,2.063,2.063,0,0,1,.783,1.661h-1.271a1.142,1.142,0,0,0-.441-.9,1.652,1.652,0,0,0-1.111-.376,1.729,1.729,0,0,0-1.08.3.947.947,0,0,0-.39.786.767.767,0,0,0,.362.69,4.458,4.458,0,0,0,1.309.444,6.821,6.821,0,0,1,1.535.506,2.239,2.239,0,0,1,.872.708,1.74,1.74,0,0,1,.284,1.008,1.893,1.893,0,0,1-.793,1.589,3.326,3.326,0,0,1-2.058.6,3.725,3.725,0,0,1-1.572-.314,2.557,2.557,0,0,1-1.07-.878,2.117,2.117,0,0,1-.386-1.22h1.265a1.309,1.309,0,0,0,.509,1.008,1.976,1.976,0,0,0,1.254.373,2.039,2.039,0,0,0,1.152-.291A.893.893,0,0,0,186.292,57.038Zm9.461.219,1.422-5.653h1.265L196.286,59H195.26l-1.8-5.605L191.712,59h-1.025l-2.146-7.4H189.8l1.456,5.537,1.723-5.537H194Zm3.637-2.023a4.369,4.369,0,0,1,.427-1.955,3.187,3.187,0,0,1,1.189-1.34,3.238,3.238,0,0,1,1.74-.472,3.119,3.119,0,0,1,2.444,1.046,4.024,4.024,0,0,1,.933,2.782v.089a4.407,4.407,0,0,1-.414,1.938,3.14,3.14,0,0,1-1.183,1.336,3.275,3.275,0,0,1-1.767.479,3.111,3.111,0,0,1-2.437-1.046,4,4,0,0,1-.933-2.769Zm1.271.15a3.164,3.164,0,0,0,.571,1.976,1.934,1.934,0,0,0,3.059-.01,3.46,3.46,0,0,0,.567-2.116,3.159,3.159,0,0,0-.578-1.972,1.836,1.836,0,0,0-1.535-.755,1.816,1.816,0,0,0-1.511.745A3.435,3.435,0,0,0,200.661,55.384Zm10.623-2.646a3.79,3.79,0,0,0-.622-.048,1.667,1.667,0,0,0-1.688,1.06V59h-1.265V51.6h1.23l.021.854a1.969,1.969,0,0,1,1.764-.991,1.292,1.292,0,0,1,.561.1Zm.854,2.5a4.333,4.333,0,0,1,.807-2.738,2.745,2.745,0,0,1,4.17-.147V48.5h1.265V59h-1.162l-.062-.793a2.575,2.575,0,0,1-2.112.93,2.526,2.526,0,0,1-2.1-1.053,4.382,4.382,0,0,1-.81-2.748Zm1.265.144a3.281,3.281,0,0,0,.52,1.969,1.68,1.68,0,0,0,1.436.711,1.845,1.845,0,0,0,1.757-1.08v-3.4a1.859,1.859,0,0,0-1.743-1.046,1.687,1.687,0,0,0-1.449.718A3.612,3.612,0,0,0,213.4,55.384Zm8.354.8h-1.142l-.089-7.132h1.326Zm-1.278,2.178a.754.754,0,0,1,.188-.521.708.708,0,0,1,.557-.21.719.719,0,0,1,.561.21.746.746,0,0,1,.191.521.721.721,0,0,1-.191.514.733.733,0,0,1-.561.2.677.677,0,0,1-.745-.718Z" transform="translate(918 9226.337)" fill="#12263f"/>
      <path id="Trazado_232454" data-name="Trazado 232454" d="M68.991,9.519a2.877,2.877,0,0,1-.916,1.915,3,3,0,0,1-2.049.674,2.756,2.756,0,0,1-2.221-.994,4,4,0,0,1-.835-2.659V7.7a4.456,4.456,0,0,1,.389-1.917,2.909,2.909,0,0,1,1.1-1.27,3.073,3.073,0,0,1,1.654-.443,2.826,2.826,0,0,1,2,.7,2.912,2.912,0,0,1,.875,1.926H67.954a2.247,2.247,0,0,0-.583-1.358,1.763,1.763,0,0,0-1.254-.42,1.845,1.845,0,0,0-1.55.731,3.356,3.356,0,0,0-.561,2.08v.758a3.45,3.45,0,0,0,.532,2.027,1.718,1.718,0,0,0,1.488.753,1.984,1.984,0,0,0,1.319-.389,2.161,2.161,0,0,0,.61-1.356ZM73.052,7.08a2.978,2.978,0,0,0-.489-.038,1.309,1.309,0,0,0-1.327.833V12h-.994V6.188h.967l.016.671a1.547,1.547,0,0,1,1.386-.779,1.015,1.015,0,0,1,.44.075Zm3.325,5.027a2.539,2.539,0,0,1-1.923-.776,2.881,2.881,0,0,1-.741-2.076V9.073a3.487,3.487,0,0,1,.33-1.544,2.577,2.577,0,0,1,.924-1.063,2.323,2.323,0,0,1,1.286-.384,2.177,2.177,0,0,1,1.762.747,3.232,3.232,0,0,1,.628,2.138v.414H74.706a2.066,2.066,0,0,0,.5,1.388,1.579,1.579,0,0,0,1.222.529,1.731,1.731,0,0,0,.892-.215,2.24,2.24,0,0,0,.639-.569l.607.473A2.44,2.44,0,0,1,76.376,12.107ZM76.253,6.9a1.325,1.325,0,0,0-1.01.438,2.128,2.128,0,0,0-.5,1.227h2.911V8.487a1.893,1.893,0,0,0-.408-1.174A1.248,1.248,0,0,0,76.253,6.9ZM83.38,12a2.087,2.087,0,0,1-.14-.612,2.217,2.217,0,0,1-1.654.72,2.051,2.051,0,0,1-1.41-.486,1.573,1.573,0,0,1-.551-1.233,1.643,1.643,0,0,1,.69-1.41,3.254,3.254,0,0,1,1.942-.5h.967V8.02a1.116,1.116,0,0,0-.312-.83,1.252,1.252,0,0,0-.918-.309,1.449,1.449,0,0,0-.892.269.791.791,0,0,0-.36.65h-1a1.371,1.371,0,0,1,.309-.841,2.108,2.108,0,0,1,.838-.642,2.819,2.819,0,0,1,1.163-.236,2.3,2.3,0,0,1,1.574.5,1.812,1.812,0,0,1,.591,1.383v2.675a3.27,3.27,0,0,0,.2,1.273V12Zm-1.649-.757A1.746,1.746,0,0,0,82.617,11a1.462,1.462,0,0,0,.607-.628V9.18h-.779q-1.826,0-1.826,1.069a.9.9,0,0,0,.312.73A1.2,1.2,0,0,0,81.731,11.243Zm5.393-6.461V6.188h1.085v.768H87.124v3.609a.807.807,0,0,0,.145.524.61.61,0,0,0,.494.175,2.406,2.406,0,0,0,.473-.064V12a2.9,2.9,0,0,1-.763.107,1.237,1.237,0,0,1-1-.4,1.731,1.731,0,0,1-.338-1.144v-3.6H85.072V6.188H86.13V4.781Zm4.657,7.326a2.539,2.539,0,0,1-1.923-.776,2.881,2.881,0,0,1-.741-2.076V9.073a3.487,3.487,0,0,1,.33-1.544,2.577,2.577,0,0,1,.924-1.063,2.323,2.323,0,0,1,1.286-.384,2.177,2.177,0,0,1,1.762.747,3.232,3.232,0,0,1,.628,2.138v.414H90.11a2.066,2.066,0,0,0,.5,1.388,1.579,1.579,0,0,0,1.222.529,1.731,1.731,0,0,0,.892-.215,2.24,2.24,0,0,0,.639-.569l.607.473A2.44,2.44,0,0,1,91.781,12.107ZM91.657,6.9a1.325,1.325,0,0,0-1.01.438,2.128,2.128,0,0,0-.5,1.227h2.911V8.487a1.893,1.893,0,0,0-.408-1.174A1.248,1.248,0,0,0,91.657,6.9Zm9.851,5.1a2.087,2.087,0,0,1-.14-.612,2.217,2.217,0,0,1-1.654.72,2.051,2.051,0,0,1-1.41-.486,1.573,1.573,0,0,1-.551-1.233,1.643,1.643,0,0,1,.69-1.41,3.254,3.254,0,0,1,1.942-.5h.967V8.02a1.116,1.116,0,0,0-.312-.83,1.252,1.252,0,0,0-.918-.309,1.449,1.449,0,0,0-.892.269.791.791,0,0,0-.36.65h-1a1.371,1.371,0,0,1,.309-.841,2.108,2.108,0,0,1,.838-.642,2.819,2.819,0,0,1,1.163-.236,2.3,2.3,0,0,1,1.574.5,1.812,1.812,0,0,1,.591,1.383v2.675a3.27,3.27,0,0,0,.2,1.273V12Zm-1.649-.757a1.746,1.746,0,0,0,.886-.242,1.462,1.462,0,0,0,.607-.628V9.18h-.779q-1.826,0-1.826,1.069a.9.9,0,0,0,.312.73A1.2,1.2,0,0,0,99.859,11.243Zm4.984-5.054.032.73a2.118,2.118,0,0,1,1.74-.838q1.842,0,1.858,2.079V12h-.994V8.154a1.338,1.338,0,0,0-.287-.929,1.152,1.152,0,0,0-.878-.3,1.434,1.434,0,0,0-.849.258,1.751,1.751,0,0,0-.569.677V12H103.9V6.188Zm4.888,2.857a3.4,3.4,0,0,1,.634-2.151,2.156,2.156,0,0,1,3.276-.115V3.75h.994V12h-.913l-.048-.623a2.024,2.024,0,0,1-1.66.73,1.985,1.985,0,0,1-1.646-.827,3.443,3.443,0,0,1-.636-2.159Zm.994.113a2.578,2.578,0,0,0,.408,1.547,1.32,1.32,0,0,0,1.128.559,1.45,1.45,0,0,0,1.38-.849V7.746a1.461,1.461,0,0,0-1.37-.822,1.326,1.326,0,0,0-1.139.564A2.838,2.838,0,0,0,110.724,9.159Zm12.649.795H120.1L119.361,12H118.3l2.986-7.82h.9L125.178,12H124.12Zm-2.965-.843h2.659l-1.332-3.658Zm8,2.186a1.431,1.431,0,0,0,.929-.322,1.134,1.134,0,0,0,.44-.806h.94a1.8,1.8,0,0,1-.344.951,2.264,2.264,0,0,1-.846.72,2.441,2.441,0,0,1-1.12.269,2.394,2.394,0,0,1-1.888-.792,3.155,3.155,0,0,1-.7-2.167V8.981a3.5,3.5,0,0,1,.312-1.509,2.373,2.373,0,0,1,.894-1.026,2.54,2.54,0,0,1,1.378-.365,2.331,2.331,0,0,1,1.625.585,2.092,2.092,0,0,1,.69,1.52h-.94a1.369,1.369,0,0,0-.427-.927A1.328,1.328,0,0,0,128.4,6.9a1.391,1.391,0,0,0-1.174.545,2.56,2.56,0,0,0-.416,1.576v.188a2.509,2.509,0,0,0,.414,1.547A1.4,1.4,0,0,0,128.406,11.3Zm5.758,0a1.431,1.431,0,0,0,.929-.322,1.134,1.134,0,0,0,.44-.806h.94a1.8,1.8,0,0,1-.344.951,2.264,2.264,0,0,1-.846.72,2.441,2.441,0,0,1-1.12.269,2.394,2.394,0,0,1-1.888-.792,3.155,3.155,0,0,1-.7-2.167V8.981a3.5,3.5,0,0,1,.312-1.509,2.373,2.373,0,0,1,.894-1.026,2.54,2.54,0,0,1,1.378-.365,2.331,2.331,0,0,1,1.625.585,2.092,2.092,0,0,1,.69,1.52h-.94a1.369,1.369,0,0,0-.427-.927,1.328,1.328,0,0,0-.948-.363,1.391,1.391,0,0,0-1.174.545,2.56,2.56,0,0,0-.416,1.576v.188a2.509,2.509,0,0,0,.414,1.547A1.4,1.4,0,0,0,134.164,11.3Zm3.164-2.256a3.433,3.433,0,0,1,.336-1.536,2.5,2.5,0,0,1,.935-1.053,2.544,2.544,0,0,1,1.367-.371,2.451,2.451,0,0,1,1.92.822,3.162,3.162,0,0,1,.733,2.186v.07a3.463,3.463,0,0,1-.325,1.523,2.467,2.467,0,0,1-.929,1.05,2.573,2.573,0,0,1-1.388.376,2.445,2.445,0,0,1-1.915-.822,3.146,3.146,0,0,1-.733-2.175Zm1,.118a2.486,2.486,0,0,0,.448,1.552,1.52,1.52,0,0,0,2.4-.008,2.719,2.719,0,0,0,.446-1.662,2.482,2.482,0,0,0-.454-1.55,1.443,1.443,0,0,0-1.206-.594,1.427,1.427,0,0,0-1.187.585A2.7,2.7,0,0,0,138.326,9.159Zm9.125,2.267a2.111,2.111,0,0,1-1.7.682,1.807,1.807,0,0,1-1.415-.54,2.337,2.337,0,0,1-.491-1.6V6.188h.994V9.943q0,1.321,1.074,1.321a1.487,1.487,0,0,0,1.515-.849V6.188h.994V12h-.945Zm3.416-5.237.032.73a2.118,2.118,0,0,1,1.74-.838q1.842,0,1.858,2.079V12h-.994V8.154a1.338,1.338,0,0,0-.287-.929,1.152,1.152,0,0,0-.878-.3,1.434,1.434,0,0,0-.849.258,1.751,1.751,0,0,0-.569.677V12h-.994V6.188Zm6.478-1.407V6.188h1.085v.768h-1.085v3.609a.807.807,0,0,0,.145.524.61.61,0,0,0,.494.175,2.406,2.406,0,0,0,.473-.064V12a2.9,2.9,0,0,1-.763.107,1.237,1.237,0,0,1-1-.4,1.731,1.731,0,0,1-.338-1.144v-3.6h-1.058V6.188h1.058V4.781Zm3.357,5h-.9l-.07-5.6h1.042Zm-1,1.712a.592.592,0,0,1,.148-.409.557.557,0,0,1,.438-.165.565.565,0,0,1,.44.165.586.586,0,0,1,.15.409.566.566,0,0,1-.15.4.576.576,0,0,1-.44.16.532.532,0,0,1-.585-.564ZM34.025,33.954H30.749L30.013,36H28.949l2.986-7.82h.9L35.83,36H34.772ZM31.06,33.11h2.659l-1.332-3.658ZM37.806,36h-.994V27.75h.994Zm4.4-4.92a2.978,2.978,0,0,0-.489-.038,1.309,1.309,0,0,0-1.327.833V36H39.4V30.188h.967l.016.671a1.547,1.547,0,0,1,1.386-.779,1.015,1.015,0,0,1,.44.075Zm3.325,5.027a2.539,2.539,0,0,1-1.923-.776,2.881,2.881,0,0,1-.741-2.076v-.183a3.487,3.487,0,0,1,.33-1.544,2.577,2.577,0,0,1,.924-1.063,2.323,2.323,0,0,1,1.286-.384,2.177,2.177,0,0,1,1.762.747,3.232,3.232,0,0,1,.628,2.138v.414H43.86a2.066,2.066,0,0,0,.5,1.388,1.579,1.579,0,0,0,1.222.529,1.731,1.731,0,0,0,.892-.215,2.24,2.24,0,0,0,.639-.569l.607.473A2.44,2.44,0,0,1,45.53,36.107Zm-.124-5.21a1.325,1.325,0,0,0-1.01.438,2.128,2.128,0,0,0-.5,1.227H46.8v-.075a1.893,1.893,0,0,0-.408-1.174A1.248,1.248,0,0,0,45.406,30.9ZM52.534,36a2.087,2.087,0,0,1-.14-.612,2.217,2.217,0,0,1-1.654.72,2.051,2.051,0,0,1-1.41-.486,1.573,1.573,0,0,1-.551-1.233,1.643,1.643,0,0,1,.69-1.41,3.254,3.254,0,0,1,1.942-.5h.967V32.02a1.116,1.116,0,0,0-.312-.83,1.252,1.252,0,0,0-.918-.309,1.449,1.449,0,0,0-.892.269.791.791,0,0,0-.36.65h-1a1.371,1.371,0,0,1,.309-.841,2.108,2.108,0,0,1,.838-.642,2.819,2.819,0,0,1,1.163-.236,2.3,2.3,0,0,1,1.574.5,1.812,1.812,0,0,1,.591,1.383v2.675a3.27,3.27,0,0,0,.2,1.273V36Zm-1.649-.757A1.746,1.746,0,0,0,51.771,35a1.462,1.462,0,0,0,.607-.628V33.18H51.6q-1.826,0-1.826,1.069a.9.9,0,0,0,.312.73A1.2,1.2,0,0,0,50.885,35.243Zm3.8-2.2a3.4,3.4,0,0,1,.634-2.151,2.156,2.156,0,0,1,3.276-.115V27.75h.994V36h-.913l-.048-.623a2.024,2.024,0,0,1-1.66.73,1.985,1.985,0,0,1-1.646-.827,3.443,3.443,0,0,1-.636-2.159Zm.994.113a2.578,2.578,0,0,0,.408,1.547,1.32,1.32,0,0,0,1.128.559,1.45,1.45,0,0,0,1.38-.849V31.746a1.461,1.461,0,0,0-1.37-.822,1.326,1.326,0,0,0-1.139.564A2.838,2.838,0,0,0,55.681,33.159Zm7.353,1.386,1.354-4.356h1.063L63.115,36.9q-.542,1.45-1.724,1.45l-.188-.016-.371-.07v-.806l.269.021a1.322,1.322,0,0,0,.787-.2,1.477,1.477,0,0,0,.465-.747l.22-.591L60.5,30.188h1.085Zm7.02-3.652a2.113,2.113,0,0,1,1.719-.811q1.842,0,1.858,2.079V36h-.994V32.154a1.338,1.338,0,0,0-.287-.929,1.152,1.152,0,0,0-.878-.3,1.434,1.434,0,0,0-.849.258,1.751,1.751,0,0,0-.569.677V36h-.994V27.75h.994ZM78.707,36a2.087,2.087,0,0,1-.14-.612,2.217,2.217,0,0,1-1.654.72,2.051,2.051,0,0,1-1.41-.486,1.573,1.573,0,0,1-.551-1.233,1.643,1.643,0,0,1,.69-1.41,3.254,3.254,0,0,1,1.942-.5h.967V32.02a1.116,1.116,0,0,0-.312-.83,1.252,1.252,0,0,0-.918-.309,1.449,1.449,0,0,0-.892.269.791.791,0,0,0-.36.65h-1a1.371,1.371,0,0,1,.309-.841,2.108,2.108,0,0,1,.838-.642,2.819,2.819,0,0,1,1.163-.236,2.3,2.3,0,0,1,1.574.5,1.812,1.812,0,0,1,.591,1.383v2.675a3.27,3.27,0,0,0,.2,1.273V36Zm-1.649-.757A1.746,1.746,0,0,0,77.945,35a1.462,1.462,0,0,0,.607-.628V33.18h-.779q-1.826,0-1.826,1.069a.9.9,0,0,0,.312.73A1.2,1.2,0,0,0,77.058,35.243Zm5.881-.591,1.439-4.463h1.015L83.31,36h-.757l-2.105-5.812h1.015Zm5.822,1.456a2.539,2.539,0,0,1-1.923-.776,2.881,2.881,0,0,1-.741-2.076v-.183a3.487,3.487,0,0,1,.33-1.544,2.577,2.577,0,0,1,.924-1.063,2.323,2.323,0,0,1,1.286-.384,2.177,2.177,0,0,1,1.762.747,3.232,3.232,0,0,1,.628,2.138v.414H87.092a2.066,2.066,0,0,0,.5,1.388,1.579,1.579,0,0,0,1.222.529,1.731,1.731,0,0,0,.892-.215,2.24,2.24,0,0,0,.639-.569l.607.473A2.44,2.44,0,0,1,88.762,36.107Zm-.124-5.21a1.325,1.325,0,0,0-1.01.438,2.128,2.128,0,0,0-.5,1.227h2.911v-.075a1.893,1.893,0,0,0-.408-1.174A1.248,1.248,0,0,0,88.638,30.9ZM98.489,36a2.087,2.087,0,0,1-.14-.612,2.217,2.217,0,0,1-1.654.72,2.051,2.051,0,0,1-1.41-.486,1.573,1.573,0,0,1-.551-1.233,1.643,1.643,0,0,1,.69-1.41,3.254,3.254,0,0,1,1.942-.5h.967V32.02a1.116,1.116,0,0,0-.312-.83,1.252,1.252,0,0,0-.918-.309,1.449,1.449,0,0,0-.892.269.791.791,0,0,0-.36.65h-1a1.371,1.371,0,0,1,.309-.841A2.108,2.108,0,0,1,96,30.317a2.819,2.819,0,0,1,1.163-.236,2.3,2.3,0,0,1,1.574.5,1.812,1.812,0,0,1,.591,1.383v2.675a3.27,3.27,0,0,0,.2,1.273V36Zm-1.649-.757A1.746,1.746,0,0,0,97.726,35a1.462,1.462,0,0,0,.607-.628V33.18h-.779q-1.826,0-1.826,1.069a.9.9,0,0,0,.312.73A1.2,1.2,0,0,0,96.84,35.243Zm4.984-5.054.032.73a2.118,2.118,0,0,1,1.74-.838q1.842,0,1.858,2.079V36h-.994V32.154a1.338,1.338,0,0,0-.287-.929,1.152,1.152,0,0,0-.878-.3,1.434,1.434,0,0,0-.849.258,1.751,1.751,0,0,0-.569.677V36h-.994V30.188Zm4.888,2.857a3.4,3.4,0,0,1,.634-2.151,2.156,2.156,0,0,1,3.276-.115V27.75h.994V36H110.7l-.048-.623a2.024,2.024,0,0,1-1.66.73,1.985,1.985,0,0,1-1.646-.827,3.443,3.443,0,0,1-.636-2.159Zm.994.113a2.578,2.578,0,0,0,.408,1.547,1.32,1.32,0,0,0,1.128.559,1.45,1.45,0,0,0,1.38-.849V31.746a1.461,1.461,0,0,0-1.37-.822,1.326,1.326,0,0,0-1.139.564A2.838,2.838,0,0,0,107.706,33.159ZM119.469,36a2.087,2.087,0,0,1-.14-.612,2.217,2.217,0,0,1-1.654.72,2.051,2.051,0,0,1-1.41-.486,1.573,1.573,0,0,1-.551-1.233,1.643,1.643,0,0,1,.69-1.41,3.254,3.254,0,0,1,1.942-.5h.967V32.02a1.116,1.116,0,0,0-.312-.83,1.252,1.252,0,0,0-.918-.309,1.449,1.449,0,0,0-.892.269.791.791,0,0,0-.36.65h-1a1.371,1.371,0,0,1,.309-.841,2.108,2.108,0,0,1,.838-.642,2.819,2.819,0,0,1,1.163-.236,2.3,2.3,0,0,1,1.574.5,1.812,1.812,0,0,1,.591,1.383v2.675a3.27,3.27,0,0,0,.2,1.273V36Zm-1.649-.757a1.746,1.746,0,0,0,.886-.242,1.462,1.462,0,0,0,.607-.628V33.18h-.779q-1.826,0-1.826,1.069a.9.9,0,0,0,.312.73A1.2,1.2,0,0,0,117.82,35.243Zm6.375.054a1.431,1.431,0,0,0,.929-.322,1.134,1.134,0,0,0,.44-.806h.94a1.8,1.8,0,0,1-.344.951,2.264,2.264,0,0,1-.846.72,2.441,2.441,0,0,1-1.12.269,2.394,2.394,0,0,1-1.888-.792,3.155,3.155,0,0,1-.7-2.167v-.167a3.5,3.5,0,0,1,.312-1.509,2.373,2.373,0,0,1,.894-1.026,2.54,2.54,0,0,1,1.378-.365,2.331,2.331,0,0,1,1.625.585,2.092,2.092,0,0,1,.69,1.52h-.94a1.369,1.369,0,0,0-.427-.927,1.328,1.328,0,0,0-.948-.363,1.391,1.391,0,0,0-1.174.545,2.56,2.56,0,0,0-.416,1.576v.188a2.509,2.509,0,0,0,.414,1.547A1.4,1.4,0,0,0,124.2,35.3Zm5.758,0a1.431,1.431,0,0,0,.929-.322,1.134,1.134,0,0,0,.44-.806h.94a1.8,1.8,0,0,1-.344.951,2.264,2.264,0,0,1-.846.72,2.441,2.441,0,0,1-1.12.269,2.394,2.394,0,0,1-1.888-.792,3.155,3.155,0,0,1-.7-2.167v-.167a3.5,3.5,0,0,1,.312-1.509,2.373,2.373,0,0,1,.894-1.026,2.54,2.54,0,0,1,1.378-.365,2.331,2.331,0,0,1,1.625.585,2.092,2.092,0,0,1,.69,1.52h-.94a1.369,1.369,0,0,0-.427-.927,1.328,1.328,0,0,0-.948-.363,1.391,1.391,0,0,0-1.174.545,2.56,2.56,0,0,0-.416,1.576v.188a2.509,2.509,0,0,0,.414,1.547A1.4,1.4,0,0,0,129.953,35.3Zm3.164-2.256a3.433,3.433,0,0,1,.336-1.536,2.5,2.5,0,0,1,.935-1.053,2.544,2.544,0,0,1,1.367-.371,2.451,2.451,0,0,1,1.92.822,3.162,3.162,0,0,1,.733,2.186v.07a3.463,3.463,0,0,1-.325,1.523,2.467,2.467,0,0,1-.929,1.05,2.573,2.573,0,0,1-1.388.376,2.445,2.445,0,0,1-1.915-.822,3.146,3.146,0,0,1-.733-2.175Zm1,.118a2.486,2.486,0,0,0,.448,1.552,1.52,1.52,0,0,0,2.4-.008,2.719,2.719,0,0,0,.446-1.662,2.482,2.482,0,0,0-.454-1.55,1.443,1.443,0,0,0-1.206-.594,1.427,1.427,0,0,0-1.187.585A2.7,2.7,0,0,0,134.115,33.159Zm9.125,2.267a2.111,2.111,0,0,1-1.7.682,1.807,1.807,0,0,1-1.415-.54,2.337,2.337,0,0,1-.491-1.6V30.188h.994v3.754q0,1.321,1.074,1.321a1.487,1.487,0,0,0,1.515-.849V30.188h.994V36h-.945Zm3.416-5.237.032.73a2.118,2.118,0,0,1,1.74-.838q1.842,0,1.858,2.079V36h-.994V32.154a1.338,1.338,0,0,0-.287-.929,1.152,1.152,0,0,0-.878-.3,1.434,1.434,0,0,0-.849.258,1.751,1.751,0,0,0-.569.677V36h-.994V30.188Zm6.478-1.407v1.407h1.085v.768h-1.085v3.609a.807.807,0,0,0,.145.524.61.61,0,0,0,.494.175,2.406,2.406,0,0,0,.473-.064V36a2.9,2.9,0,0,1-.763.107,1.237,1.237,0,0,1-1-.4,1.731,1.731,0,0,1-.338-1.144v-3.6h-1.058v-.768h1.058V28.781Zm6.134,5.008a3.205,3.205,0,0,1,.145-1.008,2.586,2.586,0,0,1,.548-.821l.7-.724a1.622,1.622,0,0,0,.451-1.093,1.247,1.247,0,0,0-.3-.882,1.114,1.114,0,0,0-.859-.319,1.293,1.293,0,0,0-.881.29.981.981,0,0,0-.333.779h-.994a1.809,1.809,0,0,1,.62-1.4,2.32,2.32,0,0,1,1.587-.534,2.19,2.19,0,0,1,1.582.544,1.973,1.973,0,0,1,.567,1.493,2.7,2.7,0,0,1-.87,1.85l-.585.579a1.8,1.8,0,0,0-.392,1.25Zm-.043,1.706a.592.592,0,0,1,.148-.409.557.557,0,0,1,.438-.165.565.565,0,0,1,.44.165.586.586,0,0,1,.15.409.566.566,0,0,1-.15.4.576.576,0,0,1-.44.16.532.532,0,0,1-.585-.564Zm7.987-.338h3.706V36h-4.743V28.18h1.037Zm4.463-2.116a3.433,3.433,0,0,1,.336-1.536,2.5,2.5,0,0,1,.935-1.053,2.544,2.544,0,0,1,1.367-.371,2.451,2.451,0,0,1,1.92.822,3.162,3.162,0,0,1,.733,2.186v.07a3.463,3.463,0,0,1-.325,1.523,2.467,2.467,0,0,1-.929,1.05,2.573,2.573,0,0,1-1.388.376,2.445,2.445,0,0,1-1.915-.822,3.146,3.146,0,0,1-.733-2.175Zm1,.118a2.486,2.486,0,0,0,.448,1.552,1.52,1.52,0,0,0,2.4-.008,2.719,2.719,0,0,0,.446-1.662,2.482,2.482,0,0,0-.454-1.55,1.443,1.443,0,0,0-1.206-.594,1.427,1.427,0,0,0-1.187.585A2.7,2.7,0,0,0,172.675,33.159Zm5.3-.113a3.416,3.416,0,0,1,.628-2.162,2.166,2.166,0,0,1,3.325-.051l.048-.645h.908V35.86a2.364,2.364,0,0,1-.669,1.778,2.468,2.468,0,0,1-1.8.65,2.989,2.989,0,0,1-1.23-.269,2.117,2.117,0,0,1-.918-.736l.516-.6a1.943,1.943,0,0,0,1.563.79,1.522,1.522,0,0,0,1.131-.408,1.56,1.56,0,0,0,.406-1.149v-.5a2.042,2.042,0,0,1-1.627.688,1.985,1.985,0,0,1-1.652-.822A3.591,3.591,0,0,1,177.976,33.046Zm1,.113a2.606,2.606,0,0,0,.4,1.544,1.309,1.309,0,0,0,1.128.561,1.456,1.456,0,0,0,1.38-.854V31.757a1.473,1.473,0,0,0-1.37-.833,1.321,1.321,0,0,0-1.133.564A2.838,2.838,0,0,0,178.975,33.159ZM185.463,36h-.994V30.188h.994Zm-1.074-7.353a.593.593,0,0,1,.148-.408.555.555,0,0,1,.438-.167.563.563,0,0,1,.44.167.587.587,0,0,1,.15.408.568.568,0,0,1-.15.4.573.573,0,0,1-.44.161.565.565,0,0,1-.438-.161A.574.574,0,0,1,184.389,28.647Zm3.6,1.542.032.73a2.118,2.118,0,0,1,1.74-.838q1.842,0,1.858,2.079V36h-.994V32.154a1.338,1.338,0,0,0-.287-.929,1.152,1.152,0,0,0-.878-.3,1.434,1.434,0,0,0-.849.258,1.751,1.751,0,0,0-.569.677V36h-.994V30.188Zm6.241,3.6h-.9l-.07-5.6h1.042Zm-1,1.712a.592.592,0,0,1,.148-.409.557.557,0,0,1,.438-.165.565.565,0,0,1,.44.165.586.586,0,0,1,.15.409.566.566,0,0,1-.15.4.576.576,0,0,1-.44.16.532.532,0,0,1-.585-.564Z" transform="translate(950.5 9447.163)" fill="#afafaf"/>
      <path id="Trazado_232453" data-name="Trazado 232453" d="M63.976,10.974H61.638V15H60.319V5.047h3.295a3.9,3.9,0,0,1,2.587.766,2.755,2.755,0,0,1,.906,2.229,2.68,2.68,0,0,1-.5,1.62,3,3,0,0,1-1.4,1.032l2.338,4.225V15H66.136ZM61.638,9.9h2.017a2.275,2.275,0,0,0,1.555-.507,1.714,1.714,0,0,0,.578-1.356,1.8,1.8,0,0,0-.55-1.418,2.33,2.33,0,0,0-1.589-.5h-2.01Zm10.179,5.236a3.232,3.232,0,0,1-2.447-.988,3.666,3.666,0,0,1-.943-2.642v-.232a4.438,4.438,0,0,1,.42-1.965,3.28,3.28,0,0,1,1.176-1.354,2.956,2.956,0,0,1,1.637-.489,2.77,2.77,0,0,1,2.242.95,4.114,4.114,0,0,1,.8,2.721v.526H69.691a2.629,2.629,0,0,0,.639,1.767,2.009,2.009,0,0,0,1.555.673,2.2,2.2,0,0,0,1.135-.273,2.851,2.851,0,0,0,.813-.725l.772.6A3.106,3.106,0,0,1,71.817,15.137ZM71.66,8.506a1.687,1.687,0,0,0-1.285.557,2.708,2.708,0,0,0-.643,1.562h3.705v-.1a2.409,2.409,0,0,0-.52-1.494A1.588,1.588,0,0,0,71.66,8.506Zm8.812,4.532a.931.931,0,0,0-.386-.8,3.718,3.718,0,0,0-1.347-.489,6.367,6.367,0,0,1-1.524-.492,2.169,2.169,0,0,1-.834-.684,1.635,1.635,0,0,1-.27-.943A1.919,1.919,0,0,1,76.879,8.1a3,3,0,0,1,1.965-.629,3.091,3.091,0,0,1,2.041.649,2.063,2.063,0,0,1,.783,1.661H80.4a1.142,1.142,0,0,0-.441-.9,1.652,1.652,0,0,0-1.111-.376,1.729,1.729,0,0,0-1.08.3.947.947,0,0,0-.39.786.767.767,0,0,0,.362.69,4.458,4.458,0,0,0,1.309.444,6.821,6.821,0,0,1,1.535.506,2.239,2.239,0,0,1,.872.708,1.74,1.74,0,0,1,.284,1.008,1.893,1.893,0,0,1-.793,1.589,3.326,3.326,0,0,1-2.058.6,3.725,3.725,0,0,1-1.572-.314,2.557,2.557,0,0,1-1.07-.878,2.117,2.117,0,0,1-.386-1.22h1.265a1.309,1.309,0,0,0,.509,1.008,1.976,1.976,0,0,0,1.254.373,2.039,2.039,0,0,0,1.152-.291A.893.893,0,0,0,80.471,13.038Zm5.981,2.1a3.232,3.232,0,0,1-2.447-.988,3.666,3.666,0,0,1-.943-2.642v-.232a4.438,4.438,0,0,1,.42-1.965,3.28,3.28,0,0,1,1.176-1.354A2.956,2.956,0,0,1,86.3,7.467a2.77,2.77,0,0,1,2.242.95,4.114,4.114,0,0,1,.8,2.721v.526H84.327a2.629,2.629,0,0,0,.639,1.767,2.009,2.009,0,0,0,1.555.673,2.2,2.2,0,0,0,1.135-.273,2.851,2.851,0,0,0,.813-.725l.772.6A3.106,3.106,0,0,1,86.453,15.137ZM86.3,8.506a1.687,1.687,0,0,0-1.285.557,2.708,2.708,0,0,0-.643,1.562h3.705v-.1a2.409,2.409,0,0,0-.52-1.494A1.588,1.588,0,0,0,86.3,8.506Zm6.221-2.693V7.6H93.9v.978H92.516v4.593a1.027,1.027,0,0,0,.185.667.777.777,0,0,0,.629.222,3.062,3.062,0,0,0,.6-.082V15a3.688,3.688,0,0,1-.971.136,1.575,1.575,0,0,1-1.278-.513,2.2,2.2,0,0,1-.431-1.456V8.581H89.9V7.6h1.347V5.813ZM100.35,11.1V15H99.038V5.047h3.671a3.688,3.688,0,0,1,2.56.834,2.827,2.827,0,0,1,.926,2.208,2.79,2.79,0,0,1-.906,2.232,3.853,3.853,0,0,1-2.594.783Zm0-1.073h2.358a2.358,2.358,0,0,0,1.613-.5,1.815,1.815,0,0,0,.561-1.435,1.876,1.876,0,0,0-.561-1.424,2.209,2.209,0,0,0-1.538-.555H100.35ZM112.163,15a2.657,2.657,0,0,1-.178-.779,2.822,2.822,0,0,1-2.105.916,2.611,2.611,0,0,1-1.794-.619,2,2,0,0,1-.7-1.569,2.091,2.091,0,0,1,.878-1.794,4.141,4.141,0,0,1,2.471-.639h1.23V9.935a1.42,1.42,0,0,0-.4-1.056,1.593,1.593,0,0,0-1.169-.393,1.844,1.844,0,0,0-1.135.342,1.007,1.007,0,0,0-.458.827h-1.271a1.745,1.745,0,0,1,.393-1.07,2.683,2.683,0,0,1,1.066-.817,3.588,3.588,0,0,1,1.48-.3,2.924,2.924,0,0,1,2,.639,2.306,2.306,0,0,1,.752,1.76v3.4a4.162,4.162,0,0,0,.26,1.62V15Zm-2.1-.964a2.223,2.223,0,0,0,1.128-.308,1.861,1.861,0,0,0,.772-.8V11.411h-.991q-2.324,0-2.324,1.36a1.151,1.151,0,0,0,.4.93A1.524,1.524,0,0,0,110.064,14.036Zm9.454-1a.931.931,0,0,0-.386-.8,3.718,3.718,0,0,0-1.347-.489,6.367,6.367,0,0,1-1.524-.492,2.169,2.169,0,0,1-.834-.684,1.635,1.635,0,0,1-.27-.943,1.919,1.919,0,0,1,.769-1.538,3,3,0,0,1,1.965-.629,3.091,3.091,0,0,1,2.041.649,2.063,2.063,0,0,1,.783,1.661h-1.271a1.142,1.142,0,0,0-.441-.9,1.652,1.652,0,0,0-1.111-.376,1.729,1.729,0,0,0-1.08.3.947.947,0,0,0-.39.786.767.767,0,0,0,.362.69,4.458,4.458,0,0,0,1.309.444,6.821,6.821,0,0,1,1.535.506,2.239,2.239,0,0,1,.872.708,1.74,1.74,0,0,1,.284,1.008,1.893,1.893,0,0,1-.793,1.589,3.326,3.326,0,0,1-2.058.6,3.725,3.725,0,0,1-1.572-.314,2.557,2.557,0,0,1-1.07-.878,2.117,2.117,0,0,1-.386-1.22h1.265a1.309,1.309,0,0,0,.509,1.008,1.976,1.976,0,0,0,1.254.373,2.039,2.039,0,0,0,1.152-.291A.893.893,0,0,0,119.518,13.038Zm7.219,0a.931.931,0,0,0-.386-.8A3.718,3.718,0,0,0,125,11.753a6.367,6.367,0,0,1-1.524-.492,2.169,2.169,0,0,1-.834-.684,1.635,1.635,0,0,1-.27-.943,1.919,1.919,0,0,1,.769-1.538,3,3,0,0,1,1.965-.629,3.091,3.091,0,0,1,2.041.649,2.063,2.063,0,0,1,.783,1.661h-1.271a1.142,1.142,0,0,0-.441-.9,1.652,1.652,0,0,0-1.111-.376,1.729,1.729,0,0,0-1.08.3.947.947,0,0,0-.39.786.767.767,0,0,0,.362.69,4.458,4.458,0,0,0,1.309.444,6.821,6.821,0,0,1,1.535.506,2.239,2.239,0,0,1,.872.708A1.74,1.74,0,0,1,128,12.949a1.893,1.893,0,0,1-.793,1.589,3.326,3.326,0,0,1-2.058.6,3.725,3.725,0,0,1-1.572-.314,2.557,2.557,0,0,1-1.07-.878,2.117,2.117,0,0,1-.386-1.22h1.265a1.309,1.309,0,0,0,.509,1.008,1.976,1.976,0,0,0,1.254.373,2.039,2.039,0,0,0,1.152-.291A.893.893,0,0,0,126.737,13.038Zm9.461.219L137.62,7.6h1.265L136.731,15h-1.025l-1.8-5.605L132.158,15h-1.025l-2.146-7.4h1.258l1.456,5.537L133.422,7.6h1.019Zm3.637-2.023a4.369,4.369,0,0,1,.427-1.955,3.187,3.187,0,0,1,1.189-1.34,3.238,3.238,0,0,1,1.74-.472,3.119,3.119,0,0,1,2.444,1.046,4.024,4.024,0,0,1,.933,2.782v.089a4.407,4.407,0,0,1-.414,1.938,3.14,3.14,0,0,1-1.183,1.336,3.275,3.275,0,0,1-1.767.479,3.111,3.111,0,0,1-2.437-1.046,4,4,0,0,1-.933-2.769Zm1.271.15a3.164,3.164,0,0,0,.571,1.976,1.934,1.934,0,0,0,3.059-.01,3.46,3.46,0,0,0,.567-2.116,3.159,3.159,0,0,0-.578-1.972,1.836,1.836,0,0,0-1.535-.755,1.816,1.816,0,0,0-1.511.745A3.435,3.435,0,0,0,141.106,11.384Zm10.623-2.646a3.79,3.79,0,0,0-.622-.048,1.667,1.667,0,0,0-1.688,1.06V15h-1.265V7.6h1.23l.021.854a1.969,1.969,0,0,1,1.764-.991,1.292,1.292,0,0,1,.561.1Zm.854,2.5A4.333,4.333,0,0,1,153.39,8.5a2.745,2.745,0,0,1,4.17-.147V4.5h1.265V15h-1.162l-.062-.793a2.575,2.575,0,0,1-2.112.93,2.526,2.526,0,0,1-2.1-1.053,4.382,4.382,0,0,1-.81-2.748Zm1.265.144a3.281,3.281,0,0,0,.52,1.969,1.68,1.68,0,0,0,1.436.711,1.845,1.845,0,0,0,1.757-1.08v-3.4a1.859,1.859,0,0,0-1.743-1.046,1.687,1.687,0,0,0-1.449.718A3.612,3.612,0,0,0,153.848,11.384Z" transform="translate(950.5 9382.663)" fill="#fff"/>
      <line id="Línea_2066" data-name="Línea 2066" x2="244" transform="translate(934 9431.163)" fill="none" stroke="#12263f" stroke-width="1" opacity="0.59"/>
    </g>
  </g>
</svg>
