<svg xmlns="http://www.w3.org/2000/svg" width="377.024" height="365.5" viewBox="0 0 377.024 365.5">
  <g id="Grupo_117827" data-name="Grupo 117827" transform="translate(-307.976 -10992.5)">
    <path id="Trazado_228133" data-name="Trazado 228133" d="M386.349,146.088a7.1,7.1,0,0,0-3.861-1.336c-1.987-.092-3.316-.807-3.949-2.125-.642-1.337-.371-2.836.805-4.454l16.622-22.839a71.105,71.105,0,1,0-111.314.044l16.587,22.8c.509.7.941,1.028,1.285.982.485-.065.827-.971.938-1.269a9.967,9.967,0,0,1,3.455-4.572c4.7-3.423,11.6-2.078,15.4,3.024,3.665,5.145,2.825,12.115-1.872,15.538a9.965,9.965,0,0,1-5.41,1.889c-.318.015-1.285.061-1.5.5-.15.313.033.826.542,1.523l26.213,36.172,26.239-36.153c1.175-1.618,2.516-2.339,3.986-2.142,1.449.195,2.54,1.238,3.243,3.1a7.107,7.107,0,0,0,2.463,3.258c3.436,2.5,8.537,1.424,11.352-2.365,2.76-3.885,2.21-9.077-1.226-11.573" transform="translate(156.196 10992.5)" fill="#4dd0e1" opacity="0.25"/>
    <path id="Trazado_228135" data-name="Trazado 228135" d="M495.683,333.6a7.1,7.1,0,0,0,.077-4.084c-.526-1.919-.256-3.4.8-4.413,1.073-1.024,2.582-1.23,4.485-.611L527.9,333.24a71.106,71.106,0,1,0-34.439-105.852l-16.554,22.82c-.507.7-.688,1.213-.537,1.525.212.442,1.18.486,1.5.5a9.967,9.967,0,0,1,5.416,1.873c4.707,3.409,5.56,10.388,1.883,15.579-3.76,5.076-10.649,6.43-15.356,3.021a9.968,9.968,0,0,1-3.468-4.562c-.112-.3-.455-1.2-.941-1.267-.343-.046-.775.287-1.28.986l-26.3,36.108,42.493,13.783c1.9.617,3,1.67,3.268,3.129.262,1.438-.393,2.8-1.946,4.042a7.108,7.108,0,0,0-2.337,3.349c-1.312,4.039,1.284,8.56,5.757,10.066,4.548,1.424,9.315-.7,10.628-4.742" transform="translate(61.112 10882.269)" fill="#ffca28" opacity="0.25"/>
    <path id="Trazado_228137" data-name="Trazado 228137" d="M402,514.976a7.1,7.1,0,0,0,3.908-1.189c1.662-1.093,3.157-1.3,4.444-.6,1.305.7,1.967,2.076,1.967,4.076l-.024,28.247a71.106,71.106,0,1,0,90.029-65.464L475.5,471.354c-.823-.266-1.366-.279-1.616-.04-.354.339-.1,1.272-.012,1.578a9.969,9.969,0,0,1-.108,5.729c-1.788,5.53-8.161,8.5-14.235,6.6-5.989-2.008-9.407-8.141-7.619-13.671a9.97,9.97,0,0,1,3.267-4.708c.249-.2,1-.8.915-1.287-.062-.341-.512-.648-1.333-.914l-42.47-13.856.023,44.672c0,2-.661,3.371-1.966,4.075-1.287.694-2.783.491-4.446-.6A7.1,7.1,0,0,0,402,497.748c-4.247,0-7.744,3.866-7.794,8.586.051,4.765,3.548,8.642,7.795,8.642" transform="translate(85.707 10738.323)" fill="#1565c0" opacity="0.25"/>
    <path id="Trazado_228139" data-name="Trazado 228139" d="M180.759,460.217a7.109,7.109,0,0,0,2.338,3.35c1.554,1.243,2.208,2.6,1.946,4.041-.266,1.459-1.367,2.512-3.269,3.13L154.9,479.444a71.106,71.106,0,1,0,90.08,65.393l-.021-28.192c0-.864-.157-1.386-.462-1.55-.432-.232-1.24.3-1.505.476a9.969,9.969,0,0,1-5.482,1.668c-5.812.009-10.6-5.136-10.68-11.5.059-6.317,4.836-11.462,10.648-11.47a9.965,9.965,0,0,1,5.487,1.652c.266.175,1.075.705,1.507.472.3-.165.458-.687.457-1.551l.055-44.672L202.507,464c-1.9.618-3.41.413-4.484-.611-1.058-1.009-1.328-2.494-.8-4.414a7.1,7.1,0,0,0-.078-4.083c-1.312-4.039-6.069-6.17-10.574-4.759-4.516,1.521-7.122,6.044-5.81,10.083" transform="translate(249.992 10738.939)" fill="#039be5" opacity="0.25"/>
    <path id="Trazado_228141" data-name="Trazado 228141" d="M156.669,245.993a7.1,7.1,0,0,0-2.463,3.259c-.7,1.861-1.793,2.9-3.242,3.1-1.47.2-2.811-.523-3.987-2.142l-16.585-22.867A71.105,71.105,0,1,0,96.036,333.222l26.806-8.732c.822-.268,1.269-.577,1.331-.918.087-.482-.669-1.087-.918-1.284a9.969,9.969,0,0,1-3.281-4.7c-1.8-5.525,1.608-11.672,7.634-13.71,6.025-1.9,12.4,1.057,14.2,6.582a9.964,9.964,0,0,1,.124,5.729c-.084.307-.338,1.241.016,1.579.251.239.8.224,1.616-.045l42.5-13.752-26.276-36.127c-1.175-1.618-1.446-3.115-.8-4.453.633-1.318,1.962-2.033,3.951-2.126a7.106,7.106,0,0,0,3.859-1.336c3.436-2.5,3.993-7.679,1.259-11.528-2.842-3.825-7.95-4.906-11.385-2.41" transform="translate(307.976 10882.268)" fill="#ffa726" opacity="0.25"/>
  </g>
</svg>
