<svg xmlns="http://www.w3.org/2000/svg" xmlns:xlink="http://www.w3.org/1999/xlink" width="399.969" height="306.951" viewBox="0 0 399.969 306.951">
  <defs>
    <clipPath id="clip-path">
      <rect id="Rectángulo_49928" data-name="Rectángulo 49928" width="399.969" height="306.951" fill="none"/>
    </clipPath>
    <clipPath id="clip-path-5">
      <rect id="Rectángulo_49917" data-name="Rectángulo 49917" width="36.394" height="52.102" fill="none"/>
    </clipPath>
    <clipPath id="clip-path-6">
      <rect id="Rectángulo_49918" data-name="Rectángulo 49918" width="30.303" height="32.495" fill="none"/>
    </clipPath>
    <clipPath id="clip-path-7">
      <rect id="Rectángulo_49919" data-name="Rectángulo 49919" width="20.533" height="17.43" fill="none"/>
    </clipPath>
    <clipPath id="clip-path-8">
      <rect id="Rectángulo_49920" data-name="Rectángulo 49920" width="58.161" height="48.703" fill="none"/>
    </clipPath>
    <clipPath id="clip-path-9">
      <rect id="Rectángulo_49921" data-name="Rectángulo 49921" width="9.344" height="11.122" fill="none"/>
    </clipPath>
    <clipPath id="clip-path-10">
      <rect id="Rectángulo_49922" data-name="Rectángulo 49922" width="46.841" height="62.057" fill="none"/>
    </clipPath>
    <clipPath id="clip-path-12">
      <rect id="Rectángulo_49925" data-name="Rectángulo 49925" width="28.199" height="14.286" fill="none"/>
    </clipPath>
    <clipPath id="clip-path-13">
      <rect id="Rectángulo_49926" data-name="Rectángulo 49926" width="30.537" height="3.059" fill="none"/>
    </clipPath>
  </defs>
  <g id="Grupo_117825" data-name="Grupo 117825" transform="translate(-872.531 -8211.4)">
    <g id="Grupo_114644" data-name="Grupo 114644" transform="translate(872.531 8211.4)">
      <g id="Grupo_114643" data-name="Grupo 114643" clip-path="url(#clip-path)">
        <g id="Grupo_114612" data-name="Grupo 114612">
          <g id="Grupo_114611" data-name="Grupo 114611" clip-path="url(#clip-path)">
            <path id="Trazado_227643" data-name="Trazado 227643" d="M228.091,328.573a23.256,23.256,0,0,1,5.671-2.465l1.168-5.613,9.484-.166,1.365,5.568a23.22,23.22,0,0,1,5.755,2.264l4.793-3.142,6.824,6.589-2.971,4.9a23.239,23.239,0,0,1,2.464,5.673l5.613,1.168.167,9.484-5.569,1.366a23.244,23.244,0,0,1-2.264,5.753l3.141,4.794-6.588,6.824-4.9-2.971a23.222,23.222,0,0,1-5.672,2.464l-1.168,5.613-9.484.166-1.366-5.569a23.25,23.25,0,0,1-5.754-2.264l-4.793,3.142-6.825-6.589,2.971-4.9a23.2,23.2,0,0,1-2.464-5.672l-5.613-1.168-.166-9.484,5.569-1.366a23.238,23.238,0,0,1,2.264-5.754l-3.141-4.793,6.588-6.824Zm5.056,12.634a10.176,10.176,0,1,0,14.388-.253,10.175,10.175,0,0,0-14.388.253" transform="translate(-69.146 -104.522)" fill="#12263f" opacity="0.11"/>
            <path id="Trazado_227644" data-name="Trazado 227644" d="M82.971,23.037a21.13,21.13,0,0,1,5.15-2.238l1.061-5.1,8.612-.151,1.24,5.056a21.1,21.1,0,0,1,5.226,2.056l4.353-2.853,6.2,5.983-2.7,4.449a21.087,21.087,0,0,1,2.238,5.151l5.1,1.061.151,8.612-5.057,1.24a21.089,21.089,0,0,1-2.055,5.225l2.852,4.353-5.982,6.2-4.45-2.7a21.113,21.113,0,0,1-5.151,2.238l-1.061,5.1-8.612.151-1.24-5.057a21.117,21.117,0,0,1-5.225-2.056L79.263,62.61l-6.2-5.983,2.7-4.45a21.088,21.088,0,0,1-2.239-5.15l-5.1-1.06-.152-8.612,5.057-1.24a21.1,21.1,0,0,1,2.056-5.225l-2.853-4.353,5.982-6.2ZM87.562,34.51a9.24,9.24,0,1,0,13.065-.23,9.24,9.24,0,0,0-13.065.23" transform="translate(-22.279 -5.074)" fill="#12263f" opacity="0.29"/>
            <rect id="Rectángulo_49908" data-name="Rectángulo 49908" width="0.674" height="149.34" transform="translate(210.406 33.641) rotate(-59.77)" fill="#12263f" opacity="0.29"/>
            <path id="Trazado_227645" data-name="Trazado 227645" d="M55.33,197.01l-.482-.471c.532-.544,53.39-54.7,75.746-79.125,16.2-17.695,63.329-66.771,63.8-67.265l.486.467c-.474.494-47.6,49.564-63.793,67.252-22.362,24.433-75.228,78.6-75.76,79.141" transform="translate(-17.897 -16.363)" fill="#ebebeb"/>
            <path id="Trazado_227646" data-name="Trazado 227646" d="M27.81,278.217a5.451,5.451,0,0,0,3.248-5.043,5.293,5.293,0,0,0-5.09-5.475,5.287,5.287,0,0,0-5.134,5.428,5.442,5.442,0,0,0,3.257,5.09c-7.866,1.185-7.51,9.735-7.51,9.735l18.6.086s.424-8.643-7.374-9.821" transform="translate(-5.41 -87.349)" fill="#ebebeb"/>
            <path id="Trazado_227647" data-name="Trazado 227647" d="M20.475,294.316a20.475,20.475,0,1,1,20.475-20.475,20.5,20.5,0,0,1-20.475,20.475m0-40.366a19.891,19.891,0,1,0,19.891,19.891A19.913,19.913,0,0,0,20.475,253.95" transform="translate(0 -82.673)" fill="#ebebeb"/>
            <path id="Trazado_227648" data-name="Trazado 227648" d="M527.147,168.9a5.314,5.314,0,0,0,3.166-4.917,4.994,4.994,0,1,0-9.968-.046,5.306,5.306,0,0,0,3.176,4.962c-7.67,1.155-7.321,9.492-7.321,9.492l18.137.084s.414-8.427-7.189-9.575" transform="translate(-168.434 -51.766)" fill="#12263f" opacity="0.23"/>
            <path id="Trazado_227649" data-name="Trazado 227649" d="M522.163,184.482A19.966,19.966,0,1,1,539.842,166.8a19.986,19.986,0,0,1-17.679,17.681m-.064-39.131a19.4,19.4,0,1,0,17.177,17.176A19.417,19.417,0,0,0,522.1,145.351" transform="translate(-163.158 -47.206)" fill="#12263f" opacity="0.23"/>
            <path id="Trazado_227650" data-name="Trazado 227650" d="M278.556,22.783a5,5,0,0,0,2.978-4.623,4.7,4.7,0,1,0-9.373-.043,4.99,4.99,0,0,0,2.987,4.666c-7.212,1.087-6.885,8.925-6.885,8.925l17.054.079s.389-7.923-6.76-9" transform="translate(-87.532 -4.288)" fill="#12263f" opacity="0.11"/>
            <path id="Trazado_227651" data-name="Trazado 227651" d="M273.869,37.433a18.773,18.773,0,1,1,16.624-16.625,18.792,18.792,0,0,1-16.624,16.625M273.809.64a18.238,18.238,0,1,0,16.151,16.15A18.258,18.258,0,0,0,273.809.64" transform="translate(-82.573 0)" fill="#12263f" opacity="0.1"/>
            <path id="Trazado_227652" data-name="Trazado 227652" d="M126.293,382.735a4.651,4.651,0,0,0,2.771-4.3,4.371,4.371,0,1,0-8.723-.04,4.643,4.643,0,0,0,2.78,4.343c-6.712,1.011-6.408,8.306-6.408,8.306l15.872.073s.362-7.374-6.292-8.379" transform="translate(-38.082 -121.957)" fill="#12263f" opacity="0.13"/>
            <path id="Trazado_227653" data-name="Trazado 227653" d="M120.033,396.471A17.469,17.469,0,1,1,137.5,379a17.489,17.489,0,0,1-17.469,17.47m0-34.441A16.972,16.972,0,1,0,137,379a16.99,16.99,0,0,0-16.971-16.971" transform="translate(-33.466 -117.967)" fill="#12263f" opacity="0.39"/>
            <rect id="Rectángulo_49909" data-name="Rectángulo 49909" width="0.674" height="59.387" transform="matrix(0.669, -0.744, 0.744, 0.669, 30.968, 208.855)" fill="#ebebeb"/>
          </g>
        </g>
        <rect id="Rectángulo_49911" data-name="Rectángulo 49911" width="105.071" height="49.349" transform="translate(272.332 6.56)" fill="#fafafa"/>
        <g id="Grupo_114614" data-name="Grupo 114614">
          <g id="Grupo_114613" data-name="Grupo 114613" clip-path="url(#clip-path)">
            <path id="Trazado_227654" data-name="Trazado 227654" d="M509.217,59s-.009-.3-.013-.884-.007-1.444-.014-2.567c-.007-2.256-.018-5.571-.032-9.837-.016-8.526-.04-20.847-.069-36.061l.128.128-105.064.047h-.007l.175-.175c0,17.365-.006,34.059-.009,49.349l-.166-.166,75.441.079,21.787.046,5.821.021,1.506.01c.34,0,.517.01.517.01s-.164.007-.5.01l-1.486.01-5.787.021-21.749.046-75.552.079h-.166V59c0-15.29-.006-31.984-.009-49.349V9.476h.183l105.064.047h.129v.129c-.029,15.247-.053,27.6-.069,36.139-.013,4.254-.024,7.558-.032,9.808-.006,1.113-.011,1.963-.014,2.543s-.013.858-.013.858" transform="translate(-131.814 -3.092)" fill="#263238"/>
            <path id="Trazado_227655" data-name="Trazado 227655" d="M509.464,31.76c0,.1-23.559.176-52.614.176s-52.62-.079-52.62-.176,23.555-.175,52.62-.175,52.614.078,52.614.175" transform="translate(-131.899 -10.306)" fill="#263238"/>
            <path id="Trazado_227656" data-name="Trazado 227656" d="M416.731,17.462a23.415,23.415,0,0,1-2.854,2.862,23.362,23.362,0,0,1-3.092,2.6,23.293,23.293,0,0,1,2.854-2.862,23.423,23.423,0,0,1,3.092-2.6" transform="translate(-134.037 -5.697)" fill="#263238"/>
            <path id="Trazado_227657" data-name="Trazado 227657" d="M416.606,23.053a23.411,23.411,0,0,1-2.862-2.854,23.361,23.361,0,0,1-2.6-3.092A23.357,23.357,0,0,1,414,19.961a23.429,23.429,0,0,1,2.6,3.092" transform="translate(-134.153 -5.581)" fill="#263238"/>
            <path id="Trazado_227658" data-name="Trazado 227658" d="M432.235,22.905a2.547,2.547,0,0,1-.034-.441c-.011-.327-.024-.716-.04-1.177-.028-1-.063-2.41-.078-4.087l.152.152-5.706.024c-.038.038.332-.332.175-.174h0v.774c0,.257,0,.511,0,.763q0,.755,0,1.475c-.007.953-.012,1.855-.018,2.691l-.152-.152c1.678.015,3.084.049,4.088.077l1.176.039a2.582,2.582,0,0,1,.441.035,13.547,13.547,0,0,1-1.521.074c-.993.028-2.439.063-4.184.077h-.151v-.153c-.005-.836-.011-1.738-.018-2.691q0-.72,0-1.475c0-.251,0-.506,0-.763V17.2h0c-.157.156.214-.215.176-.177l5.706.024h.153V17.2c-.015,1.744-.049,3.191-.077,4.184a13.352,13.352,0,0,1-.074,1.521" transform="translate(-139.105 -5.554)" fill="#263238"/>
            <path id="Trazado_227659" data-name="Trazado 227659" d="M447.934,24.918a26.85,26.85,0,0,1-6.124,0,26.85,26.85,0,0,1,6.124,0" transform="translate(-144.161 -8.074)" fill="#263238"/>
            <rect id="Rectángulo_49912" data-name="Rectángulo 49912" width="95.353" height="66.951" transform="translate(0.773 65.997)" fill="#fafafa"/>
            <path id="Trazado_227660" data-name="Trazado 227660" d="M96.415,164.828s-.01-.42-.015-1.223-.009-1.993-.016-3.543c-.008-3.108-.02-7.664-.036-13.492-.018-11.646-.043-28.366-.074-48.694l.141.141L1.07,98.052H1.063l.175-.175c-.005,23.945-.011,46.677-.015,66.951l-.16-.16,68.747.079,19.594.043,5.207.019,1.343.009c.3,0,.461.009.461.009s-.146.006-.443.009l-1.326.009-5.175.019-19.558.043-68.851.079H.9v-.16c0-20.274-.01-43.007-.015-66.951V97.7H1.07l95.345.034h.142v.141c-.031,20.365-.056,37.115-.074,48.782-.016,5.814-.028,10.36-.036,13.46-.007,1.538-.012,2.716-.016,3.517s-.015,1.192-.015,1.192" transform="translate(-0.289 -31.88)" fill="#263238"/>
            <path id="Trazado_227661" data-name="Trazado 227661" d="M96.647,117.941c0,.1-21.38.175-47.747.175s-47.753-.078-47.753-.175,21.376-.175,47.753-.175,47.747.078,47.747.175" transform="translate(-0.374 -38.427)" fill="#263238"/>
            <path id="Trazado_227662" data-name="Trazado 227662" d="M12.491,104.973a19.317,19.317,0,0,1-2.579,2.609,19.365,19.365,0,0,1-2.817,2.351,19.3,19.3,0,0,1,2.58-2.609,19.33,19.33,0,0,1,2.817-2.351" transform="translate(-2.314 -34.251)" fill="#263238"/>
            <path id="Trazado_227663" data-name="Trazado 227663" d="M12.379,110.046a19.318,19.318,0,0,1-2.609-2.579,19.365,19.365,0,0,1-2.351-2.817,19.326,19.326,0,0,1,2.61,2.58,19.348,19.348,0,0,1,2.351,2.817" transform="translate(-2.419 -34.146)" fill="#263238"/>
            <path id="Trazado_227664" data-name="Trazado 227664" d="M26.551,109.9c-.023-.023-.045-.563-.075-1.473s-.062-2.186-.077-3.705l.152.152-5.178.024.175-.174h0v.7q0,.35,0,.692,0,.685,0,1.339c-.006.864-.012,1.683-.018,2.443l-.152-.152c1.52.015,2.794.049,3.705.077s1.45.051,1.473.074a10.83,10.83,0,0,1-1.376.074c-.9.028-2.216.063-3.8.077h-.151V109.9c-.005-.76-.011-1.578-.018-2.443q0-.653,0-1.339c0-.228,0-.459,0-.692v-.7h0l.176-.177,5.178.024H26.7v.151c-.015,1.587-.049,2.9-.077,3.8a10.828,10.828,0,0,1-.074,1.376" transform="translate(-6.904 -34.114)" fill="#263238"/>
            <path id="Trazado_227665" data-name="Trazado 227665" d="M40.808,111.731a11.079,11.079,0,0,1-2.778.177,11.078,11.078,0,0,1-2.779-.177,11.215,11.215,0,0,1,2.779-.174,11.216,11.216,0,0,1,2.778.174" transform="translate(-11.502 -36.401)" fill="#263238"/>
            <path id="Trazado_227666" data-name="Trazado 227666" d="M71.665,144.1a13.379,13.379,0,1,0-24.912,6.759h-.007l.038.051c.513.864,1.155,1.483,1.8,2.391l7.768,10.29a2.416,2.416,0,0,0,3.856,0l7.638-10.12A28.872,28.872,0,0,0,69.8,150.9l.028-.037h-.005a13.3,13.3,0,0,0,1.847-6.759m-13.379,5.826a5.888,5.888,0,1,1,5.888-5.888,5.888,5.888,0,0,1-5.888,5.888" transform="translate(-14.653 -42.655)" fill="#e0e0e0"/>
            <rect id="Rectángulo_49913" data-name="Rectángulo 49913" width="122.401" height="85.943" transform="translate(277.38 158.929)" fill="#fafafa"/>
            <path id="Trazado_227667" data-name="Trazado 227667" d="M534.04,321.761s-.01-.537-.015-1.565-.009-2.555-.016-4.545c-.008-3.984-.02-9.833-.036-17.313-.018-14.949-.043-36.418-.074-62.52l.141.142-122.391.034h-.01l.176-.176c-.006,30.738-.011,59.918-.016,85.943l-.16-.16,88.263.079,25.147.043,6.679.019,1.723.009c.387,0,.589.009.589.009s-.189.006-.571.009l-1.7.009-6.647.019-25.11.043-88.368.079h-.16v-.16c0-26.025-.01-55.205-.016-85.943v-.175h.185l122.391.034h.142v.141c-.031,26.138-.056,47.638-.074,62.608-.016,7.467-.028,13.3-.036,17.282-.007,1.978-.013,3.492-.016,4.519s-.016,1.535-.016,1.535" transform="translate(-134.259 -76.89)" fill="#263238"/>
            <path id="Trazado_227668" data-name="Trazado 227668" d="M534.314,261.574c0,.1-27.445.175-61.292.175s-61.3-.078-61.3-.175,27.439-.175,61.3-.175,61.292.078,61.292.175" transform="translate(-134.344 -85.294)" fill="#263238"/>
            <path id="Trazado_227669" data-name="Trazado 227669" d="M426.287,244.9a63.076,63.076,0,0,1-6.927,6.367,63.235,63.235,0,0,1,6.927-6.367" transform="translate(-136.835 -79.91)" fill="#263238"/>
            <path id="Trazado_227670" data-name="Trazado 227670" d="M426.142,251.416a63.244,63.244,0,0,1-6.367-6.927,63.244,63.244,0,0,1,6.367,6.927" transform="translate(-136.97 -79.775)" fill="#263238"/>
            <path id="Trazado_227671" data-name="Trazado 227671" d="M444.364,251.258a3.365,3.365,0,0,1-.035-.509c-.011-.369-.024-.822-.04-1.368-.028-1.168-.062-2.81-.077-4.77l.152.152-6.646.024c-.039.038.331-.331.174-.174v.9q0,.449,0,.889,0,.878,0,1.718c-.006,1.112-.012,2.164-.018,3.135l-.152-.152c1.96.015,3.6.049,4.77.077l1.368.04a3.477,3.477,0,0,1,.509.035,2.016,2.016,0,0,1-.447.034l-1.333.04c-1.158.028-2.84.063-4.867.077h-.151v-.153c-.005-.971-.011-2.023-.018-3.135q0-.839,0-1.718,0-.441,0-.889v-.9c-.156.156.214-.215.177-.177l6.646.024h.153v.152c-.015,2.027-.049,3.709-.077,4.867-.016.532-.029.973-.039,1.333a2.033,2.033,0,0,1-.035.447" transform="translate(-142.756 -79.758)" fill="#263238"/>
            <path id="Trazado_227672" data-name="Trazado 227672" d="M462.636,253.6a36.4,36.4,0,0,1-7.134,0,36.4,36.4,0,0,1,7.134,0" transform="translate(-148.629 -82.693)" fill="#263238"/>
            <rect id="Rectángulo_49914" data-name="Rectángulo 49914" width="43.764" height="43.764" transform="translate(341.8 186.333)" fill="#e0e0e0"/>
          </g>
        </g>
        <path id="Trazado_228132" data-name="Trazado 228132" d="M0,0H253.3V194.741H0Z" transform="translate(71.253 31.234)" fill="#f6feff"/>
        <g id="Grupo_114634" data-name="Grupo 114634">
          <g id="Grupo_114633" data-name="Grupo 114633" clip-path="url(#clip-path)">
            <path id="Trazado_227673" data-name="Trazado 227673" d="M358.977,241.017c0-1.2-.057-77.075-.145-194.74l.145.144L105.7,46.452h-.022l.176-.175c-.007,70.133-.013,136.5-.018,194.74l-.158-.158,253.3.158-253.3.158h-.158v-.158c-.005-58.242-.011-124.607-.018-194.74V46.1h.2l253.277.031h.145v.145c-.088,117.665-.144,193.54-.145,194.74" transform="translate(-34.425 -15.043)" fill="#263238"/>
            <path id="Trazado_227674" data-name="Trazado 227674" d="M304.815,248.078s.216-.3.654-.879l.369-.484c.124-.186.236-.407.371-.638a9.968,9.968,0,0,0,.831-1.661c.129-.327.284-.668.414-1.038l.331-1.2a8.543,8.543,0,0,0,.276-1.335,14.247,14.247,0,0,0,.2-1.47,27.833,27.833,0,0,0-.325-7.089c-.819-5.3-3.067-11.546-6.51-18.332a143.1,143.1,0,0,0-13.981-21.741A222.5,222.5,0,0,0,266.6,168.8a254.979,254.979,0,0,0-27.369-23.361c-5.109-3.755-10.5-7.4-16.178-10.827a156.254,156.254,0,0,0-17.97-9.422,83.974,83.974,0,0,0-19.995-6.267,35.347,35.347,0,0,0-10.662-.262,19.963,19.963,0,0,0-5.151,1.492,12.838,12.838,0,0,0-6.98,7.813,19.988,19.988,0,0,0-.9,5.289,35.237,35.237,0,0,0,1.469,10.566,83.923,83.923,0,0,0,8.5,19.158,156.2,156.2,0,0,0,11.408,16.785c4.055,5.255,8.288,10.194,12.6,14.844A254.94,254.94,0,0,0,221.7,219.138a222.507,222.507,0,0,0,25.638,18.047A143.171,143.171,0,0,0,270.53,248.6c7.133,2.647,13.593,4.17,18.953,4.38a27.794,27.794,0,0,0,7.078-.484,14.385,14.385,0,0,0,1.438-.37,8.471,8.471,0,0,0,1.294-.426l1.153-.465c.353-.172.674-.364.985-.53a9.956,9.956,0,0,0,1.555-1.014c.214-.161.421-.3.592-.441l.439-.421c.522-.5.8-.749.8-.749s-.255.269-.769.781l-.433.43c-.169.148-.375.288-.587.451a9.817,9.817,0,0,1-1.552,1.037c-.311.17-.632.366-.986.543l-1.155.477a8.521,8.521,0,0,1-1.3.439,14.465,14.465,0,0,1-1.443.382,27.8,27.8,0,0,1-7.112.525c-5.385-.186-11.869-1.691-19.027-4.323a142.742,142.742,0,0,1-23.261-11.38,221.841,221.841,0,0,1-25.7-18.031,254.56,254.56,0,0,1-26.391-24.542c-4.322-4.653-8.566-9.6-12.633-14.863a156.283,156.283,0,0,1-11.446-16.823,84.261,84.261,0,0,1-8.549-19.253,35.671,35.671,0,0,1-1.486-10.694,20.411,20.411,0,0,1,.921-5.407,13.257,13.257,0,0,1,7.2-8.06,20.381,20.381,0,0,1,5.266-1.526,35.749,35.749,0,0,1,10.79.264,84.3,84.3,0,0,1,20.1,6.3,156.418,156.418,0,0,1,18.012,9.455c5.691,3.441,11.086,7.094,16.2,10.859a254.436,254.436,0,0,1,27.383,23.425,221.707,221.707,0,0,1,20.838,23.485,142.639,142.639,0,0,1,13.954,21.815c3.431,6.812,5.663,13.083,6.461,18.413a27.752,27.752,0,0,1,.287,7.126,14.125,14.125,0,0,1-.215,1.477,8.524,8.524,0,0,1-.288,1.341l-.342,1.2c-.135.372-.294.713-.427,1.042a9.835,9.835,0,0,1-.854,1.661c-.139.23-.254.45-.381.635l-.379.48c-.45.569-.688.853-.688.853" transform="translate(-52.521 -38.484)" fill="#e0e0e0"/>
            <path id="Trazado_227675" data-name="Trazado 227675" d="M321.906,201.764s-.04-.37-.1-1.091q-.021-.272-.048-.606c-.031-.222-.095-.461-.148-.723a9.9,9.9,0,0,0-.486-1.793c-.122-.331-.233-.688-.382-1.052l-.551-1.114a8.432,8.432,0,0,0-.682-1.18,14.172,14.172,0,0,0-.827-1.233,27.785,27.785,0,0,0-4.96-5.074c-4.141-3.412-9.975-6.575-17.061-9.348a143.168,143.168,0,0,0-24.905-6.918,222.443,222.443,0,0,0-31.144-3.6,254.989,254.989,0,0,0-35.974.785c-6.312.6-12.758,1.469-19.281,2.69a156.2,156.2,0,0,0-19.682,4.931,83.943,83.943,0,0,0-19.093,8.632,35.365,35.365,0,0,0-8.132,6.9,19.963,19.963,0,0,0-2.851,4.542,12.836,12.836,0,0,0-.008,10.477,19.972,19.972,0,0,0,2.849,4.545,35.246,35.246,0,0,0,8.13,6.907,83.891,83.891,0,0,0,19.1,8.638,156.145,156.145,0,0,0,19.686,4.932c6.524,1.222,12.971,2.091,19.284,2.691a255.052,255.052,0,0,0,35.978.785,222.562,222.562,0,0,0,31.145-3.6,143.151,143.151,0,0,0,24.9-6.918c7.085-2.773,12.919-5.937,17.059-9.348a27.8,27.8,0,0,0,4.96-5.074,14.216,14.216,0,0,0,.826-1.233,8.427,8.427,0,0,0,.682-1.18l.551-1.114c.148-.364.26-.721.381-1.052a9.9,9.9,0,0,0,.486-1.792c.053-.262.117-.5.148-.723s.034-.425.048-.606c.057-.721.1-1.091.1-1.091s-.011.37-.055,1.095q-.016.273-.037.609c-.028.224-.088.464-.138.728a9.759,9.759,0,0,1-.468,1.808c-.119.333-.228.694-.374,1.061l-.546,1.125a8.456,8.456,0,0,1-.677,1.192,14.282,14.282,0,0,1-.823,1.246,27.775,27.775,0,0,1-4.957,5.126c-4.143,3.446-9.983,6.639-17.077,9.44a142.692,142.692,0,0,1-24.934,6.992,221.817,221.817,0,0,1-31.184,3.655,254.479,254.479,0,0,1-36.031-.747c-6.324-.595-12.783-1.461-19.322-2.681a156.356,156.356,0,0,1-19.74-4.936,84.247,84.247,0,0,1-19.2-8.677,35.665,35.665,0,0,1-8.228-6.992,20.388,20.388,0,0,1-2.912-4.648,13.258,13.258,0,0,1,.008-10.808,20.389,20.389,0,0,1,2.914-4.645,35.744,35.744,0,0,1,8.229-6.985,84.276,84.276,0,0,1,19.192-8.673,156.342,156.342,0,0,1,19.735-4.934c6.538-1.22,13-2.086,19.318-2.681a254.414,254.414,0,0,1,36.027-.747,221.833,221.833,0,0,1,31.184,3.654,142.642,142.642,0,0,1,24.934,6.991c7.095,2.8,12.936,5.994,17.079,9.44a27.765,27.765,0,0,1,4.958,5.127,14,14,0,0,1,.823,1.246,8.5,8.5,0,0,1,.678,1.192q.285.59.545,1.125c.147.367.256.728.375,1.062a9.786,9.786,0,0,1,.468,1.808c.05.264.111.5.138.728s.026.428.037.61c.043.725.055,1.095.055,1.095" transform="translate(-43.744 -54.612)" fill="#e0e0e0"/>
            <path id="Trazado_227676" data-name="Trazado 227676" d="M303.3,101.6s-.317-.2-.922-.592l-.508-.334c-.195-.111-.422-.208-.662-.326a9.9,9.9,0,0,0-1.715-.714c-.335-.106-.686-.237-1.064-.343l-1.219-.247a8.409,8.409,0,0,0-1.351-.184,14.121,14.121,0,0,0-1.48-.1,27.808,27.808,0,0,0-7.05.812c-5.233,1.182-11.307,3.855-17.84,7.757a143.153,143.153,0,0,0-20.727,15.445,222.533,222.533,0,0,0-21.924,22.41,254.951,254.951,0,0,0-21.42,28.912c-3.393,5.356-6.656,10.983-9.686,16.886a156.17,156.17,0,0,0-8.163,18.576,83.962,83.962,0,0,0-4.875,20.379,35.335,35.335,0,0,0,.472,10.655,19.976,19.976,0,0,0,1.843,5.036,12.838,12.838,0,0,0,8.275,6.426,19.972,19.972,0,0,0,5.338.533,35.274,35.274,0,0,0,10.44-2.194,83.91,83.91,0,0,0,18.527-9.8,156.132,156.132,0,0,0,15.959-12.537c4.963-4.407,9.6-8.97,13.942-13.592a254.984,254.984,0,0,0,22.663-27.954,222.477,222.477,0,0,0,16.238-26.819,143.1,143.1,0,0,0,9.79-23.922c2.15-7.3,3.224-13.847,3.064-19.209a27.784,27.784,0,0,0-.971-7.028,14.124,14.124,0,0,0-.468-1.408,8.429,8.429,0,0,0-.514-1.263l-.543-1.118c-.2-.34-.41-.647-.6-.946a10,10,0,0,0-1.119-1.482c-.174-.2-.325-.4-.481-.559l-.45-.409c-.534-.486-.8-.745-.8-.745s.286.236.832.713l.459.4c.159.158.313.354.49.555a9.82,9.82,0,0,1,1.142,1.477c.191.3.408.6.609.946l.555,1.12a8.493,8.493,0,0,1,.527,1.266,14.409,14.409,0,0,1,.48,1.413,27.777,27.777,0,0,1,1.015,7.059c.185,5.385-.869,11.958-3,19.28a142.713,142.713,0,0,1-9.751,23.989,221.819,221.819,0,0,1-16.217,26.885,254.467,254.467,0,0,1-22.666,28.019c-4.345,4.634-8.987,9.207-13.957,13.628a156.318,156.318,0,0,1-16,12.577,84.251,84.251,0,0,1-18.619,9.855,35.666,35.666,0,0,1-10.566,2.219,20.4,20.4,0,0,1-5.458-.546,13.259,13.259,0,0,1-8.536-6.629,20.39,20.39,0,0,1-1.886-5.148,35.729,35.729,0,0,1-.479-10.783,84.286,84.286,0,0,1,4.9-20.481,156.364,156.364,0,0,1,8.193-18.621c3.041-5.914,6.313-11.549,9.717-16.91a254.466,254.466,0,0,1,21.482-28.932,221.767,221.767,0,0,1,21.994-22.407,142.719,142.719,0,0,1,20.8-15.423c6.56-3.891,12.662-6.551,17.925-7.715a27.769,27.769,0,0,1,7.089-.777,14.231,14.231,0,0,1,1.489.113,8.572,8.572,0,0,1,1.358.195l1.223.259c.38.109.732.244,1.068.354a9.83,9.83,0,0,1,1.715.737c.239.123.466.222.66.337l.5.344c.6.41.9.628.9.628" transform="translate(-59.415 -32.179)" fill="#e0e0e0"/>
            <path id="Trazado_227677" data-name="Trazado 227677" d="M129.976,275.4a3.484,3.484,0,1,1-4.927,0,3.484,3.484,0,0,1,4.927,0" transform="translate(-40.47 -89.529)" fill="#e0e0e0"/>
            <path id="Trazado_227678" data-name="Trazado 227678" d="M421.28,113.948a3.484,3.484,0,1,1-3.484-3.484,3.485,3.485,0,0,1,3.484,3.484" transform="translate(-135.189 -36.044)" fill="#e0e0e0"/>
            <path id="Trazado_227679" data-name="Trazado 227679" d="M164.659,292.472a.886.886,0,1,1-.885-.885.885.885,0,0,1,.885.885" transform="translate(-53.15 -95.144)" fill="#e0e0e0"/>
            <path id="Trazado_227680" data-name="Trazado 227680" d="M192.712,147.55a.886.886,0,1,1-.886-.885.886.886,0,0,1,.886.885" transform="translate(-62.303 -47.856)" fill="#e0e0e0"/>
            <path id="Trazado_227681" data-name="Trazado 227681" d="M397.817,217.993a.886.886,0,1,1-.885-.885.886.886,0,0,1,.885.885" transform="translate(-129.229 -70.842)" fill="#e0e0e0"/>
            <path id="Trazado_227682" data-name="Trazado 227682" d="M416.083,156.718a.886.886,0,1,1-.885-.885.886.886,0,0,1,.885.885" transform="translate(-135.189 -50.848)" fill="#e0e0e0"/>
            <path id="Trazado_227683" data-name="Trazado 227683" d="M308.658,175.327a55.526,55.526,0,1,1-55.525-55.9,55.713,55.713,0,0,1,55.525,55.9" transform="translate(-64.48 -38.969)" fill="#4dd0e1"/>
            <g id="Grupo_114617" data-name="Grupo 114617" transform="translate(133.13 132.131)" opacity="0.3">
              <g id="Grupo_114616" data-name="Grupo 114616">
                <g id="Grupo_114615" data-name="Grupo 114615" clip-path="url(#clip-path-5)">
                  <path id="Trazado_227684" data-name="Trazado 227684" d="M232.572,225.272c.29-2.433,2.188-4.9,1.1-7.1-1.221-2.451-4.779-2.056-7.282-3.154-3.5-1.537-4.577-5.877-6.861-8.943-2.047-2.741-6.825-5.754-10.462-4.928a4.433,4.433,0,0,0-3.812,4.1l-.334-.053c-.975-.106-2.117-.158-2.652-.967-.624-.939-.009-2.336-.65-3.259a5.123,5.123,0,0,0-1.389-1.036c-.474-.334-.878-.967-.588-1.476.237-.43.852-.518,1.159-.914a.9.9,0,0,0-.018-1.1c-1-1.186-2.117,1.23-2.671,1.8a4.8,4.8,0,0,1-.448.422v.009c-.009.105-.018.2-.018.307-.013.329-.012.667-.018,1s-.018.668-.018,1c0,.272.009.542.013.812s0,.545.013.812a9.422,9.422,0,0,1,1.713.843c1.08.624,2.284,1.449,2.354,2.7a1.029,1.029,0,0,0,.115.589.844.844,0,0,0,.518.263,15.287,15.287,0,0,0,2.819.4c.018,1.116.1,2.284.079,3.391-.027,1.607-.554,3.2-.378,4.787.255,2.249,1.818,4.093,3.18,5.9,5.183,6.922,7.976,14.861,11.006,23,.563.448,1.365,1.045,1.944,1.458.457.329.878.616,1.344.932s.886.583,1.364.882c.334.211.407.27.749.472-.044-.1.039.069,0-.028-1.221-2.679-1.224-6.393,1.4-7.719a5.983,5.983,0,0,0,1.485-.781c1.168-1.107.211-3.391,1.379-4.5.659-.615,1.687-.571,2.5-.94,1.467-.676,1.942-2.557,1.827-4.173s-.65-3.206-.466-4.814" transform="translate(-197.61 -196.127)"/>
                </g>
              </g>
            </g>
            <g id="Grupo_114620" data-name="Grupo 114620" transform="translate(133.828 96.439)" opacity="0.3">
              <g id="Grupo_114619" data-name="Grupo 114619">
                <g id="Grupo_114618" data-name="Grupo 114618" clip-path="url(#clip-path-6)">
                  <path id="Trazado_227685" data-name="Trazado 227685" d="M201.4,167.069c1.037-.887,2.829-.992,3.628.114a3.829,3.829,0,0,1,.29,2.838c-.2,1.3-.4,2.6-.615,3.9a2.027,2.027,0,0,0,.053,1.169c.387.825,1.74.668,2.258-.071a3.6,3.6,0,0,0,.325-2.644,5.015,5.015,0,0,1,.027-2.7c.879-2.09,4-1.775,5.806-3.136,1.124-.843,1.626-2.258,2.293-3.5s1.784-2.477,3.189-2.415c.474.018.94.193,1.414.175a1.891,1.891,0,0,0,1.212-3.057,3.5,3.5,0,0,1-.615-.633,1.152,1.152,0,0,1,.44-1.379,3.277,3.277,0,0,1,1.475-.474c1.186-.193,2.372-.378,3.558-.563,1.309-.2,2.987-.879,2.8-2.187-.158-1.134-1.7-1.643-1.923-2.768a3.746,3.746,0,0,0-.15-.825c-.36-.721-1.44-.43-2.134-.044a1.718,1.718,0,0,0-2.609-.834,4.574,4.574,0,0,0-1.036,2.468c-.58,2.108-2.258,3.707-3.856,5.192a3.213,3.213,0,0,1-1.872,1.054c-.729.036-1.494-.746-1.159-1.388.228-.439.861-.694.8-1.186-.088-.615-1.159-.571-1.37-1.159.422-1.74,2.416-2.46,3.945-3.391a9.549,9.549,0,0,0,4.032-4.954,1.258,1.258,0,0,0,.053-1.019c-.228-.439-.817-.509-1.318-.509-1.177-.018-2.644.141-3.075,1.238a13.058,13.058,0,0,0-.2,1.872c-.413,1.827-2.916,2.029-4.445,3.119a13.939,13.939,0,0,1-1.722,1.335,6.48,6.48,0,0,1-2.336.378c-.141.009-.5,0-.64.014-.483.672-.863,1.284-1.312,1.98s-.9,1.475-1.316,2.19a54.985,54.985,0,0,0-4.719,10.775c-.43,1.314-.8,2.73-1.13,4.085s-.563,2.641-.792,4.033a15.664,15.664,0,0,0,1-3.5,6.409,6.409,0,0,1,1.748-3.6" transform="translate(-198.645 -143.148)"/>
                </g>
              </g>
            </g>
            <g id="Grupo_114623" data-name="Grupo 114623" transform="translate(168.725 84.393)" opacity="0.3">
              <g id="Grupo_114622" data-name="Grupo 114622">
                <g id="Grupo_114621" data-name="Grupo 114621" clip-path="url(#clip-path-7)">
                  <path id="Trazado_227686" data-name="Trazado 227686" d="M264.955,136.12c.525-.689.371-1.678.711-2.474.565-1.322,2.322-1.795,2.931-3.1.234-.5.292-1.113.7-1.486.341-.311.846-.373,1.212-.653.819-.627.479-2.053-.39-2.608-2.177-1.391-6.184.217-8.066,1.578-2.419,1.75-4.785,3.856-8,3.651a6.326,6.326,0,0,0-2.641.014c-.831.315-1.343,1.56-.628,2.088.4.293.963.212,1.411.42a1.792,1.792,0,0,1,.507,2.4c-.4.82-1.135,1.433-1.613,2.212a4.188,4.188,0,0,0-.6,2.543,2.32,2.32,0,0,0,.753,1.634c1,.8,2.524.115,3.372-.846s1.434-2.2,2.533-2.859a6.322,6.322,0,0,1,1.8-.628l4.2-1a3.038,3.038,0,0,0,1.806-.9" transform="translate(-250.444 -125.268)"/>
                </g>
              </g>
            </g>
            <g id="Grupo_114626" data-name="Grupo 114626" transform="translate(186.024 92.653)" opacity="0.3">
              <g id="Grupo_114625" data-name="Grupo 114625">
                <g id="Grupo_114624" data-name="Grupo 114624" clip-path="url(#clip-path-8)">
                  <path id="Trazado_227687" data-name="Trazado 227687" d="M334.265,180.81q-.007-1.2-.071-2.381c-.042-.788-.073-1.589-.152-2.37-.061-.633-.117-1.265-.2-1.888-.086-.659-.173-1.417-.282-2.069a50.577,50.577,0,0,0-1.222-5.582c-.207-.725-.559-1.5-.792-2.21s-.482-1.42-.745-2.123v-.009h0c-.281-.527-.579-1.045-.9-1.555-3.084-4.884-7.564-8.714-10.954-13.387-1.107-1.52-1.968-2.776-3.926-3.075-2.9-.448-4.366,1.2-6.422-1.546-.553-.738-1.52-1.423-2.336-.984.211.589.43,1.177.641,1.775a.834.834,0,0,1,.071.387c-.044.413-.659.527-1.011.3a3.6,3.6,0,0,1-.773-.992,2.843,2.843,0,0,0-4.172-.343,1.6,1.6,0,0,0-.923-1.3,1.9,1.9,0,0,1-2.389,1.537c-.167-.536.79-.633,1.124-1.089.307-.43-.061-1.027-.457-1.388a6.1,6.1,0,0,0-3.821-1.484,5.242,5.242,0,0,1-2.618-.308c-.448-.263-.764-.7-1.221-.957-.976-.554-2.2-.044-3.18.5a6.209,6.209,0,0,0-3.207,3.154c-.483,1.459.58,3.435,2.109,3.251a2.963,2.963,0,0,1,1.168-.132,1.416,1.416,0,0,1,.834,1.344,3.962,3.962,0,0,0,.255,1.642c.263.492,1.062.738,1.37.272a3.048,3.048,0,0,0,.448-2.811,3.748,3.748,0,0,1,.2-2.873c.588-.8,2.258-.544,2.143.439-.07.58-.729,1-.7,1.59s.756.914,1.353.887a6.432,6.432,0,0,1,1.783-.088c.589.14,1.054.9.633,1.335-.729.825-2.627-.589-3,.439-.106.263,0,.562-.027.843-.07.861-1.151,1.178-2.012,1.283a4.739,4.739,0,0,1-2.556-.185,1.624,1.624,0,0,1-.87-2.134.978.978,0,0,0-1.344.492,2.817,2.817,0,0,0-.1,1.6c-.914-.2-1.731.571-2.249,1.335s-1.028,1.669-1.915,1.942-2.126-.1-2.592.711c-.606,1.054,1.151,2.389.536,3.435-.351.589-1.194.571-1.862.756a2.873,2.873,0,0,0-1.177,4.462,3.454,3.454,0,0,0,4.884-.018,15.626,15.626,0,0,0,1.889-3.267c.641-1.081,1.853-2.065,3.065-1.713a3.711,3.711,0,0,1,1.256.79c.588.492,1.177.984,1.766,1.485.378.316.79.711.755,1.2-.035.4-.342.7-.474,1.072-.368,1.063,1.168,2.073,2.134,1.494a2.121,2.121,0,0,0,.413-2.978c-.914-1.265-2.978-1.9-2.925-3.461,1.054-.86,2.714.044,3.329,1.265s.633,2.653,1.151,3.909,1.968,2.381,3.18,1.766c-.316-1.089-.623-2.17-.94-3.251.773-.579,1.661,1.108,2.583.826.562-.176.632-.984.386-1.529a7.644,7.644,0,0,1-.781-1.589,1.81,1.81,0,0,1,2.1-1.854,2.748,2.748,0,0,1,2.055,2.266,5.035,5.035,0,0,0,.282,1.256c.4.843,1.449,1.1,2.31,1.449s1.766,1.221,1.405,2.082c-.167.377-.562.738-.422,1.124.132.342.641.492.641.86-.009.246-.263.413-.492.51-.58.237-1.212.316-1.775.588a1.6,1.6,0,0,0-1.027,1.424c.07.878,1.115,1.3,1.607,2.029a10.77,10.77,0,0,1,.7,2.406,8.642,8.642,0,0,0,1.327,1.924c1.458,1.985,1.8,4.541,2.512,6.9.316,1.063.9,2.249,1.985,2.451a3.334,3.334,0,0,0,1.756-.342,10.6,10.6,0,0,0,4.3-2.565c1.107-1.282,1.475-3.364.342-4.62a.891.891,0,0,0-.536-.343,1.615,1.615,0,0,0-.826.29,2.354,2.354,0,0,1-2.451-.528,6.9,6.9,0,0,1-1.458-2.187c-.43-.87-.861-1.748-1.3-2.627a1.535,1.535,0,0,1,1.88.176,10.152,10.152,0,0,1,1.283,1.581,8.18,8.18,0,0,0,5.543,2.6,5.27,5.27,0,0,1,1.564.325c1.555.711,2,3,3.646,3.5a10.433,10.433,0,0,1,1.4.317,2.569,2.569,0,0,1,1.168,1.739,27.8,27.8,0,0,0,1.027,3.883,3.589,3.589,0,0,0,2.97,2.363,3.081,3.081,0,0,0,2.2-.959c.07-1.212.149-2.466.149-3.7,0-.255,0-.509-.018-.764" transform="translate(-276.121 -137.528)"/>
                </g>
              </g>
            </g>
            <g id="Grupo_114629" data-name="Grupo 114629" transform="translate(215.98 158.929)" opacity="0.3">
              <g id="Grupo_114628" data-name="Grupo 114628">
                <g id="Grupo_114627" data-name="Grupo 114627" clip-path="url(#clip-path-9)">
                  <path id="Trazado_227688" data-name="Trazado 227688" d="M326.307,235.951c-.827.163-.992.649-1.442,1.262-.585.8-1.423,1.6-1.955,2.382-.9,1.334-.09,3.415-1.277,4.537a9.594,9.594,0,0,0-.772.631,1.4,1.4,0,0,0,.284,1.938,1.9,1.9,0,0,0,2.069.038,3.028,3.028,0,0,0,1.267-1.731,2.917,2.917,0,0,1,.642-1.419c.68-.595,1.736-.154,2.631-.279,3.806-.533,2.171-8.07-1.447-7.358" transform="translate(-320.587 -235.903)"/>
                </g>
              </g>
            </g>
            <g id="Grupo_114632" data-name="Grupo 114632" transform="translate(178.196 117.542)" opacity="0.3">
              <g id="Grupo_114631" data-name="Grupo 114631">
                <g id="Grupo_114630" data-name="Grupo 114630" clip-path="url(#clip-path-10)">
                  <path id="Trazado_227689" data-name="Trazado 227689" d="M309.3,205.424c2.19-1.9,3.075-6.18.354-7.17-1.031-.375-2.218-.073-3.239-.469-1.333-.517-1.956-2.013-2.437-3.359q-1.9-5.3-3.794-10.6c-.762-2.129-1.918-4.6-4.157-4.909-1.269-.178-2.5.428-3.76.657-4.338.789-11.634-9.709-14.935-2.642-.461-1.921-3.583-1.2-4.579.506s-1.208,3.965-2.79,5.15c-1.206.9-2.974.957-3.961,2.1a5.107,5.107,0,0,0-.9,2.992q-.252,3.03-.5,6.059a8.272,8.272,0,0,0,.561,4.793c.805,1.422,2.912,2.212,4.12,1.11a12.45,12.45,0,0,0,1.243-1.874,3.149,3.149,0,0,1,3.24-1.118,5.473,5.473,0,0,1,2.467,1.736c5.648,6.081,7.67,14.739,7.919,23.033a13.2,13.2,0,0,0,.606,4.49c.654,1.655,2.034,2.993,2.439,4.726.311,1.331.018,2.8.59,4.037,1.052,2.287,4.562,2.384,6.474.746s2.575-4.282,2.961-6.769.639-5.109,2.032-7.207c.863-1.3,2.134-2.342,2.739-3.781.843-2.013.218-4.4,1-6.436,1.041-2.7,4.116-3.9,6.307-5.795" transform="translate(-264.502 -174.471)"/>
                </g>
              </g>
            </g>
            <path id="Trazado_227690" data-name="Trazado 227690" d="M308.548,175.312s-.02-.306-.04-.9c-.036-.6-.016-1.487-.118-2.648a56.908,56.908,0,0,0-1.57-10.052,55.39,55.39,0,0,0-2.258-7,53.758,53.758,0,0,0-3.836-7.855,56.317,56.317,0,0,0-14.03-15.889,54.934,54.934,0,0,0-23.345-10.491,55.715,55.715,0,0,0-21.767.259,58.818,58.818,0,0,0-7.42,2.142,55.481,55.481,0,0,0-25.7,19.527,54.158,54.158,0,0,0-4.485,7.315c-.679,1.275-1.252,2.607-1.844,3.937-.532,1.354-1.076,2.71-1.514,4.11a55.17,55.17,0,0,0-2.089,8.6,56.215,56.215,0,0,0,0,17.881,55.368,55.368,0,0,0,2.088,8.6c.439,1.4.982,2.757,1.515,4.112.591,1.33,1.164,2.662,1.843,3.938a54.2,54.2,0,0,0,4.486,7.318,55.48,55.48,0,0,0,25.7,19.532,58.809,58.809,0,0,0,7.421,2.143,55.7,55.7,0,0,0,21.769.257A54.934,54.934,0,0,0,286.7,219.655a56.314,56.314,0,0,0,14.029-15.89,53.715,53.715,0,0,0,3.835-7.855,55.482,55.482,0,0,0,2.258-7,56.886,56.886,0,0,0,1.57-10.05c.1-1.161.082-2.051.118-2.648s.04-.9.04-.9,0,.306,0,.9.008,1.488-.083,2.651a55.14,55.14,0,0,1-3.742,17.105,53.754,53.754,0,0,1-3.822,7.893,56.393,56.393,0,0,1-14.046,15.986,55.112,55.112,0,0,1-23.443,10.582,55.971,55.971,0,0,1-21.889-.234,59.068,59.068,0,0,1-7.466-2.149,55.773,55.773,0,0,1-25.868-19.634,54.46,54.46,0,0,1-4.516-7.362c-.684-1.283-1.261-2.624-1.856-3.962-.537-1.363-1.083-2.728-1.525-4.137a55.618,55.618,0,0,1-2.1-8.655,56.567,56.567,0,0,1,0-17.991,55.523,55.523,0,0,1,2.1-8.652c.442-1.409.989-2.773,1.526-4.135.595-1.338,1.172-2.678,1.856-3.961a54.5,54.5,0,0,1,4.515-7.36,55.777,55.777,0,0,1,25.865-19.628,58.933,58.933,0,0,1,7.465-2.148,55.949,55.949,0,0,1,21.887-.235,55.139,55.139,0,0,1,23.444,10.58,56.4,56.4,0,0,1,14.047,15.986,53.69,53.69,0,0,1,3.823,7.893,55.143,55.143,0,0,1,3.744,17.107c.091,1.163.059,2.055.083,2.652s0,.9,0,.9" transform="translate(-64.433 -38.899)" fill="#263238"/>
            <path id="Trazado_227691" data-name="Trazado 227691" d="M283.1,231.852c-.1,0-.176-24.816-.176-55.42s.078-55.425.176-55.425.174,24.81.174,55.425-.078,55.42-.174,55.42" transform="translate(-92.317 -39.484)" fill="#263238"/>
            <path id="Trazado_227692" data-name="Trazado 227692" d="M287.9,231.551s.09-.073.274-.2l.823-.561c.735-.476,1.777-1.24,3.093-2.254a60.513,60.513,0,0,0,9.9-9.955,65.189,65.189,0,0,0,10.1-18.143A79.115,79.115,0,0,0,316.56,175.4a89.04,89.04,0,0,0-2.836-25.3,51.307,51.307,0,0,0-9.32-18.486,32.594,32.594,0,0,0-5.718-5.571,31.006,31.006,0,0,0-5.151-3.145A34.658,34.658,0,0,0,290,121.448l-.943-.321c-.212-.074-.318-.121-.318-.121s.112.024.329.086l.955.288a31.213,31.213,0,0,1,3.574,1.391,30.377,30.377,0,0,1,5.21,3.112,32.446,32.446,0,0,1,5.792,5.57,51.221,51.221,0,0,1,9.439,18.555,88.7,88.7,0,0,1,2.875,25.4,78.908,78.908,0,0,1-4.516,25.135,64.853,64.853,0,0,1-10.215,18.187,59.013,59.013,0,0,1-10.008,9.91c-1.332,1-2.389,1.748-3.137,2.205l-.843.533c-.191.118-.294.171-.294.171" transform="translate(-93.94 -39.484)" fill="#263238"/>
            <path id="Trazado_227693" data-name="Trazado 227693" d="M265.517,231.714s-.1-.054-.3-.174l-.86-.541c-.763-.466-1.844-1.221-3.211-2.227A68.988,68.988,0,0,1,244.742,211a52.282,52.282,0,0,1-5.1-10.186,72.819,72.819,0,0,1-3.338-12.139,87.046,87.046,0,0,1-1.362-13.447,87.977,87.977,0,0,1,3-25.868,52.959,52.959,0,0,1,4.283-10.557,36.313,36.313,0,0,1,5.83-8.028,36.807,36.807,0,0,1,11.78-8.115,38.449,38.449,0,0,1,3.662-1.363l.974-.289c.22-.063.335-.088.335-.088s-.108.047-.325.121l-.962.323c-.845.284-2.08.738-3.629,1.42a37.249,37.249,0,0,0-11.657,8.163,36.284,36.284,0,0,0-5.753,7.994,52.924,52.924,0,0,0-4.229,10.509,88.286,88.286,0,0,0-2.958,25.768,87.276,87.276,0,0,0,1.349,13.394,72.9,72.9,0,0,0,3.3,12.089,52.266,52.266,0,0,0,5.041,10.143,69.212,69.212,0,0,0,5.879,7.95,70.209,70.209,0,0,0,10.363,9.874c1.351,1.02,2.418,1.791,3.167,2.276l.84.57c.189.13.28.2.28.2" transform="translate(-76.655 -39.454)" fill="#263238"/>
            <path id="Trazado_227694" data-name="Trazado 227694" d="M309,200.943c0,.1-24.706.175-55.176.175s-55.181-.078-55.181-.175,24.7-.175,55.181-.175,55.176.078,55.176.175" transform="translate(-64.817 -65.51)" fill="#263238"/>
            <path id="Trazado_227695" data-name="Trazado 227695" d="M304.248,158.672c0,.1-21.077.175-47.071.175s-47.075-.078-47.075-.175,21.072-.175,47.075-.175,47.071.078,47.071.175" transform="translate(-68.556 -51.717)" fill="#263238"/>
            <path id="Trazado_227696" data-name="Trazado 227696" d="M304.109,244.011c0,.1-21.557.175-48.143.175s-48.148-.078-48.148-.175,21.552-.175,48.148-.175,48.143.078,48.143.175" transform="translate(-67.811 -79.563)" fill="#263238"/>
            <path id="Trazado_227697" data-name="Trazado 227697" d="M288.558,214.7H219.141a17.8,17.8,0,1,1,0-35.605h69.418a17.8,17.8,0,1,1,0,35.605" transform="translate(-65.696 -58.438)" fill="#fff"/>
            <path id="Trazado_227698" data-name="Trazado 227698" d="M288.482,214.614s.219-.023.645-.051a14.23,14.23,0,0,0,1.886-.186,17.307,17.307,0,0,0,6.781-2.494,18.7,18.7,0,0,0,2.03-1.453l.994-.909c.344-.3.633-.679.963-1.027a17.861,17.861,0,0,0,3.208-5.317,17.655,17.655,0,0,0,1.152-7.025,17.561,17.561,0,0,0-8-14.123,16.984,16.984,0,0,0-2.031-1.13,16.918,16.918,0,0,0-6.982-1.713c-6.656-.059-13.788-.006-21.282-.017l-48.779.014a17.549,17.549,0,0,0-17.415,14.965,17.518,17.518,0,0,0,.1,5.975,18.086,18.086,0,0,0,2.047,5.492,17.829,17.829,0,0,0,8.385,7.444,18.878,18.878,0,0,0,5.319,1.317c1.8.135,3.617.061,5.389.083l10.334.009,18.549.022,26.859.056,7.3.033,1.9.017c.428.006.647.018.647.018s-.219.012-.647.018l-1.9.017-7.3.033-26.859.056-18.549.022-10.334.009c-1.779-.02-3.57.059-5.417-.076a19.194,19.194,0,0,1-5.417-1.335,18.149,18.149,0,0,1-8.549-7.574,18.385,18.385,0,0,1-2.091-5.6,17.81,17.81,0,0,1-.1-6.09,17.987,17.987,0,0,1,17.754-15.265l48.779.014c7.5.019,14.617-.024,21.293.049a17.2,17.2,0,0,1,7.091,1.754,17.4,17.4,0,0,1,2.059,1.153,18.349,18.349,0,0,1,5.991,6.543,18.147,18.147,0,0,1,2.079,7.8,17.8,17.8,0,0,1-4.457,12.46c-.335.35-.629.726-.978,1.031l-1.007.911A18.789,18.789,0,0,1,297.866,212a17.146,17.146,0,0,1-6.842,2.448,12.983,12.983,0,0,1-1.894.152c-.428.016-.647.015-.647.015" transform="translate(-65.62 -58.353)" fill="#263238"/>
            <path id="Trazado_227699" data-name="Trazado 227699" d="M249.913,192.7l-5.488,15.412h-5.232l-2.9-8.388-3.014,8.388h-5.232L222.559,192.7h5.118l3.156,9.326L234.1,192.7h4.607l3.185,9.412,3.27-9.412Z" transform="translate(-72.62 -62.876)" fill="#263238"/>
            <path id="Trazado_227700" data-name="Trazado 227700" d="M289.543,192.7l-5.488,15.412h-5.231l-2.9-8.388-3.014,8.388h-5.232L262.19,192.7h5.118l3.156,9.326,3.27-9.326h4.606l3.185,9.412,3.27-9.412Z" transform="translate(-85.552 -62.876)" fill="#263238"/>
            <path id="Trazado_227701" data-name="Trazado 227701" d="M329.174,192.7l-5.487,15.412h-5.233l-2.9-8.388-3.013,8.388h-5.232L301.821,192.7h5.118l3.156,9.326,3.269-9.326h4.607l3.185,9.412,3.269-9.412Z" transform="translate(-98.483 -62.876)" fill="#263238"/>
            <path id="Trazado_227702" data-name="Trazado 227702" d="M224.824,256.4l-24.064,7a1.293,1.293,0,0,0-.538,2.172l16.42,15.863a1.293,1.293,0,0,0,2.125-.52l7.645-22.866a1.293,1.293,0,0,0-1.588-1.652" transform="translate(-65.203 -83.645)" fill="#263238"/>
            <path id="Trazado_227703" data-name="Trazado 227703" d="M187.426,287.5l16.96-15.756,6.755,6.564-16.877,16.181Z" transform="translate(-61.157 -88.669)" fill="#263238"/>
            <path id="Trazado_227704" data-name="Trazado 227704" d="M359.714,72.915c0,.1-56.406.175-125.97.175-69.588,0-125.982-.078-125.982-.175s56.394-.175,125.982-.175c69.564,0,125.97.078,125.97.175" transform="translate(-35.163 -23.735)" fill="#263238"/>
            <path id="Trazado_227705" data-name="Trazado 227705" d="M122.521,56.72a42.026,42.026,0,0,1-3.866,3.792,41.936,41.936,0,0,1-4.1,3.535,41.938,41.938,0,0,1,3.867-3.793,41.931,41.931,0,0,1,4.1-3.534" transform="translate(-37.377 -18.507)" fill="#263238"/>
            <path id="Trazado_227706" data-name="Trazado 227706" d="M122.355,64.212a42.029,42.029,0,0,1-3.792-3.866,41.841,41.841,0,0,1-3.535-4.1,41.938,41.938,0,0,1,3.793,3.867,41.932,41.932,0,0,1,3.534,4.1" transform="translate(-37.532 -18.351)" fill="#263238"/>
            <path id="Trazado_227707" data-name="Trazado 227707" d="M143.338,64.044a4.311,4.311,0,0,1-.035-.581c-.01-.413-.024-.935-.04-1.571-.028-1.344-.062-3.236-.077-5.5l.152.152-7.649.024c-.039.038.331-.331.175-.174v1.04c0,.344,0,.685,0,1.023,0,.674,0,1.334,0,1.977-.006,1.281-.011,2.492-.017,3.608l-.152-.152c2.261.015,4.153.049,5.5.077l1.571.039a4.309,4.309,0,0,1,.581.035,2.843,2.843,0,0,1-.519.034l-1.537.04c-1.333.028-3.265.063-5.594.077h-.151v-.153c-.005-1.116-.011-2.327-.018-3.608,0-.643,0-1.3,0-1.977,0-.338,0-.679,0-1.023V56.4c-.157.156.213-.215.176-.177l7.649.024h.153v.151c-.015,2.328-.049,4.26-.077,5.594-.016.623-.029,1.133-.04,1.537a2.761,2.761,0,0,1-.034.519" transform="translate(-44.205 -18.343)" fill="#263238"/>
            <path id="Trazado_227708" data-name="Trazado 227708" d="M164.349,66.742a24.165,24.165,0,0,1-4.1.175,24.163,24.163,0,0,1-4.1-.175,24.162,24.162,0,0,1,4.1-.175,24.163,24.163,0,0,1,4.1.175" transform="translate(-50.948 -21.721)" fill="#263238"/>
            <rect id="Rectángulo_49923" data-name="Rectángulo 49923" width="1.53" height="6.613" transform="translate(161.894 58.933)" fill="#263238"/>
            <path id="Trazado_227709" data-name="Trazado 227709" d="M249.947,91.884v2.91h-1.474V92.111c0-.822-.377-1.2-1.029-1.2-.709,0-1.219.435-1.219,1.37v2.513h-1.473V89.711h1.407v.6a2.225,2.225,0,0,1,1.682-.67,1.992,1.992,0,0,1,2.107,2.248" transform="translate(-79.861 -29.248)" fill="#263238"/>
            <path id="Trazado_227710" data-name="Trazado 227710" d="M257.427,94.04a2.1,2.1,0,0,1-1.2.321,1.676,1.676,0,0,1-1.9-1.824V90.45h-.784V89.317h.784V88.079H255.8v1.238h1.266V90.45H255.8v2.07a.592.592,0,0,0,.633.67A.99.99,0,0,0,257.03,93Z" transform="translate(-82.731 -28.74)" fill="#263238"/>
            <path id="Trazado_227711" data-name="Trazado 227711" d="M265.071,92.668h-3.845a1.356,1.356,0,0,0,1.455,1.02,1.723,1.723,0,0,0,1.275-.491l.784.85a2.968,2.968,0,0,1-5-1.795,2.587,2.587,0,0,1,2.711-2.617,2.516,2.516,0,0,1,2.646,2.636c0,.113-.019.274-.029.4m-3.864-.86h2.5a1.269,1.269,0,0,0-2.5,0" transform="translate(-84.753 -29.248)" fill="#263238"/>
            <path id="Trazado_227712" data-name="Trazado 227712" d="M272.309,89.636V91c-.123-.009-.218-.019-.331-.019a1.248,1.248,0,0,0-1.351,1.417v2.4h-1.474V89.711h1.408v.67a2.05,2.05,0,0,1,1.748-.746" transform="translate(-87.824 -29.248)" fill="#263238"/>
            <path id="Trazado_227713" data-name="Trazado 227713" d="M280.338,91.884v2.91h-1.474V92.111c0-.822-.378-1.2-1.029-1.2-.708,0-1.219.435-1.219,1.37v2.513h-1.473V89.711h1.407v.6a2.225,2.225,0,0,1,1.682-.67,1.992,1.992,0,0,1,2.107,2.248" transform="translate(-89.778 -29.248)" fill="#263238"/>
            <path id="Trazado_227714" data-name="Trazado 227714" d="M289.684,92.668h-3.845a1.356,1.356,0,0,0,1.455,1.02,1.723,1.723,0,0,0,1.275-.491l.784.85a2.968,2.968,0,0,1-5-1.795,2.587,2.587,0,0,1,2.711-2.617,2.516,2.516,0,0,1,2.646,2.636c0,.113-.019.274-.029.4m-3.864-.86h2.5a1.269,1.269,0,0,0-2.5,0" transform="translate(-92.784 -29.248)" fill="#263238"/>
            <path id="Trazado_227715" data-name="Trazado 227715" d="M296.752,94.04a2.1,2.1,0,0,1-1.2.321,1.676,1.676,0,0,1-1.9-1.824V90.45h-.784V89.317h.784V88.079h1.474v1.238h1.266V90.45h-1.266v2.07a.593.593,0,0,0,.633.67.99.99,0,0,0,.595-.189Z" transform="translate(-95.562 -28.74)" fill="#263238"/>
            <path id="Trazado_227716" data-name="Trazado 227716" d="M304.1,87.476h2.787a3.316,3.316,0,1,1,0,6.613H304.1Zm2.731,5.791a2.492,2.492,0,1,0,0-4.969h-1.785v4.969Z" transform="translate(-99.228 -28.543)" fill="#263238"/>
            <path id="Trazado_227717" data-name="Trazado 227717" d="M319.27,91.82v3.023h-.86v-.661a1.859,1.859,0,0,1-1.644.717c-1.134,0-1.851-.6-1.851-1.473,0-.8.519-1.464,2.012-1.464h1.436v-.18c0-.765-.444-1.209-1.341-1.209a2.535,2.535,0,0,0-1.587.538l-.378-.68a3.336,3.336,0,0,1,2.069-.643c1.37,0,2.145.662,2.145,2.031m-.907,1.493v-.7h-1.4c-.9,0-1.153.35-1.153.775,0,.5.416.812,1.1.812a1.452,1.452,0,0,0,1.446-.888" transform="translate(-102.756 -29.298)" fill="#263238"/>
            <path id="Trazado_227718" data-name="Trazado 227718" d="M327.65,89.86l-2.428,5.508c-.444,1.058-1.02,1.389-1.785,1.389a1.879,1.879,0,0,1-1.285-.463l.387-.68a1.279,1.279,0,0,0,.9.369c.435,0,.709-.2.954-.775l.16-.35-2.21-5h.945l1.748,4.006,1.729-4.006Z" transform="translate(-105.117 -29.321)" fill="#263238"/>
          </g>
        </g>
        <g id="Grupo_114642" data-name="Grupo 114642">
          <g id="Grupo_114641" data-name="Grupo 114641" clip-path="url(#clip-path)">
            <path id="Trazado_227719" data-name="Trazado 227719" d="M395.726,179.392s-8.483,2.293-10.073,8.694c-2.512,10.118-10.2,39.969-10.2,39.969l-8.109,6.564,5.171,8.576s9.04-2.972,12.818-7.829,7.63-23,7.63-23Z" transform="translate(-119.865 -58.535)" fill="#455a64"/>
            <path id="Trazado_227720" data-name="Trazado 227720" d="M415.428,109.789c2-2.311,7.085-2.092,8.324-.633a3.874,3.874,0,0,1,5.109,1.564l5.427,1.052a5.624,5.624,0,0,1,2.617.984,1.935,1.935,0,0,1,.515,2.511,2.935,2.935,0,0,1,1.348,4.664,2.046,2.046,0,0,1-.233,2.968,20.517,20.517,0,0,1,3.622,5.93,4.174,4.174,0,0,1,.338,2.839,1.665,1.665,0,0,1-2.306,1.027,2.4,2.4,0,0,1,.174,2.584c.914,0,1.219,1.407.608,2.085a3.333,3.333,0,0,1-2.543.773,4.4,4.4,0,0,0-2.643.516.832.832,0,0,0,.312.573,3.757,3.757,0,0,1,.96,5.1c-.105.155-.2.3-.29.427a8.225,8.225,0,0,1-2.609,1.927c-2.04,1.126-3.275.952-5.572,1.34.664,1.472-3,4.855-7.365,1.72a82.664,82.664,0,0,1-23.493,3.755c-1.263.034-2.786-.1-3.373-1.22a3.137,3.137,0,0,1-2.909-.877,9.24,9.24,0,0,1-1.758-2.63,5.5,5.5,0,0,1-4.08-4.865,6.8,6.8,0,0,1-2.681-4.777,3.992,3.992,0,0,1-2.417-5.334,24.083,24.083,0,0,1,2.45-7.517c-1.456-.279-2.047-2.219-1.484-3.59a7.6,7.6,0,0,1,3.092-3.1c-1.076.314-2.052-1.023-1.82-2.12a4.277,4.277,0,0,1,2.142-2.472,20.37,20.37,0,0,1,4.44-2.109c.47-1.919,2.854-4.147,4.619-5.035,7.119-3.578,12.143-4.56,21.48,1.942" transform="translate(-124.051 -34.27)" fill="#263238"/>
            <path id="Trazado_227721" data-name="Trazado 227721" d="M429.708,125.221a2.922,2.922,0,0,0-2.528-3.036L411.8,117.827c-4.947-.666-8.42,5.349-8.876,10.32-.506,5.522-.906,12.284-.369,16.431a10.721,10.721,0,0,0,8.5,9.507c0-.011-.125,6.022-.125,6.022l-.2,7.006c2.367-.333,17.56-7.6,17.56-7.6Z" transform="translate(-131.269 -38.43)" fill="#ffbe9d"/>
            <path id="Trazado_227722" data-name="Trazado 227722" d="M414.028,147.07a7.615,7.615,0,0,0-1.851-.389c-.291-.038-.567-.1-.61-.305a1.491,1.491,0,0,1,.22-.862l.928-2.2a38.329,38.329,0,0,0,2.109-5.77,38.364,38.364,0,0,0-2.568,5.587l-.893,2.217a1.7,1.7,0,0,0-.185,1.144.735.735,0,0,0,.469.441,1.949,1.949,0,0,0,.5.083,7.438,7.438,0,0,0,1.886.057" transform="translate(-134.151 -44.879)" fill="#263238"/>
            <path id="Trazado_227723" data-name="Trazado 227723" d="M415.266,170.422s4.487.588,10.114-2.58c0,0-1.514,6.145-10.174,5.45Z" transform="translate(-135.48 -54.766)" fill="#eb996e"/>
            <path id="Trazado_227724" data-name="Trazado 227724" d="M420.967,132.245c.1.315,1.252.2,2.591.4,1.343.173,2.416.6,2.6.323.084-.131-.1-.43-.527-.744a4.56,4.56,0,0,0-3.957-.552c-.5.185-.755.423-.71.572" transform="translate(-137.358 -42.891)" fill="#263238"/>
            <path id="Trazado_227725" data-name="Trazado 227725" d="M406.008,132.077c.194.266.991.018,1.94.032.949-.019,1.748.225,1.94-.042.085-.13-.034-.394-.379-.65a2.809,2.809,0,0,0-3.127.007c-.343.258-.461.523-.375.652" transform="translate(-132.47 -42.727)" fill="#263238"/>
            <path id="Trazado_227726" data-name="Trazado 227726" d="M397.783,130.609a5.7,5.7,0,0,1,1.318-3.595,21.059,21.059,0,0,0,1.514-1.51c.914-1.242.755-2.942,1.126-4.438a6.272,6.272,0,0,1,3.814-4.279c1.547-.581,3.313-.534,4.76-1.333,1.07-.591,1.876-1.6,2.978-2.124,2.148-1.025,4.677.045,6.742,1.23.432,1.617-.573,3.038-1.541,4.4a5.8,5.8,0,0,1-4.23,2.394c-1.295.1-2.813-.169-3.709.77-.943.988-.543,2.7-1.313,3.824-1.1,1.612-3.672,1.048-5.34,2.06-1.289.782-1.81,2.348-2.444,3.715s-1.743,2.8-3.249,2.755a17,17,0,0,1-.426-3.874" transform="translate(-129.793 -36.845)" fill="#263238"/>
            <path id="Trazado_227727" data-name="Trazado 227727" d="M426.088,119.815a29.42,29.42,0,0,1,11.144,1.826A5.351,5.351,0,0,1,440,123.485a5.25,5.25,0,0,1,.625,2.868c.013,3.108-1.176,6.932-2.315,9.825l-3.844,2.386c-3-.659-1.711-5.841-1.607-8.429a6.108,6.108,0,0,1-3.654-5.336,6.759,6.759,0,0,1-3.117-4.983" transform="translate(-139.031 -39.091)" fill="#263238"/>
            <path id="Trazado_227728" data-name="Trazado 227728" d="M438.555,145.154c.089-1.779,2.266-2.159,3.808-1.268.846.49,1.494,1.473,1.416,3.362-.208,5.037-5.221,3.788-5.225,3.644,0-.09-.1-3.656,0-5.739" transform="translate(-143.084 -46.798)" fill="#ffbe9d"/>
            <path id="Trazado_227729" data-name="Trazado 227729" d="M440.975,149.861c.023-.015.086.065.231.139a.877.877,0,0,0,.655.04,2.172,2.172,0,0,0,1.085-1.907,2.889,2.889,0,0,0-.193-1.266,1.014,1.014,0,0,0-.632-.7.448.448,0,0,0-.528.22c-.073.138-.045.24-.072.247s-.105-.089-.056-.3a.558.558,0,0,1,.212-.307.662.662,0,0,1,.49-.108,1.232,1.232,0,0,1,.884.819,2.976,2.976,0,0,1,.247,1.417,2.278,2.278,0,0,1-1.37,2.121.941.941,0,0,1-.8-.166c-.151-.131-.172-.245-.155-.253" transform="translate(-143.887 -47.611)" fill="#eb996e"/>
            <path id="Trazado_227730" data-name="Trazado 227730" d="M436.894,143.269a.3.3,0,0,0,.016.067.71.71,0,0,0,.071.191,1.163,1.163,0,0,0,.592.513,3.08,3.08,0,0,0,1.248.24,4.17,4.17,0,0,0,.807-.065,2.963,2.963,0,0,0,.876-.28l-.061-.03a2.5,2.5,0,0,0,4.011,1.527l-.086-.013a1.037,1.037,0,0,0,.667.429,1.432,1.432,0,0,0,.814-.081,1.317,1.317,0,0,0,.647-.543,1.749,1.749,0,0,0,.242-.833,2.57,2.57,0,0,0-.575-1.669,7.55,7.55,0,0,0-1.347-1.271l-.007.117a1.776,1.776,0,0,0,.779-1.205,2.585,2.585,0,0,0-.167-1.482,3.983,3.983,0,0,0-.9-1.241,11.98,11.98,0,0,0-1.207-.99l.01.114a1.888,1.888,0,0,0,.472-1.468,2.722,2.722,0,0,0-.592-1.486,6.735,6.735,0,0,0-2.481-1.674l.042.086a3.342,3.342,0,0,0-3.7-4.067l.079.085a2.882,2.882,0,0,0-.719-2.438,2.843,2.843,0,0,0-2.142-1.011l.064.063a2.828,2.828,0,0,0-1.177-2.176,2.763,2.763,0,0,0-2.113-.547l.058.048a2.773,2.773,0,0,0-.429-1.284,3.561,3.561,0,0,0-.779-.912,2.891,2.891,0,0,0-1.733-.715l-.189-.01c-.061,0-.121.011-.177.017a2.5,2.5,0,0,0-.318.042,3.515,3.515,0,0,0-.479.143l-.278.125a.569.569,0,0,0-.092.046.61.61,0,0,0,.1-.034l.282-.111a3.813,3.813,0,0,1,.477-.129,2.513,2.513,0,0,1,.314-.034c.056,0,.114-.012.174-.013l.185.013a2.847,2.847,0,0,1,1.685.721,3.492,3.492,0,0,1,.753.9,2.7,2.7,0,0,1,.406,1.24l0,.058.056-.01a2.665,2.665,0,0,1,2.027.541,2.711,2.711,0,0,1,1.119,2.086v.063h.063a2.714,2.714,0,0,1,2.039.974,2.747,2.747,0,0,1,.681,2.32l-.02.1.1-.013a3.2,3.2,0,0,1,3.528,3.892l-.014.059.055.026a6.617,6.617,0,0,1,2.427,1.632,2.577,2.577,0,0,1,.559,1.4,1.735,1.735,0,0,1-.43,1.351l-.06.062.07.051a5.931,5.931,0,0,1,2.062,2.168,2.438,2.438,0,0,1,.16,1.4,1.629,1.629,0,0,1-.711,1.112l-.087.053.08.063a7.468,7.468,0,0,1,1.326,1.243,2.441,2.441,0,0,1,.553,1.581,1.352,1.352,0,0,1-.805,1.265,1.107,1.107,0,0,1-1.335-.3l-.035-.054-.051.04a2.437,2.437,0,0,1-2.532.281,2.469,2.469,0,0,1-1.325-1.729l-.01-.056-.051.027a2.9,2.9,0,0,1-.85.281,4.166,4.166,0,0,1-.793.073A3.089,3.089,0,0,1,437.59,144a1.16,1.16,0,0,1-.589-.484c-.083-.154-.1-.249-.106-.246" transform="translate(-139.213 -38.913)" fill="#455a64"/>
            <path id="Trazado_227731" data-name="Trazado 227731" d="M456.513,136.208a1.726,1.726,0,0,0,.185-.307,2.575,2.575,0,0,0,.25-1,2.536,2.536,0,0,0-.437-1.572,2.674,2.674,0,0,0-1.843-1.13l.044.06a3.45,3.45,0,0,0-.5-2.477,3.368,3.368,0,0,0-1-1.03,7.91,7.91,0,0,0-1.386-.626,2.777,2.777,0,0,1-.666-.381,1.711,1.711,0,0,1-.47-.612c-.232-.479-.313-1.048-.6-1.563A3.059,3.059,0,0,0,447,124.1l.088.084a4.032,4.032,0,0,0-4.541-4.5l.086.082a3.541,3.541,0,0,0-5.559-3.219l.081.007a4.834,4.834,0,0,0-1.775-1.044,7.279,7.279,0,0,0-1.813-.385,8.439,8.439,0,0,0-2.98.251,6.011,6.011,0,0,0-1.76.765,3.491,3.491,0,0,0-.4.3c-.088.072-.131.113-.131.113s.186-.147.556-.385a6.227,6.227,0,0,1,1.758-.726,8.476,8.476,0,0,1,2.952-.218,7.2,7.2,0,0,1,1.783.391,4.748,4.748,0,0,1,1.726,1.026l.038.037.044-.03a3.4,3.4,0,0,1,5.336,3.1l-.008.094.093-.013a3.885,3.885,0,0,1,4.371,4.329l-.013.1.1-.018a2.916,2.916,0,0,1,2.938,1.393c.277.481.36,1.046.6,1.552a1.852,1.852,0,0,0,.509.657,2.877,2.877,0,0,0,.7.4,7.965,7.965,0,0,1,1.37.609,3.26,3.26,0,0,1,.971.988,3.35,3.35,0,0,1,.5,2.393l-.009.053.053.007a2.594,2.594,0,0,1,1.789,1.075,2.491,2.491,0,0,1,.448,1.525,2.669,2.669,0,0,1-.221.991c-.1.213-.166.315-.159.319" transform="translate(-139.749 -37.553)" fill="#455a64"/>
            <path id="Trazado_227732" data-name="Trazado 227732" d="M397.164,138.581a.494.494,0,0,0,.012-.413.972.972,0,0,0-.3-.412,1.715,1.715,0,0,0-.627-.3,2.941,2.941,0,0,1-.791-.315,1.566,1.566,0,0,1-.58-.8,3.07,3.07,0,0,1-.146-1.149c.011-.416.069-.857.061-1.327a13.49,13.49,0,0,0-.689-2.964,4.183,4.183,0,0,1-.1-1.654,2.015,2.015,0,0,1,.889-1.43,7.516,7.516,0,0,1,1.754-.627,3.067,3.067,0,0,0,.9-.435,2.032,2.032,0,0,0,.623-.806,9.819,9.819,0,0,0,.5-1.99A3.341,3.341,0,0,1,399,123a1.532,1.532,0,0,1,.731-.662,5.6,5.6,0,0,1,1.389-.214,2.2,2.2,0,0,0,.7-.189,1.384,1.384,0,0,0,.548-.479,4.9,4.9,0,0,0,.506-1.294,3.09,3.09,0,0,1,.612-1.147,3.036,3.036,0,0,1,2.174-1.084,3.117,3.117,0,0,1,2.149.738l.068.059.036-.083a4.8,4.8,0,0,1,2.945-2.629,4.424,4.424,0,0,1,1.68-.173,4.01,4.01,0,0,1,1.389.362,3.537,3.537,0,0,1,1.492,1.327,3.4,3.4,0,0,1,.257.47l.062.123a.186.186,0,0,0,.024.04.179.179,0,0,0-.015-.044l-.053-.128a2.954,2.954,0,0,0-.242-.482,3.512,3.512,0,0,0-1.494-1.375,4.082,4.082,0,0,0-1.414-.385,4.5,4.5,0,0,0-1.719.163,4.895,4.895,0,0,0-3.035,2.681l.1-.024a3.246,3.246,0,0,0-2.241-.779,3.175,3.175,0,0,0-2.281,1.13,3.246,3.246,0,0,0-.643,1.2,4.814,4.814,0,0,1-.488,1.254,1.472,1.472,0,0,1-1.145.6,5.666,5.666,0,0,0-1.428.223,1.7,1.7,0,0,0-.806.729,3.483,3.483,0,0,0-.348,1,9.722,9.722,0,0,1-.484,1.96,1.88,1.88,0,0,1-.577.751,2.879,2.879,0,0,1-.85.414,7.6,7.6,0,0,0-1.785.647,1.932,1.932,0,0,0-.648.672,2.541,2.541,0,0,0-.3.856,4.3,4.3,0,0,0,.1,1.706,13.608,13.608,0,0,1,.7,2.937c.011.46-.042.9-.05,1.322a3.142,3.142,0,0,0,.162,1.181,1.632,1.632,0,0,0,.62.83,2.957,2.957,0,0,0,.815.311,1.68,1.68,0,0,1,.615.281.966.966,0,0,1,.3.387.617.617,0,0,1,.016.4" transform="translate(-128.506 -37.761)" fill="#455a64"/>
            <path id="Trazado_227733" data-name="Trazado 227733" d="M384.086,129.179a.513.513,0,0,0,.051-.095l.133-.284.5-1.1c.22-.476.465-1.071.819-1.723a4.486,4.486,0,0,1,1.655-1.835c.4-.228.872-.381,1.341-.6a3.2,3.2,0,0,0,.68-.414,1.731,1.731,0,0,0,.5-.666c.23-.526.227-1.118.409-1.661a1.423,1.423,0,0,1,.473-.7,2.721,2.721,0,0,1,.8-.388,5.2,5.2,0,0,0,.885-.355,1.624,1.624,0,0,0,.676-.724,7.377,7.377,0,0,0,.4-1.959,2.416,2.416,0,0,1,.319-.929,1.256,1.256,0,0,1,.79-.539c.66-.149,1.375.07,2.109-.058a1.777,1.777,0,0,0,.96-.529,4.585,4.585,0,0,0,.612-.876,9.343,9.343,0,0,1,.538-.877,1.938,1.938,0,0,1,.729-.645,2.957,2.957,0,0,1,1.9-.015,4.439,4.439,0,0,0,1.914.134,5.1,5.1,0,0,0,1.651-.785,8.676,8.676,0,0,1,1.467-.847,5.2,5.2,0,0,1,2.985-.146,5.568,5.568,0,0,1,2.231,1.1,6.215,6.215,0,0,1,1.245,1.424,7.076,7.076,0,0,1,.54,1.074c.051.121.091.217.121.29a.569.569,0,0,0,.046.1.5.5,0,0,0-.032-.1c-.027-.074-.063-.172-.107-.3a6.489,6.489,0,0,0-.519-1.093,6.164,6.164,0,0,0-1.241-1.459,5.621,5.621,0,0,0-2.26-1.142,5.29,5.29,0,0,0-3.057.132,8.673,8.673,0,0,0-1.494.852,5.006,5.006,0,0,1-1.607.76,4.317,4.317,0,0,1-1.854-.139,6.356,6.356,0,0,0-.982-.154,1.92,1.92,0,0,0-1.8.869,9.637,9.637,0,0,0-.548.891,4.444,4.444,0,0,1-.591.846,1.619,1.619,0,0,1-.878.485c-.684.125-1.4-.1-2.115.06a1.409,1.409,0,0,0-.881.6,2.561,2.561,0,0,0-.341.988,7.357,7.357,0,0,1-.381,1.921,1.474,1.474,0,0,1-.616.662,5.077,5.077,0,0,1-.86.348,2.8,2.8,0,0,0-.841.412,1.56,1.56,0,0,0-.516.761c-.186.575-.182,1.16-.4,1.655a2.06,2.06,0,0,1-1.117,1.022c-.458.217-.929.375-1.343.612a4.552,4.552,0,0,0-1.677,1.888c-.351.662-.587,1.26-.8,1.74l-.475,1.112c-.05.122-.09.218-.12.29a.589.589,0,0,0-.036.1" transform="translate(-125.326 -35.991)" fill="#455a64"/>
            <path id="Trazado_227734" data-name="Trazado 227734" d="M390.979,130.368a.4.4,0,0,0-.092-.014.564.564,0,0,0-.267.063,1.08,1.08,0,0,0-.486.9,2.635,2.635,0,0,0,.12.751,3.1,3.1,0,0,1,.144.869,1.945,1.945,0,0,1-.339.935c-.19.307-.435.608-.629.973a1.446,1.446,0,0,0-.1,1.269c.168.426.485.779.645,1.213a1.88,1.88,0,0,1-.115,1.387c-.188.464-.461.914-.645,1.428a2.272,2.272,0,0,0-.148.82,2.043,2.043,0,0,0,.2.83,9.752,9.752,0,0,0,.981,1.419,2.314,2.314,0,0,1,.558,1.585,7.656,7.656,0,0,1-.581,1.709,2.616,2.616,0,0,0-.172.928,2.078,2.078,0,0,0,.251.9,7.726,7.726,0,0,0,1.109,1.406,4.082,4.082,0,0,1,.9,1.41,12.442,12.442,0,0,0,.548,1.558,1.828,1.828,0,0,0,.522.628,2.315,2.315,0,0,0,.717.331,6.116,6.116,0,0,1,.7.237,2.5,2.5,0,0,1,.588.386,5.128,5.128,0,0,1,.842,1.064c.238.371.458.736.7,1.062a3.447,3.447,0,0,0,1.775,1.261,3.7,3.7,0,0,0,1.647.13,3.282,3.282,0,0,0,1-.31,2.462,2.462,0,0,0,.313-.187,3.829,3.829,0,0,1-1.319.438,3.7,3.7,0,0,1-1.613-.153,3.37,3.37,0,0,1-1.713-1.244c-.24-.323-.455-.686-.692-1.061a5.206,5.206,0,0,0-.857-1.094,2.627,2.627,0,0,0-.619-.411,6.306,6.306,0,0,0-.715-.247,2.19,2.19,0,0,1-.676-.314,1.682,1.682,0,0,1-.479-.583,12.566,12.566,0,0,1-.536-1.542,4.222,4.222,0,0,0-.928-1.46,7.626,7.626,0,0,1-1.086-1.376,1.924,1.924,0,0,1-.233-.835,2.473,2.473,0,0,1,.163-.872,7.62,7.62,0,0,0,.588-1.744,1.923,1.923,0,0,0-.139-.912,3.7,3.7,0,0,0-.449-.776,9.81,9.81,0,0,1-.97-1.394,1.909,1.909,0,0,1-.193-.77,2.12,2.12,0,0,1,.137-.77c.174-.5.444-.947.636-1.424a2,2,0,0,0,.109-1.481c-.177-.463-.5-.812-.654-1.213a1.329,1.329,0,0,1,.091-1.175c.184-.352.424-.657.616-.971a2.024,2.024,0,0,0,.342-.984,3.126,3.126,0,0,0-.16-.891,2.646,2.646,0,0,1-.131-.729,1.056,1.056,0,0,1,.441-.876.653.653,0,0,1,.344-.076" transform="translate(-126.95 -42.534)" fill="#455a64"/>
            <path id="Trazado_227735" data-name="Trazado 227735" d="M457.618,133.749a1.859,1.859,0,0,0,.4-.046,2.733,2.733,0,0,0,1.053-.472,2.683,2.683,0,0,0,1.038-1.5,2.828,2.828,0,0,0-.447-2.369,7.1,7.1,0,0,0-1.022-1.019,3.4,3.4,0,0,1-.96-1.182,2.217,2.217,0,0,1,.053-1.6c.185-.543.471-1.074.646-1.674a4.937,4.937,0,0,0-3.813-6.228l.047.117a2.505,2.505,0,0,0,.42-1.106,3.153,3.153,0,0,0-.094-1.2,3.456,3.456,0,0,0-.522-1.1,4.108,4.108,0,0,0-.867-.872,7.794,7.794,0,0,0-3.331-1.288,11.791,11.791,0,0,0-3.387-.094l.082.069a3.577,3.577,0,0,0-2.07-3.065,3.649,3.649,0,0,0-1.773-.313,5.9,5.9,0,0,0-1.645.461,3.321,3.321,0,0,1-.773.191,2.047,2.047,0,0,1-.759-.068,6.2,6.2,0,0,1-1.342-.628,5.4,5.4,0,0,0-1.281-.563,4.378,4.378,0,0,0-1.275-.151,4.246,4.246,0,0,0-2.082.6,4.361,4.361,0,0,0-1.208,1.081,4.173,4.173,0,0,0-.516.874,2.23,2.23,0,0,0-.121.329c.007,0,.044-.112.143-.319a4.437,4.437,0,0,1,.532-.854,4.372,4.372,0,0,1,1.206-1.05,4.185,4.185,0,0,1,2.047-.571,4.289,4.289,0,0,1,1.244.156,5.352,5.352,0,0,1,1.254.561,6.267,6.267,0,0,0,1.365.646,2.161,2.161,0,0,0,.8.075,3.433,3.433,0,0,0,.8-.194,5.806,5.806,0,0,1,1.613-.448,3.52,3.52,0,0,1,1.706.307,3.438,3.438,0,0,1,1.979,2.945l0,.079.078-.009a11.663,11.663,0,0,1,3.344.1,7.663,7.663,0,0,1,3.265,1.261,3.96,3.96,0,0,1,.835.839,3.3,3.3,0,0,1,.5,1.05,3,3,0,0,1,.09,1.137,2.364,2.364,0,0,1-.391,1.039l-.066.095.113.022a4.8,4.8,0,0,1,3.715,6.044c-.168.583-.451,1.115-.638,1.67a2.337,2.337,0,0,0-.043,1.684,3.486,3.486,0,0,0,1,1.219,7.053,7.053,0,0,1,1.015,1,2.751,2.751,0,0,1,.452,2.292,2.643,2.643,0,0,1-1,1.476,2.822,2.822,0,0,1-1.027.488c-.255.059-.393.064-.392.072" transform="translate(-140.982 -35.257)" fill="#263238"/>
            <path id="Trazado_227736" data-name="Trazado 227736" d="M389.193,118.264a.469.469,0,0,0,.013-.1c.006-.072.013-.165.023-.283.02-.259.048-.623.084-1.088s.1-1.05.216-1.711a9.739,9.739,0,0,1,.632-2.182,6.447,6.447,0,0,1,1.569-2.23,4.754,4.754,0,0,1,1.278-.816,13.71,13.71,0,0,1,1.558-.476,4.563,4.563,0,0,0,1.576-.728,7.22,7.22,0,0,0,1.263-1.3c.383-.477.746-.98,1.173-1.436a5.133,5.133,0,0,1,1.494-1.139,9.089,9.089,0,0,1,3.624-.831,23.679,23.679,0,0,1,3.5.088,17.943,17.943,0,0,1,5.715,1.5,12.7,12.7,0,0,1,3.32,2.2c.17.164.327.3.454.435l.309.341.193.208a.432.432,0,0,0,.07.068.494.494,0,0,0-.058-.077l-.182-.219-.3-.352c-.123-.135-.278-.279-.446-.447a12.392,12.392,0,0,0-3.315-2.258,17.823,17.823,0,0,0-5.747-1.541,23.484,23.484,0,0,0-3.525-.1,9.2,9.2,0,0,0-3.686.844,5.278,5.278,0,0,0-1.535,1.172c-.434.466-.8.972-1.178,1.446a7.092,7.092,0,0,1-1.233,1.273,4.441,4.441,0,0,1-1.528.71,13.532,13.532,0,0,0-1.571.487,4.874,4.874,0,0,0-1.311.845,6.533,6.533,0,0,0-1.584,2.281,9.663,9.663,0,0,0-.616,2.21c-.11.667-.159,1.247-.191,1.72s-.046.842-.055,1.092c0,.118-.005.212-.007.284a.46.46,0,0,0,0,.1" transform="translate(-126.991 -33.862)" fill="#263238"/>
            <path id="Trazado_227737" data-name="Trazado 227737" d="M418.516,154.215l-3.676,1.418-.349.134a7.7,7.7,0,0,0,.728,1.835,1.977,1.977,0,0,0,1.38.941,2.219,2.219,0,0,0,1.323-.353,2.646,2.646,0,0,0,1.118-1.831,2.8,2.8,0,0,0-.525-2.144" transform="translate(-135.247 -50.32)" fill="#eb996e"/>
            <path id="Trazado_227738" data-name="Trazado 227738" d="M416.374,158.5a2.846,2.846,0,0,0,1.41-.375,2.358,2.358,0,0,0,.944-1.214,2.922,2.922,0,0,0,0-1.889,3.618,3.618,0,0,0-.192-.472.676.676,0,0,0-.106-.177c-.038-.028-.022-.027-.079-.017l-.893.357-1.543.6a7.2,7.2,0,0,1-1.455.479,7.215,7.215,0,0,1,1.367-.689l1.517-.666c.294-.124.571-.249.918-.385a.386.386,0,0,1,.393.092.934.934,0,0,1,.17.262,3.723,3.723,0,0,1,.211.515,3.121,3.121,0,0,1-.026,2.092,2.5,2.5,0,0,1-1.106,1.306,2.124,2.124,0,0,1-1.117.274c-.273-.013-.413-.077-.409-.1" transform="translate(-135.236 -50.259)" fill="#263238"/>
            <path id="Trazado_227739" data-name="Trazado 227739" d="M443.44,153.419a2.617,2.617,0,0,1,.761.423,3.407,3.407,0,0,1,1.254,1.989,3.607,3.607,0,0,1-.012,1.653,4.056,4.056,0,0,1-.894,1.672,4.136,4.136,0,0,1-1.73,1.178,3.8,3.8,0,0,1-2.243.086,4.09,4.09,0,0,1-1.938-1.138,3.682,3.682,0,0,1-.947-1.868,3.91,3.91,0,0,1,.935-3.327,3.5,3.5,0,0,1,1.132-.758,3.542,3.542,0,0,1,.989-.276,2.138,2.138,0,0,1,.649.012.725.725,0,0,1,.216.065,2.763,2.763,0,0,0-.854,0,3.637,3.637,0,0,0-.955.3,3.47,3.47,0,0,0-1.077.753,3.793,3.793,0,0,0-.86,3.2,3.519,3.519,0,0,0,.908,1.77,3.925,3.925,0,0,0,1.85,1.081,3.625,3.625,0,0,0,2.132-.077,3.98,3.98,0,0,0,1.661-1.118,3.927,3.927,0,0,0,.872-1.594,3.5,3.5,0,0,0,.034-1.583,3.4,3.4,0,0,0-1.168-1.96,7.8,7.8,0,0,0-.713-.482" transform="translate(-142.797 -49.935)" fill="#e0e0e0"/>
            <path id="Trazado_227740" data-name="Trazado 227740" d="M423.476,143.04a1.092,1.092,0,0,0,1.023,1.13,1.046,1.046,0,0,0,1.153-.955,1.094,1.094,0,0,0-1.023-1.131,1.045,1.045,0,0,0-1.153.956" transform="translate(-138.178 -46.36)" fill="#263238"/>
            <path id="Trazado_227741" data-name="Trazado 227741" d="M407.306,142.211a1.093,1.093,0,0,0,1.024,1.13,1.046,1.046,0,0,0,1.153-.955,1.094,1.094,0,0,0-1.023-1.131,1.046,1.046,0,0,0-1.153.956" transform="translate(-132.902 -46.09)" fill="#263238"/>
            <path id="Trazado_227742" data-name="Trazado 227742" d="M405.153,137.99c.128.193,1.109-.5,2.386-.377,1.278.1,2.134.949,2.292.78.077-.074-.039-.413-.41-.8a2.9,2.9,0,0,0-3.734-.323c-.429.314-.6.628-.533.715" transform="translate(-132.196 -44.618)" fill="#263238"/>
            <path id="Trazado_227743" data-name="Trazado 227743" d="M421.549,138.761c.159.176,1.119-.6,2.485-.608,1.366-.031,2.372.712,2.52.531.072-.08-.088-.4-.528-.735a3.312,3.312,0,0,0-2.018-.645,3.222,3.222,0,0,0-1.977.705c-.418.35-.56.672-.482.751" transform="translate(-137.544 -44.802)" fill="#263238"/>
            <path id="Trazado_227744" data-name="Trazado 227744" d="M364.3,392.676l7.12,17.279,12.866-5.308-7.221-21.319Z" transform="translate(-118.87 -125.079)" fill="#ffbe9d"/>
            <path id="Trazado_227745" data-name="Trazado 227745" d="M369.323,417.9l4.209,8.906s-12.2,11.612-11.215,14.361l28.051-12.046-6.831-17.8Z" transform="translate(-118.205 -134.213)" fill="#455a64"/>
            <path id="Trazado_227746" data-name="Trazado 227746" d="M390.6,426.962a1.247,1.247,0,0,1,1.353.967,1.2,1.2,0,0,1-.947,1.349,1.315,1.315,0,0,1-1.428-1.031,1.243,1.243,0,0,1,1.141-1.295" transform="translate(-127.116 -139.312)" fill="#e0e0e0"/>
            <g id="Grupo_114637" data-name="Grupo 114637" transform="translate(243.965 292.666)" opacity="0.6">
              <g id="Grupo_114636" data-name="Grupo 114636">
                <g id="Grupo_114635" data-name="Grupo 114635" clip-path="url(#clip-path-12)">
                  <path id="Trazado_227747" data-name="Trazado 227747" d="M390.324,436.653l-1.053-2.239L362.77,446.8s-1.015,1.079-.5,1.9Z" transform="translate(-362.126 -434.414)" fill="#fff"/>
                </g>
              </g>
            </g>
            <path id="Trazado_227748" data-name="Trazado 227748" d="M378.223,434.139c.063.135.775-.1,1.638.054.867.129,1.469.573,1.572.464.115-.081-.441-.812-1.49-.976s-1.8.345-1.721.458" transform="translate(-123.411 -141.497)" fill="#263238"/>
            <path id="Trazado_227749" data-name="Trazado 227749" d="M374.633,437.958c.026.146.719.124,1.433.5.725.358,1.112.934,1.245.87.138-.034-.111-.876-1.009-1.331s-1.723-.174-1.669-.042" transform="translate(-122.241 -142.836)" fill="#263238"/>
            <path id="Trazado_227750" data-name="Trazado 227750" d="M373.384,443.41c.137-.024.034-.79-.64-1.39s-1.443-.623-1.452-.483c-.029.146.56.37,1.106.87s.844,1.048.986,1" transform="translate(-121.151 -144.049)" fill="#263238"/>
            <path id="Trazado_227751" data-name="Trazado 227751" d="M376.477,428.685c.111.1.658-.358,1.455-.639.791-.3,1.505-.294,1.526-.443.037-.133-.769-.387-1.7-.044s-1.391,1.048-1.278,1.126" transform="translate(-122.838 -139.455)" fill="#263238"/>
            <path id="Trazado_227752" data-name="Trazado 227752" d="M354.44,370.6l-17.285-53.783s.829-8.786,2.566-11.5,51.534-16.894,51.534-16.894,12.638-2.493,20.854.865,16.538,7.429,15.464,13.243a15.554,15.554,0,0,1-.75,2.6,21.278,21.278,0,0,1-20.239,13.605l-6.522.457-33.375,4.946a2.542,2.542,0,0,0-2.091,3.145l9.218,36.081s-11.922,5.216-19.372,7.232" transform="translate(-110.013 -93.823)" fill="#263238"/>
            <path id="Trazado_227753" data-name="Trazado 227753" d="M338.932,354.068l-1.24,18.647,13.888.916,2.932-22.317Z" transform="translate(-110.188 -114.633)" fill="#ffbe9d"/>
            <path id="Trazado_227754" data-name="Trazado 227754" d="M329.408,379.392l-1.016,10.632s-16.075,5.033-16.4,7.936l30.488,1.575L344.2,380.55Z" transform="translate(-101.801 -123.794)" fill="#455a64"/>
            <path id="Trazado_227755" data-name="Trazado 227755" d="M335.253,384.782a1.089,1.089,0,0,1,.041-.544,3.394,3.394,0,0,1,.671-1.361,2.007,2.007,0,0,1,.383-.385.751.751,0,0,1,.693-.11.467.467,0,0,1,.292.286.533.533,0,0,1-.029.369,3.657,3.657,0,0,1-.344.544c-.253.35-.465.7-.786,1.093a.919.919,0,0,1-.829.3,1.851,1.851,0,0,1-.776-.346,6.6,6.6,0,0,1-1.118-1.006,6.368,6.368,0,0,1-.435-.552,1.694,1.694,0,0,1-.317-.627.564.564,0,0,1,.376-.654.842.842,0,0,1,.728.18,4.238,4.238,0,0,1,.741.819,5.073,5.073,0,0,1,.7,1.351,1.253,1.253,0,0,1,.111.536,10.269,10.269,0,0,0-1.026-1.76,4.439,4.439,0,0,0-.714-.735.531.531,0,0,0-.432-.121.281.281,0,0,0-.156.338,1.489,1.489,0,0,0,.28.507,6.166,6.166,0,0,0,.42.52,6.514,6.514,0,0,0,1.064.948,1.5,1.5,0,0,0,.607.282.537.537,0,0,0,.5-.184c.267-.32.527-.718.775-1.048a3.7,3.7,0,0,0,.327-.484c.068-.153.038-.255-.081-.3-.274-.115-.556.156-.755.388a4.914,4.914,0,0,0-.918,1.765" transform="translate(-108.555 -124.567)" fill="#263238"/>
            <path id="Trazado_227756" data-name="Trazado 227756" d="M349.684,393.9a1.246,1.246,0,0,1,.788,1.465,1.2,1.2,0,0,1-1.446.793,1.315,1.315,0,0,1-.826-1.556,1.244,1.244,0,0,1,1.6-.659" transform="translate(-113.597 -128.507)" fill="#e0e0e0"/>
            <g id="Grupo_114640" data-name="Grupo 114640" transform="translate(210.183 272.68)" opacity="0.6">
              <g id="Grupo_114639" data-name="Grupo 114639">
                <g id="Grupo_114638" data-name="Grupo 114638" clip-path="url(#clip-path-13)">
                  <path id="Trazado_227757" data-name="Trazado 227757" d="M342.474,407.807l.044-2.474-29.247-.585s-1.388.52-1.284,1.484Z" transform="translate(-311.981 -404.748)" fill="#fff"/>
                </g>
              </g>
            </g>
            <path id="Trazado_227758" data-name="Trazado 227758" d="M335.616,394.849c0,.149.738.255,1.446.771.722.5,1.066,1.163,1.206,1.111.139-.022-.038-.924-.905-1.533s-1.772-.487-1.746-.349" transform="translate(-109.51 -128.8)" fill="#263238"/>
            <path id="Trazado_227759" data-name="Trazado 227759" d="M330.767,396.6c-.042.142.59.429,1.063,1.085.492.642.585,1.329.734,1.331.139.03.286-.836-.317-1.64s-1.469-.916-1.479-.775" transform="translate(-107.928 -129.391)" fill="#263238"/>
            <path id="Trazado_227760" data-name="Trazado 227760" d="M327.265,400.892c.133.038.379-.695.039-1.529s-1.02-1.2-1.089-1.075c-.091.118.339.579.608,1.269.284.683.3,1.313.442,1.335" transform="translate(-106.439 -129.953)" fill="#263238"/>
            <path id="Trazado_227761" data-name="Trazado 227761" d="M336.288,389.367c.055.139.749-.031,1.587.069.841.084,1.481.4,1.565.276.092-.1-.519-.687-1.508-.792s-1.711.325-1.644.446" transform="translate(-109.728 -126.898)" fill="#263238"/>
            <path id="Trazado_227762" data-name="Trazado 227762" d="M346.544,278.939s-8.3-1.011-9.6,7.987-7.39,50.7-7.39,50.7l22.824,2.859,4.8-42.974,31.6-11.919s-36.62-7.585-42.23-6.657" transform="translate(-107.531 -90.991)" fill="#263238"/>
            <path id="Trazado_227763" data-name="Trazado 227763" d="M404.138,262.991s-5.643,13.962-4.746,15.582,13.626,8.658,13.626,8.658l32.008,13.842a27.282,27.282,0,0,0,3.9-13.338c.339-8.163-10.366-23.316-10.366-23.316Z" transform="translate(-130.289 -85.813)" fill="#263238"/>
            <path id="Trazado_227764" data-name="Trazado 227764" d="M392,287.88a.754.754,0,0,1-.156.075l-.471.195-1.835.727-6.883,2.665-23.759,9.08.111-.144c-.472,4.245-.982,8.83-1.509,13.573l-3.321,29.4-.017.147-.146-.019-14.128-1.833L336,341.215l-1.016-.148a2.108,2.108,0,0,1-.346-.065,2.176,2.176,0,0,1,.351.022l1.021.106,3.9.449,14.144,1.708-.162.128c.894-8.091,2.023-18.315,3.248-29.406l1.523-13.571.012-.106.1-.038,23.805-8.959,6.92-2.569,1.855-.673.482-.166a.729.729,0,0,1,.167-.047" transform="translate(-109.192 -93.934)" fill="#455a64"/>
            <path id="Trazado_227765" data-name="Trazado 227765" d="M446.845,289.436a4.772,4.772,0,0,1-.9-.287l-2.417-.891a53.438,53.438,0,0,0-8.11-2.411,24.037,24.037,0,0,0-8.4-.241,34.008,34.008,0,0,0-3.4.835,4.051,4.051,0,0,1,.864-.393,15.048,15.048,0,0,1,2.495-.695,22.552,22.552,0,0,1,8.509.136,45.573,45.573,0,0,1,8.133,2.528c1.011.406,1.82.753,2.377,1a4.7,4.7,0,0,1,.85.418" transform="translate(-138.225 -92.999)" fill="#455a64"/>
            <path id="Trazado_227766" data-name="Trazado 227766" d="M442.789,280.016a23.911,23.911,0,0,0-2.843-.134c-.878.025-1.926.116-3.092.2s-2.443.193-3.77.387a17.44,17.44,0,0,0-6.472,2.1,19.666,19.666,0,0,0-2.284,1.689,2.47,2.47,0,0,1,.5-.592,9.756,9.756,0,0,1,1.652-1.316,16.32,16.32,0,0,1,6.553-2.24c1.344-.2,2.632-.291,3.8-.362s2.221-.133,3.112-.125a11.758,11.758,0,0,1,2.1.181,2.451,2.451,0,0,1,.745.21" transform="translate(-138.457 -91.24)" fill="#455a64"/>
            <path id="Trazado_227767" data-name="Trazado 227767" d="M373.666,425.126a1.345,1.345,0,0,1-.229-.564,4.041,4.041,0,0,1-.063-1.663,2.144,2.144,0,0,1,.155-.557.7.7,0,0,1,.567-.42.492.492,0,0,1,.4.157.657.657,0,0,1,.154.383,4.2,4.2,0,0,1-.042.7c-.056.464-.075.909-.171,1.446a.879.879,0,0,1-.6.666,1.748,1.748,0,0,1-.863,0,6.812,6.812,0,0,1-1.492-.509,6.906,6.906,0,0,1-.658-.36,1.966,1.966,0,0,1-.59-.486.648.648,0,0,1,.018-.822.774.774,0,0,1,.739-.145,4.563,4.563,0,0,1,1.063.49,5.893,5.893,0,0,1,1.289,1.042c.263.289.377.474.36.488a11.727,11.727,0,0,0-1.777-1.306,4.666,4.666,0,0,0-1-.418.489.489,0,0,0-.445.071.327.327,0,0,0,.024.408,1.709,1.709,0,0,0,.5.383,6.861,6.861,0,0,0,.629.334,6.769,6.769,0,0,0,1.416.476,1.424,1.424,0,0,0,.68.011.513.513,0,0,0,.361-.409c.083-.44.122-.955.183-1.4a4.316,4.316,0,0,0,.057-.631c-.014-.184-.09-.272-.221-.268-.3.007-.421.4-.486.724a5.832,5.832,0,0,0,.039,2.179" transform="translate(-120.762 -137.671)" fill="#263238"/>
            <path id="Trazado_227768" data-name="Trazado 227768" d="M439.676,187.04s.09-5.229-.42-5.846l-10.707-3.734-7.713,2.309c-1.81.795-5.278,5.954-7.237,5.686-2.186-.3-2.6-6.05-3.5-7.708l-3.947,1.014s-6.763,17.956-6.848,23.039,2.585,11.933,2.142,22.591c-.231,5.571-.773,10.547,2.693,10.691l34.422,1.428s7.863-1.827,8.4-6.485-7.282-42.986-7.282-42.986" transform="translate(-130.291 -57.905)" fill="#455a64"/>
            <path id="Trazado_227769" data-name="Trazado 227769" d="M460.073,224.048l-5.394-17.068s-3.245-21.655-10.781-24.657c-3.226-1.285-10.279-1.061-12.42,3.317s.5,7.572,1.019,9.735,7.816,17.338,7.816,17.338a74.06,74.06,0,0,1,3.581,8.542l-29.132,15.422,3.672,9.606,36.422-13.253a8.194,8.194,0,0,0,5.15-5.4,6.772,6.772,0,0,0,.066-3.585" transform="translate(-135.336 -59.268)" fill="#455a64"/>
            <path id="Trazado_227770" data-name="Trazado 227770" d="M381.343,270.061l7.494-3.21,14.387-.542,1.2-.763,3.1,8.116s-3.833,1.642-5.809,1.72l-12.041-.866-6.331.4Z" transform="translate(-124.431 -86.647)" fill="#ffbe9d"/>
            <path id="Trazado_227771" data-name="Trazado 227771" d="M320.36,227.689l41.324,2.051a2.6,2.6,0,0,1,2.741,2.087l3.267,30.317,21.292.883a1.242,1.242,0,1,1-.1,2.483l-20.92-.868-3.971-.165-43.114-1.789L317.549,230.7a2.715,2.715,0,0,1,2.811-3.007" transform="translate(-103.61 -74.293)" fill="#e0e0e0"/>
            <path id="Trazado_227772" data-name="Trazado 227772" d="M320.338,227.685a2.206,2.206,0,0,0-.654.034A2.738,2.738,0,0,0,317.5,230a7.651,7.651,0,0,0,.082,1.706c.123,1.225.263,2.636.422,4.221.647,6.354,1.581,15.512,2.728,26.771l.011.11.111,0,65.974,2.777,1.776.073a1.72,1.72,0,0,0,.947-.139,1.41,1.41,0,0,0,.1-2.463,1.721,1.721,0,0,0-.924-.214l-.874-.036-6.91-.286-13.256-.546.154.143c-1.178-10.857-2.278-20.986-3.264-30.073a2.338,2.338,0,0,0-.7-1.605,3.076,3.076,0,0,0-1.552-.763,13.74,13.74,0,0,0-1.665-.128l-1.622-.078-6.222-.3-11.057-.529-15.742-.734-4.213-.183-1.087-.04c-.245-.007-.37,0-.37,0s.124.015.368.032l1.087.068,4.209.236,15.738.829,11.055.568,6.221.318,1.622.082a13.47,13.47,0,0,1,1.624.127,2.806,2.806,0,0,1,1.415.7,2.058,2.058,0,0,1,.614,1.44c.973,9.088,2.057,19.217,3.219,30.077l.015.138.139.006,13.256.554,6.91.288.874.036a1.387,1.387,0,0,1,.765.166,1.076,1.076,0,0,1-.073,1.88,1.386,1.386,0,0,1-.782.1l-1.776-.074-65.977-2.7.121.115c-1.194-11.254-2.166-20.408-2.84-26.76-.171-1.584-.323-2.993-.455-4.217a7.626,7.626,0,0,1-.1-1.682,2.644,2.644,0,0,1,.533-1.265,2.7,2.7,0,0,1,1.571-.99,5.365,5.365,0,0,1,.647-.071" transform="translate(-103.588 -74.29)" fill="#263238"/>
            <path id="Trazado_227773" data-name="Trazado 227773" d="M352.581,253.157a2.59,2.59,0,1,1-2.481-2.7,2.59,2.59,0,0,1,2.481,2.7" transform="translate(-113.356 -81.724)" fill="#fff"/>
            <path id="Trazado_227774" data-name="Trazado 227774" d="M387.31,265.273c-.059.007-1.056-7.719-2.227-17.256s-2.074-17.276-2.015-17.283,1.056,7.718,2.228,17.257,2.073,17.274,2.014,17.282" transform="translate(-124.993 -75.288)" fill="#263238"/>
            <path id="Trazado_227775" data-name="Trazado 227775" d="M451.792,241.658a.772.772,0,0,1-.157.072l-.472.187-1.84.7-6.918,2.568-24.02,8.807-.154.057-.059-.153-3.679-9.6-.055-.144.136-.072,5.759-3.051,23.383-12.351-.069.191-7.1-17.445-1.965-4.9-.507-1.294c-.051-.137-.092-.246-.124-.333a.061.061,0,1,1,.022-.009l.146.325q.2.458.548,1.276l2.042,4.863,7.213,17.4.053.127-.122.065L420.5,241.333l-5.761,3.048.081-.216,3.665,9.609-.212-.1,24.063-8.689,6.951-2.479,1.858-.647.482-.16a.766.766,0,0,1,.166-.045" transform="translate(-135.23 -66.819)" fill="#263238"/>
            <path id="Trazado_227776" data-name="Trazado 227776" d="M431.726,171.391l-11,5.07-2.837,6.349-.43-6.485-3.319-2.638-1.77,2.531,3.2,9.17,5.053.21,12.172-9.785.408-.216Z" transform="translate(-134.556 -55.924)" fill="#455a64"/>
            <path id="Trazado_227777" data-name="Trazado 227777" d="M412.37,178.555a13.154,13.154,0,0,1,.885,1.923c.519,1.192,1.171,2.9,2.008,4.669l.062.117-.309.018c.773-1.779,1.3-3.478,1.723-4.68a13.2,13.2,0,0,1,.721-1.94,11.3,11.3,0,0,1-.486,2.014,40.345,40.345,0,0,1-1.638,4.752l-.142.329-.168-.311-.071-.132c-.864-1.831-1.464-3.518-1.929-4.744a12.1,12.1,0,0,1-.654-2.014" transform="translate(-134.553 -58.262)" fill="#263238"/>
            <path id="Trazado_227778" data-name="Trazado 227778" d="M437.245,177.633a4.056,4.056,0,0,1-.669.542l-1.9,1.369c-1.612,1.143-3.851,2.7-6.338,4.407l-2.95,2.011-.24.164-.02-.288c-.142-2.138-.253-3.972-.317-5.272-.025-.6-.045-1.1-.063-1.521a2.092,2.092,0,0,1,.015-.548,2.025,2.025,0,0,1,.094.54c.043.414.095.916.158,1.513.123,1.3.277,3.126.443,5.263l-.259-.125,2.939-2.027c2.486-1.7,4.748-3.232,6.4-4.322l1.961-1.277a4.064,4.064,0,0,1,.746-.429" transform="translate(-138.593 -57.961)" fill="#263238"/>
            <path id="Trazado_227779" data-name="Trazado 227779" d="M401.091,239.647a1.358,1.358,0,0,1-.15-.292,4.54,4.54,0,0,1-.254-.914,22.221,22.221,0,0,1-.309-3.517c-.041-1.5,0-3.317.089-5.354.077-2.043.164-4.312.256-6.741l.045.122a15.489,15.489,0,0,1-3.1-5,15.281,15.281,0,0,1-.99-4.511,18.9,18.9,0,0,1,.272-4.289,62.045,62.045,0,0,1,1.839-7,45.8,45.8,0,0,0,1.186-4.713c.214-1.128.261-1.764.3-1.76a2.262,2.262,0,0,1-.017.463c-.019.3-.057.75-.148,1.32a38.85,38.85,0,0,1-1.083,4.759,66.753,66.753,0,0,0-1.759,6.989,18.818,18.818,0,0,0-.248,4.213,15.1,15.1,0,0,0,.974,4.408,15.318,15.318,0,0,0,3.022,4.9l.049.053,0,.07c-.109,2.429-.212,4.7-.3,6.741-.115,2.036-.176,3.837-.165,5.336a25.543,25.543,0,0,0,.208,3.5,8.23,8.23,0,0,0,.29,1.226" transform="translate(-129.426 -63.848)" fill="#263238"/>
            <path id="Trazado_227780" data-name="Trazado 227780" d="M417.813,237.1a2.636,2.636,0,0,1-.056-.495c-.023-.36-.054-.833-.092-1.423-.075-1.236-.151-3.025-.214-5.237-.129-4.424-.152-10.544.131-17.294s.827-12.848,1.329-17.245c.25-2.2.476-3.976.656-5.2.088-.585.158-1.054.212-1.409a2.65,2.65,0,0,1,.1-.488,2.653,2.653,0,0,1-.028.5c-.036.358-.085.829-.146,1.417-.133,1.269-.318,3.038-.545,5.21-.438,4.4-.937,10.491-1.225,17.234s-.3,12.852-.234,17.274c.043,2.182.078,3.962.1,5.237.011.592.019,1.065.026,1.425a2.648,2.648,0,0,1-.015.5" transform="translate(-136.183 -61.444)" fill="#263238"/>
            <path id="Trazado_227781" data-name="Trazado 227781" d="M451.943,183.088c0,.067-.9-.055-2.312.164a9.912,9.912,0,0,0-8.009,6.837c-.438,1.36-.458,2.264-.525,2.258a1.944,1.944,0,0,1-.011-.632,8.343,8.343,0,0,1,.3-1.7,9.629,9.629,0,0,1,8.212-7.011,8.41,8.41,0,0,1,1.723-.03,1.949,1.949,0,0,1,.622.111" transform="translate(-143.921 -59.695)" fill="#263238"/>
            <path id="Trazado_227782" data-name="Trazado 227782" d="M463.731,242.941a8.856,8.856,0,0,0-5.973-2.466,2.087,2.087,0,0,1,.989-.141,6.414,6.414,0,0,1,4.382,1.81c.439.439.634.772.6.8" transform="translate(-149.365 -78.42)" fill="#263238"/>
            <path id="Trazado_227783" data-name="Trazado 227783" d="M440.718,233.248c.009.022-.158.111-.471.253a10.4,10.4,0,0,1-1.367.494,14.94,14.94,0,0,1-9.453-.384,10.33,10.33,0,0,1-1.322-.6c-.3-.166-.46-.268-.449-.29.027-.054.705.279,1.854.66a16.881,16.881,0,0,0,9.306.378c1.176-.286,1.879-.563,1.9-.507" transform="translate(-139.543 -75.933)" fill="#263238"/>
          </g>
        </g>
      </g>
    </g>
  </g>
</svg>
