<svg xmlns="http://www.w3.org/2000/svg" xmlns:xlink="http://www.w3.org/1999/xlink" width="323" height="375" viewBox="0 0 323 375">
  <defs>
    <clipPath id="clip-path">
      <rect id="Rectángulo_49936" data-name="Rectángulo 49936" width="20.528" height="20.555" fill="#fff"/>
    </clipPath>
    <clipPath id="clip-path-2">
      <rect id="Rectángulo_49938" data-name="Rectángulo 49938" width="11.291" height="21.171" fill="#fff"/>
    </clipPath>
  </defs>
  <g id="Grupo_117826" data-name="Grupo 117826" transform="translate(-844.5 -8628)">
    <rect id="Rectángulo_49939" data-name="Rectángulo 49939" width="323" height="375" rx="23" transform="translate(844.5 8628)" fill="#4dd0e1" opacity="0.11"/>
    <g id="Grupo_114649" data-name="Grupo 114649" transform="translate(-82.5 -4.648)">
      <g id="Rectángulo_49931" data-name="Rectángulo 49931" transform="translate(966 8662.648)" fill="#fff" stroke="#afafaf" stroke-width="1">
        <rect width="244" height="38" rx="19" stroke="none"/>
        <rect x="0.5" y="0.5" width="243" height="37" rx="18.5" fill="none"/>
      </g>
      <g id="Rectángulo_49932" data-name="Rectángulo 49932" transform="translate(966 8711.648)" fill="#fff" stroke="#afafaf" stroke-width="1">
        <rect width="244" height="38" rx="19" stroke="none"/>
        <rect x="0.5" y="0.5" width="243" height="37" rx="18.5" fill="none"/>
      </g>
      <rect id="Rectángulo_49934" data-name="Rectángulo 49934" width="244" height="38" rx="19" transform="translate(966 8800.648)" fill="#4f72de"/>
      <rect id="Rectángulo_49935" data-name="Rectángulo 49935" width="244" height="38" rx="19" transform="translate(966 8870.648)" fill="#ea4235"/>
      <rect id="Rectángulo_49937" data-name="Rectángulo 49937" width="244" height="38" rx="19" transform="translate(966 8916.648)" fill="#3b5999"/>
      <path id="Trazado_232442" data-name="Trazado 232442" d="M6.781,10.4H2.468v3.527H7.479V15H1.155V5.047H7.41V6.12H2.468V9.326H6.781ZM10.11,7.6l.041.93a2.7,2.7,0,0,1,2.215-1.066q2.345,0,2.365,2.646V15H13.467V10.105A1.7,1.7,0,0,0,13.1,8.923a1.466,1.466,0,0,0-1.118-.383,1.825,1.825,0,0,0-1.08.328,2.228,2.228,0,0,0-.725.861V15H8.914V7.6Zm8.244-1.791V7.6h1.381v.978H18.354v4.593a1.027,1.027,0,0,0,.185.667.777.777,0,0,0,.629.222,3.062,3.062,0,0,0,.6-.082V15a3.688,3.688,0,0,1-.971.136,1.575,1.575,0,0,1-1.278-.513,2.2,2.2,0,0,1-.431-1.456V8.581H15.743V7.6H17.09V5.813Zm5.927,9.324a3.232,3.232,0,0,1-2.447-.988,3.666,3.666,0,0,1-.943-2.642v-.232a4.438,4.438,0,0,1,.42-1.965,3.28,3.28,0,0,1,1.176-1.354,2.956,2.956,0,0,1,1.637-.489,2.77,2.77,0,0,1,2.242.95,4.114,4.114,0,0,1,.8,2.721v.526H22.155a2.629,2.629,0,0,0,.639,1.767,2.009,2.009,0,0,0,1.555.673,2.2,2.2,0,0,0,1.135-.273,2.851,2.851,0,0,0,.813-.725l.772.6A3.106,3.106,0,0,1,24.281,15.137Zm-.157-6.631a1.687,1.687,0,0,0-1.285.557,2.708,2.708,0,0,0-.643,1.562H25.9v-.1a2.409,2.409,0,0,0-.52-1.494A1.588,1.588,0,0,0,24.124,8.506Zm8.08.232a3.79,3.79,0,0,0-.622-.048,1.667,1.667,0,0,0-1.688,1.06V15H28.629V7.6h1.23l.021.854a1.969,1.969,0,0,1,1.764-.991,1.292,1.292,0,0,1,.561.1ZM46.122,10.4H41.809v3.527h5.011V15H40.5V5.047h6.255V6.12H41.809V9.326h4.313Zm3.322-2.8.034.82a2.732,2.732,0,0,1,2.194-.957,2.115,2.115,0,0,1,2.112,1.189,2.8,2.8,0,0,1,.96-.861,2.837,2.837,0,0,1,1.4-.328q2.434,0,2.475,2.577V15H57.354V10.119a1.7,1.7,0,0,0-.362-1.186,1.6,1.6,0,0,0-1.217-.393,1.677,1.677,0,0,0-1.169.42,1.706,1.706,0,0,0-.54,1.131V15H52.794V10.153A1.411,1.411,0,0,0,51.215,8.54a1.692,1.692,0,0,0-1.7,1.06V15H48.248V7.6ZM65.092,15a2.657,2.657,0,0,1-.178-.779,2.822,2.822,0,0,1-2.105.916,2.611,2.611,0,0,1-1.794-.619,2,2,0,0,1-.7-1.569,2.091,2.091,0,0,1,.878-1.794,4.142,4.142,0,0,1,2.471-.639h1.23V9.935a1.42,1.42,0,0,0-.4-1.056,1.593,1.593,0,0,0-1.169-.393,1.844,1.844,0,0,0-1.135.342,1.007,1.007,0,0,0-.458.827H60.464a1.745,1.745,0,0,1,.393-1.07,2.683,2.683,0,0,1,1.066-.817,3.588,3.588,0,0,1,1.48-.3,2.924,2.924,0,0,1,2,.639,2.306,2.306,0,0,1,.752,1.76v3.4a4.162,4.162,0,0,0,.26,1.62V15Zm-2.1-.964a2.223,2.223,0,0,0,1.128-.308,1.861,1.861,0,0,0,.772-.8V11.411H63.9q-2.324,0-2.324,1.36a1.151,1.151,0,0,0,.4.93A1.524,1.524,0,0,0,62.993,14.036ZM69.515,15H68.25V7.6h1.265ZM68.147,5.642a.755.755,0,0,1,.188-.52.706.706,0,0,1,.557-.212.717.717,0,0,1,.561.212.747.747,0,0,1,.191.52.722.722,0,0,1-.191.513.73.73,0,0,1-.561.205.718.718,0,0,1-.557-.205A.73.73,0,0,1,68.147,5.642ZM72.912,15H71.647V4.5h1.265ZM84.1,12.4h-4.17L78.989,15H77.636l3.8-9.953h1.148L86.393,15H85.046Zm-3.773-1.073h3.384l-1.7-4.655Zm6.9-.082A4.333,4.333,0,0,1,88.033,8.5a2.745,2.745,0,0,1,4.17-.147V4.5h1.265V15H92.306l-.062-.793a2.575,2.575,0,0,1-2.112.93,2.526,2.526,0,0,1-2.1-1.053,4.382,4.382,0,0,1-.81-2.748Zm1.265.144a3.281,3.281,0,0,0,.52,1.969,1.68,1.68,0,0,0,1.436.711,1.845,1.845,0,0,0,1.757-1.08v-3.4A1.859,1.859,0,0,0,90.46,8.54a1.687,1.687,0,0,0-1.449.718A3.612,3.612,0,0,0,88.491,11.384Zm6.631-.144A4.333,4.333,0,0,1,95.929,8.5a2.745,2.745,0,0,1,4.17-.147V4.5h1.265V15H100.2l-.062-.793a2.575,2.575,0,0,1-2.112.93,2.526,2.526,0,0,1-2.1-1.053,4.382,4.382,0,0,1-.81-2.748Zm1.265.144a3.281,3.281,0,0,0,.52,1.969,1.68,1.68,0,0,0,1.436.711,1.845,1.845,0,0,0,1.757-1.08v-3.4A1.859,1.859,0,0,0,98.355,8.54a1.687,1.687,0,0,0-1.449.718A3.612,3.612,0,0,0,96.387,11.384ZM106.9,8.738a3.79,3.79,0,0,0-.622-.048,1.667,1.667,0,0,0-1.688,1.06V15h-1.265V7.6h1.23l.021.854a1.969,1.969,0,0,1,1.764-.991,1.292,1.292,0,0,1,.561.1Zm4.231,6.4a3.232,3.232,0,0,1-2.447-.988,3.666,3.666,0,0,1-.943-2.642v-.232a4.438,4.438,0,0,1,.42-1.965,3.28,3.28,0,0,1,1.176-1.354,2.956,2.956,0,0,1,1.637-.489,2.77,2.77,0,0,1,2.242.95,4.114,4.114,0,0,1,.8,2.721v.526h-5.011a2.629,2.629,0,0,0,.639,1.767,2.009,2.009,0,0,0,1.555.673,2.2,2.2,0,0,0,1.135-.273,2.851,2.851,0,0,0,.813-.725l.772.6A3.106,3.106,0,0,1,111.132,15.137Zm-.157-6.631a1.687,1.687,0,0,0-1.285.557,2.708,2.708,0,0,0-.643,1.562h3.705v-.1a2.409,2.409,0,0,0-.52-1.494A1.588,1.588,0,0,0,110.975,8.506Zm8.812,4.532a.931.931,0,0,0-.386-.8,3.718,3.718,0,0,0-1.347-.489,6.367,6.367,0,0,1-1.524-.492,2.169,2.169,0,0,1-.834-.684,1.635,1.635,0,0,1-.27-.943,1.919,1.919,0,0,1,.769-1.538,3,3,0,0,1,1.965-.629,3.091,3.091,0,0,1,2.041.649,2.063,2.063,0,0,1,.783,1.661h-1.271a1.142,1.142,0,0,0-.441-.9,1.652,1.652,0,0,0-1.111-.376,1.729,1.729,0,0,0-1.08.3.947.947,0,0,0-.39.786.767.767,0,0,0,.362.69,4.458,4.458,0,0,0,1.309.444,6.821,6.821,0,0,1,1.535.506,2.239,2.239,0,0,1,.872.708,1.74,1.74,0,0,1,.284,1.008,1.893,1.893,0,0,1-.793,1.589,3.326,3.326,0,0,1-2.058.6,3.725,3.725,0,0,1-1.572-.314,2.557,2.557,0,0,1-1.07-.878,2.117,2.117,0,0,1-.386-1.22h1.265a1.309,1.309,0,0,0,.509,1.008,1.976,1.976,0,0,0,1.254.373,2.039,2.039,0,0,0,1.152-.291A.893.893,0,0,0,119.786,13.038Zm7.219,0a.931.931,0,0,0-.386-.8,3.718,3.718,0,0,0-1.347-.489,6.367,6.367,0,0,1-1.524-.492,2.169,2.169,0,0,1-.834-.684,1.635,1.635,0,0,1-.27-.943,1.919,1.919,0,0,1,.769-1.538,3,3,0,0,1,1.965-.629,3.091,3.091,0,0,1,2.041.649,2.063,2.063,0,0,1,.783,1.661H126.93a1.142,1.142,0,0,0-.441-.9,1.652,1.652,0,0,0-1.111-.376,1.729,1.729,0,0,0-1.08.3.947.947,0,0,0-.39.786.767.767,0,0,0,.362.69,4.458,4.458,0,0,0,1.309.444,6.821,6.821,0,0,1,1.535.506,2.239,2.239,0,0,1,.872.708,1.74,1.74,0,0,1,.284,1.008,1.893,1.893,0,0,1-.793,1.589,3.326,3.326,0,0,1-2.058.6,3.725,3.725,0,0,1-1.572-.314,2.557,2.557,0,0,1-1.07-.878,2.117,2.117,0,0,1-.386-1.22h1.265a1.309,1.309,0,0,0,.509,1.008,1.976,1.976,0,0,0,1.254.373,2.039,2.039,0,0,0,1.152-.291A.893.893,0,0,0,127,13.038Z" transform="translate(983 8672.148)" fill="#afafaf"/>
      <path id="Trazado_232448" data-name="Trazado 232448" d="M5.221,8.546H1.939V12H.908V4.18H5.752v.843H1.939V7.7H5.221Zm1.235.494A3.433,3.433,0,0,1,6.792,7.5a2.5,2.5,0,0,1,.935-1.053,2.544,2.544,0,0,1,1.367-.371,2.451,2.451,0,0,1,1.92.822,3.162,3.162,0,0,1,.733,2.186v.07a3.462,3.462,0,0,1-.325,1.523,2.467,2.467,0,0,1-.929,1.05,2.573,2.573,0,0,1-1.388.376,2.445,2.445,0,0,1-1.915-.822A3.146,3.146,0,0,1,6.456,9.11Zm1,.118A2.486,2.486,0,0,0,7.9,10.711a1.52,1.52,0,0,0,2.4-.008,2.719,2.719,0,0,0,.446-1.662,2.482,2.482,0,0,0-.454-1.55A1.443,1.443,0,0,0,9.093,6.9a1.427,1.427,0,0,0-1.187.585A2.7,2.7,0,0,0,7.455,9.159ZM15.8,7.08a2.978,2.978,0,0,0-.489-.038,1.309,1.309,0,0,0-1.327.833V12h-.994V6.188h.967l.016.671a1.547,1.547,0,0,1,1.386-.779,1.015,1.015,0,0,1,.44.075Zm.677,1.966a3.416,3.416,0,0,1,.628-2.162,2.166,2.166,0,0,1,3.325-.051l.048-.645h.908V11.86a2.364,2.364,0,0,1-.669,1.778,2.468,2.468,0,0,1-1.8.65,2.989,2.989,0,0,1-1.23-.269,2.117,2.117,0,0,1-.918-.736l.516-.6a1.943,1.943,0,0,0,1.563.79,1.522,1.522,0,0,0,1.131-.408,1.56,1.56,0,0,0,.406-1.149v-.5a2.042,2.042,0,0,1-1.627.688,1.985,1.985,0,0,1-1.652-.822A3.591,3.591,0,0,1,16.479,9.046Zm1,.113a2.606,2.606,0,0,0,.4,1.544,1.309,1.309,0,0,0,1.128.561,1.456,1.456,0,0,0,1.38-.854V7.757a1.473,1.473,0,0,0-1.37-.833,1.321,1.321,0,0,0-1.133.564A2.838,2.838,0,0,0,17.478,9.159Zm5.146-.118A3.433,3.433,0,0,1,22.959,7.5a2.5,2.5,0,0,1,.935-1.053,2.544,2.544,0,0,1,1.367-.371,2.451,2.451,0,0,1,1.92.822,3.162,3.162,0,0,1,.733,2.186v.07a3.462,3.462,0,0,1-.325,1.523,2.467,2.467,0,0,1-.929,1.05,2.573,2.573,0,0,1-1.388.376,2.445,2.445,0,0,1-1.915-.822,3.146,3.146,0,0,1-.733-2.175Zm1,.118a2.486,2.486,0,0,0,.448,1.552,1.52,1.52,0,0,0,2.4-.008,2.719,2.719,0,0,0,.446-1.662,2.482,2.482,0,0,0-.454-1.55A1.443,1.443,0,0,0,25.26,6.9a1.427,1.427,0,0,0-1.187.585A2.7,2.7,0,0,0,23.622,9.159Zm6.886-4.377V6.188h1.085v.768H30.508v3.609a.807.807,0,0,0,.145.524.61.61,0,0,0,.494.175,2.406,2.406,0,0,0,.473-.064V12a2.9,2.9,0,0,1-.763.107,1.237,1.237,0,0,1-1-.4,1.731,1.731,0,0,1-.338-1.144v-3.6H28.456V6.188h1.058V4.781Zm6.155,4.157V12H35.632V4.18h2.884a2.9,2.9,0,0,1,2.011.655,2.222,2.222,0,0,1,.728,1.735,2.192,2.192,0,0,1-.712,1.754,3.027,3.027,0,0,1-2.038.615Zm0-.843h1.853a1.853,1.853,0,0,0,1.268-.39,1.426,1.426,0,0,0,.44-1.127,1.474,1.474,0,0,0-.44-1.119,1.736,1.736,0,0,0-1.208-.436H36.663ZM45.944,12a2.087,2.087,0,0,1-.14-.612,2.217,2.217,0,0,1-1.654.72,2.051,2.051,0,0,1-1.41-.486,1.573,1.573,0,0,1-.551-1.233,1.643,1.643,0,0,1,.69-1.41,3.254,3.254,0,0,1,1.942-.5h.967V8.02a1.116,1.116,0,0,0-.312-.83,1.252,1.252,0,0,0-.918-.309,1.449,1.449,0,0,0-.892.269.791.791,0,0,0-.36.65h-1a1.371,1.371,0,0,1,.309-.841,2.108,2.108,0,0,1,.838-.642,2.819,2.819,0,0,1,1.163-.236,2.3,2.3,0,0,1,1.574.5,1.812,1.812,0,0,1,.591,1.383v2.675a3.27,3.27,0,0,0,.2,1.273V12ZM44.3,11.243A1.746,1.746,0,0,0,45.182,11a1.462,1.462,0,0,0,.607-.628V9.18H45.01q-1.826,0-1.826,1.069a.9.9,0,0,0,.312.73A1.2,1.2,0,0,0,44.3,11.243Zm7.428-.784a.731.731,0,0,0-.3-.626,2.921,2.921,0,0,0-1.058-.384,5,5,0,0,1-1.2-.387,1.7,1.7,0,0,1-.655-.537,1.285,1.285,0,0,1-.212-.741,1.508,1.508,0,0,1,.6-1.208,2.36,2.36,0,0,1,1.544-.494,2.428,2.428,0,0,1,1.6.51A1.621,1.621,0,0,1,52.664,7.9h-1a.9.9,0,0,0-.346-.7,1.3,1.3,0,0,0-.873-.3,1.359,1.359,0,0,0-.849.236.744.744,0,0,0-.306.618.6.6,0,0,0,.285.542,3.5,3.5,0,0,0,1.029.349,5.359,5.359,0,0,1,1.206.4,1.759,1.759,0,0,1,.685.556,1.367,1.367,0,0,1,.223.792,1.487,1.487,0,0,1-.623,1.249,2.613,2.613,0,0,1-1.617.47,2.926,2.926,0,0,1-1.235-.247,2.009,2.009,0,0,1-.841-.69,1.663,1.663,0,0,1-.3-.959h.994a1.029,1.029,0,0,0,.4.792,1.552,1.552,0,0,0,.986.293,1.6,1.6,0,0,0,.905-.228A.7.7,0,0,0,51.724,10.458Zm5.672,0a.731.731,0,0,0-.3-.626,2.921,2.921,0,0,0-1.058-.384,5,5,0,0,1-1.2-.387,1.7,1.7,0,0,1-.655-.537,1.285,1.285,0,0,1-.212-.741,1.508,1.508,0,0,1,.6-1.208,2.36,2.36,0,0,1,1.544-.494,2.428,2.428,0,0,1,1.6.51A1.621,1.621,0,0,1,58.335,7.9h-1a.9.9,0,0,0-.346-.7,1.3,1.3,0,0,0-.873-.3,1.359,1.359,0,0,0-.849.236.744.744,0,0,0-.306.618.6.6,0,0,0,.285.542,3.5,3.5,0,0,0,1.029.349,5.359,5.359,0,0,1,1.206.4,1.759,1.759,0,0,1,.685.556,1.367,1.367,0,0,1,.223.792,1.487,1.487,0,0,1-.623,1.249,2.613,2.613,0,0,1-1.617.47,2.926,2.926,0,0,1-1.235-.247,2.009,2.009,0,0,1-.841-.69,1.663,1.663,0,0,1-.3-.959h.994a1.029,1.029,0,0,0,.4.792,1.552,1.552,0,0,0,.986.293,1.6,1.6,0,0,0,.905-.228A.7.7,0,0,0,57.4,10.458Zm7.434.172,1.117-4.442h.994L65.248,12h-.806L63.03,7.6,61.655,12h-.806L59.163,6.188h.988l1.144,4.351,1.354-4.351h.8Zm2.857-1.59A3.433,3.433,0,0,1,68.022,7.5a2.5,2.5,0,0,1,.935-1.053,2.544,2.544,0,0,1,1.367-.371,2.451,2.451,0,0,1,1.92.822,3.162,3.162,0,0,1,.733,2.186v.07a3.462,3.462,0,0,1-.325,1.523,2.467,2.467,0,0,1-.929,1.05,2.573,2.573,0,0,1-1.388.376,2.445,2.445,0,0,1-1.915-.822,3.146,3.146,0,0,1-.733-2.175Zm1,.118a2.486,2.486,0,0,0,.448,1.552,1.52,1.52,0,0,0,2.4-.008,2.719,2.719,0,0,0,.446-1.662,2.482,2.482,0,0,0-.454-1.55A1.443,1.443,0,0,0,70.324,6.9a1.427,1.427,0,0,0-1.187.585A2.7,2.7,0,0,0,68.686,9.159ZM77.032,7.08a2.978,2.978,0,0,0-.489-.038,1.309,1.309,0,0,0-1.327.833V12h-.994V6.188h.967l.016.671a1.547,1.547,0,0,1,1.386-.779,1.015,1.015,0,0,1,.44.075ZM77.7,9.046a3.4,3.4,0,0,1,.634-2.151,2.156,2.156,0,0,1,3.276-.115V3.75h.994V12h-.913l-.048-.623a2.024,2.024,0,0,1-1.66.73,1.985,1.985,0,0,1-1.646-.827A3.443,3.443,0,0,1,77.7,9.121Zm.994.113a2.578,2.578,0,0,0,.408,1.547,1.32,1.32,0,0,0,1.128.559,1.45,1.45,0,0,0,1.38-.849V7.746a1.461,1.461,0,0,0-1.37-.822,1.326,1.326,0,0,0-1.139.564A2.838,2.838,0,0,0,78.7,9.159Zm6.617.63a3.206,3.206,0,0,1,.145-1.008,2.586,2.586,0,0,1,.548-.821l.7-.724a1.622,1.622,0,0,0,.451-1.093,1.247,1.247,0,0,0-.3-.882,1.114,1.114,0,0,0-.859-.319,1.293,1.293,0,0,0-.881.29.981.981,0,0,0-.333.779H83.8a1.81,1.81,0,0,1,.62-1.4,2.32,2.32,0,0,1,1.587-.534,2.19,2.19,0,0,1,1.582.544,1.973,1.973,0,0,1,.567,1.493,2.7,2.7,0,0,1-.87,1.85l-.585.579a1.8,1.8,0,0,0-.392,1.25ZM85.271,11.5a.592.592,0,0,1,.148-.409.557.557,0,0,1,.438-.165.565.565,0,0,1,.44.165.586.586,0,0,1,.15.409.566.566,0,0,1-.15.4.576.576,0,0,1-.44.16.532.532,0,0,1-.585-.564Z" transform="translate(983 8962.648)" fill="#afafaf"/>
      <path id="Trazado_232449" data-name="Trazado 232449" d="M6.66,9.519a2.877,2.877,0,0,1-.916,1.915,3,3,0,0,1-2.049.674,2.756,2.756,0,0,1-2.221-.994A4,4,0,0,1,.639,8.455V7.7a4.456,4.456,0,0,1,.389-1.917,2.909,2.909,0,0,1,1.1-1.27,3.073,3.073,0,0,1,1.654-.443,2.826,2.826,0,0,1,2,.7A2.912,2.912,0,0,1,6.66,6.693H5.624a2.247,2.247,0,0,0-.583-1.358,1.763,1.763,0,0,0-1.254-.42,1.845,1.845,0,0,0-1.55.731,3.356,3.356,0,0,0-.561,2.08v.758a3.45,3.45,0,0,0,.532,2.027,1.718,1.718,0,0,0,1.488.753,1.984,1.984,0,0,0,1.319-.389,2.161,2.161,0,0,0,.61-1.356ZM10.721,7.08a2.978,2.978,0,0,0-.489-.038,1.309,1.309,0,0,0-1.327.833V12H7.912V6.188h.967l.016.671a1.547,1.547,0,0,1,1.386-.779,1.015,1.015,0,0,1,.44.075Zm3.325,5.027a2.539,2.539,0,0,1-1.923-.776,2.881,2.881,0,0,1-.741-2.076V9.073a3.487,3.487,0,0,1,.33-1.544,2.577,2.577,0,0,1,.924-1.063,2.323,2.323,0,0,1,1.286-.384,2.177,2.177,0,0,1,1.762.747,3.232,3.232,0,0,1,.628,2.138v.414H12.375a2.066,2.066,0,0,0,.5,1.388A1.579,1.579,0,0,0,14.1,11.3a1.731,1.731,0,0,0,.892-.215,2.24,2.24,0,0,0,.639-.569l.607.473A2.44,2.44,0,0,1,14.045,12.107ZM13.922,6.9a1.325,1.325,0,0,0-1.01.438,2.128,2.128,0,0,0-.5,1.227h2.911V8.487a1.893,1.893,0,0,0-.408-1.174A1.248,1.248,0,0,0,13.922,6.9ZM21.049,12a2.087,2.087,0,0,1-.14-.612,2.217,2.217,0,0,1-1.654.72,2.051,2.051,0,0,1-1.41-.486,1.573,1.573,0,0,1-.551-1.233,1.643,1.643,0,0,1,.69-1.41,3.254,3.254,0,0,1,1.942-.5h.967V8.02a1.116,1.116,0,0,0-.312-.83,1.252,1.252,0,0,0-.918-.309,1.449,1.449,0,0,0-.892.269.791.791,0,0,0-.36.65h-1a1.371,1.371,0,0,1,.309-.841,2.108,2.108,0,0,1,.838-.642,2.819,2.819,0,0,1,1.163-.236,2.3,2.3,0,0,1,1.574.5,1.812,1.812,0,0,1,.591,1.383v2.675a3.27,3.27,0,0,0,.2,1.273V12ZM19.4,11.243A1.746,1.746,0,0,0,20.287,11a1.462,1.462,0,0,0,.607-.628V9.18h-.779q-1.826,0-1.826,1.069a.9.9,0,0,0,.312.73A1.2,1.2,0,0,0,19.4,11.243Zm5.393-6.461V6.188h1.085v.768H24.793v3.609a.807.807,0,0,0,.145.524.61.61,0,0,0,.494.175A2.406,2.406,0,0,0,25.9,11.2V12a2.9,2.9,0,0,1-.763.107,1.237,1.237,0,0,1-1-.4,1.731,1.731,0,0,1-.338-1.144v-3.6H22.741V6.188H23.8V4.781Zm4.657,7.326a2.539,2.539,0,0,1-1.923-.776,2.881,2.881,0,0,1-.741-2.076V9.073a3.487,3.487,0,0,1,.33-1.544,2.577,2.577,0,0,1,.924-1.063,2.323,2.323,0,0,1,1.286-.384,2.177,2.177,0,0,1,1.762.747,3.232,3.232,0,0,1,.628,2.138v.414H27.779a2.066,2.066,0,0,0,.5,1.388A1.579,1.579,0,0,0,29.5,11.3a1.731,1.731,0,0,0,.892-.215,2.24,2.24,0,0,0,.639-.569l.607.473A2.44,2.44,0,0,1,29.45,12.107ZM29.326,6.9a1.325,1.325,0,0,0-1.01.438,2.128,2.128,0,0,0-.5,1.227h2.911V8.487a1.893,1.893,0,0,0-.408-1.174A1.248,1.248,0,0,0,29.326,6.9ZM39.177,12a2.087,2.087,0,0,1-.14-.612,2.217,2.217,0,0,1-1.654.72,2.051,2.051,0,0,1-1.41-.486,1.573,1.573,0,0,1-.551-1.233,1.643,1.643,0,0,1,.69-1.41,3.254,3.254,0,0,1,1.942-.5h.967V8.02a1.116,1.116,0,0,0-.312-.83,1.252,1.252,0,0,0-.918-.309,1.449,1.449,0,0,0-.892.269.791.791,0,0,0-.36.65h-1a1.371,1.371,0,0,1,.309-.841,2.108,2.108,0,0,1,.838-.642,2.819,2.819,0,0,1,1.163-.236,2.3,2.3,0,0,1,1.574.5,1.812,1.812,0,0,1,.591,1.383v2.675a3.27,3.27,0,0,0,.2,1.273V12Zm-1.649-.757A1.746,1.746,0,0,0,38.414,11a1.462,1.462,0,0,0,.607-.628V9.18h-.779q-1.826,0-1.826,1.069a.9.9,0,0,0,.312.73A1.2,1.2,0,0,0,37.528,11.243Zm4.984-5.054.032.73a2.118,2.118,0,0,1,1.74-.838q1.842,0,1.858,2.079V12h-.994V8.154a1.338,1.338,0,0,0-.287-.929,1.152,1.152,0,0,0-.878-.3,1.434,1.434,0,0,0-.849.258,1.751,1.751,0,0,0-.569.677V12h-.994V6.188ZM54.839,9.954H51.563L50.827,12H49.763L52.75,4.18h.9L56.644,12H55.585ZM51.874,9.11h2.659L53.2,5.453Zm8,2.186a1.431,1.431,0,0,0,.929-.322,1.134,1.134,0,0,0,.44-.806h.94a1.8,1.8,0,0,1-.344.951,2.264,2.264,0,0,1-.846.72,2.441,2.441,0,0,1-1.12.269,2.394,2.394,0,0,1-1.888-.792,3.155,3.155,0,0,1-.7-2.167V8.981a3.5,3.5,0,0,1,.312-1.509,2.373,2.373,0,0,1,.894-1.026,2.54,2.54,0,0,1,1.378-.365,2.331,2.331,0,0,1,1.625.585,2.092,2.092,0,0,1,.69,1.52h-.94a1.369,1.369,0,0,0-.427-.927,1.328,1.328,0,0,0-.948-.363,1.391,1.391,0,0,0-1.174.545,2.56,2.56,0,0,0-.416,1.576v.188a2.509,2.509,0,0,0,.414,1.547A1.4,1.4,0,0,0,59.872,11.3Zm5.758,0a1.431,1.431,0,0,0,.929-.322,1.134,1.134,0,0,0,.44-.806h.94a1.8,1.8,0,0,1-.344.951,2.264,2.264,0,0,1-.846.72,2.441,2.441,0,0,1-1.12.269,2.394,2.394,0,0,1-1.888-.792,3.155,3.155,0,0,1-.7-2.167V8.981a3.5,3.5,0,0,1,.312-1.509,2.373,2.373,0,0,1,.894-1.026,2.54,2.54,0,0,1,1.378-.365,2.331,2.331,0,0,1,1.625.585,2.092,2.092,0,0,1,.69,1.52H67a1.369,1.369,0,0,0-.427-.927,1.328,1.328,0,0,0-.948-.363,1.391,1.391,0,0,0-1.174.545,2.56,2.56,0,0,0-.416,1.576v.188a2.509,2.509,0,0,0,.414,1.547A1.4,1.4,0,0,0,65.629,11.3Zm3.164-2.256A3.433,3.433,0,0,1,69.129,7.5a2.5,2.5,0,0,1,.935-1.053,2.544,2.544,0,0,1,1.367-.371,2.451,2.451,0,0,1,1.92.822,3.162,3.162,0,0,1,.733,2.186v.07a3.462,3.462,0,0,1-.325,1.523,2.467,2.467,0,0,1-.929,1.05,2.573,2.573,0,0,1-1.388.376,2.445,2.445,0,0,1-1.915-.822,3.146,3.146,0,0,1-.733-2.175Zm1,.118a2.486,2.486,0,0,0,.448,1.552,1.52,1.52,0,0,0,2.4-.008,2.719,2.719,0,0,0,.446-1.662,2.482,2.482,0,0,0-.454-1.55A1.443,1.443,0,0,0,71.43,6.9a1.427,1.427,0,0,0-1.187.585A2.7,2.7,0,0,0,69.792,9.159Zm9.125,2.267a2.111,2.111,0,0,1-1.7.682,1.807,1.807,0,0,1-1.415-.54,2.336,2.336,0,0,1-.491-1.6V6.188H76.3V9.943q0,1.321,1.074,1.321a1.487,1.487,0,0,0,1.515-.849V6.188h.994V12h-.945Zm3.416-5.237.032.73a2.118,2.118,0,0,1,1.74-.838q1.842,0,1.858,2.079V12h-.994V8.154a1.338,1.338,0,0,0-.287-.929,1.152,1.152,0,0,0-.878-.3,1.434,1.434,0,0,0-.849.258,1.751,1.751,0,0,0-.569.677V12h-.994V6.188Zm6.478-1.407V6.188H89.9v.768H88.811v3.609a.807.807,0,0,0,.145.524.61.61,0,0,0,.494.175,2.406,2.406,0,0,0,.473-.064V12a2.9,2.9,0,0,1-.763.107,1.237,1.237,0,0,1-1-.4,1.731,1.731,0,0,1-.338-1.144v-3.6H86.759V6.188h1.058V4.781Zm3.357,5h-.9l-.07-5.6h1.042Zm-1,1.712a.592.592,0,0,1,.148-.409.557.557,0,0,1,.438-.165.565.565,0,0,1,.44.165.586.586,0,0,1,.15.409.566.566,0,0,1-.15.4.576.576,0,0,1-.44.16.532.532,0,0,1-.585-.564Z" transform="translate(1103 8962.648)" fill="#afafaf"/>
      <path id="Trazado_232443" data-name="Trazado 232443" d="M2.468,11.1V15H1.155V5.047H4.826a3.688,3.688,0,0,1,2.56.834,2.827,2.827,0,0,1,.926,2.208,2.79,2.79,0,0,1-.906,2.232,3.853,3.853,0,0,1-2.594.783Zm0-1.073H4.826a2.358,2.358,0,0,0,1.613-.5A1.815,1.815,0,0,0,7,8.1a1.876,1.876,0,0,0-.561-1.424A2.209,2.209,0,0,0,4.9,6.12H2.468ZM14.28,15a2.657,2.657,0,0,1-.178-.779A2.822,2.822,0,0,1,12,15.137a2.611,2.611,0,0,1-1.794-.619,2,2,0,0,1-.7-1.569,2.091,2.091,0,0,1,.878-1.794,4.142,4.142,0,0,1,2.471-.639h1.23V9.935a1.42,1.42,0,0,0-.4-1.056,1.593,1.593,0,0,0-1.169-.393,1.844,1.844,0,0,0-1.135.342,1.007,1.007,0,0,0-.458.827H9.652a1.745,1.745,0,0,1,.393-1.07,2.683,2.683,0,0,1,1.066-.817,3.588,3.588,0,0,1,1.48-.3,2.924,2.924,0,0,1,2,.639,2.306,2.306,0,0,1,.752,1.76v3.4a4.162,4.162,0,0,0,.26,1.62V15Zm-2.1-.964a2.223,2.223,0,0,0,1.128-.308,1.861,1.861,0,0,0,.772-.8V11.411h-.991q-2.324,0-2.324,1.36a1.151,1.151,0,0,0,.4.93A1.524,1.524,0,0,0,12.182,14.036Zm9.454-1a.931.931,0,0,0-.386-.8,3.718,3.718,0,0,0-1.347-.489,6.367,6.367,0,0,1-1.524-.492,2.169,2.169,0,0,1-.834-.684,1.635,1.635,0,0,1-.27-.943A1.919,1.919,0,0,1,18.043,8.1a3,3,0,0,1,1.965-.629,3.091,3.091,0,0,1,2.041.649,2.063,2.063,0,0,1,.783,1.661H21.561a1.142,1.142,0,0,0-.441-.9,1.652,1.652,0,0,0-1.111-.376,1.729,1.729,0,0,0-1.08.3.947.947,0,0,0-.39.786.767.767,0,0,0,.362.69,4.458,4.458,0,0,0,1.309.444,6.821,6.821,0,0,1,1.535.506,2.239,2.239,0,0,1,.872.708,1.74,1.74,0,0,1,.284,1.008,1.893,1.893,0,0,1-.793,1.589,3.326,3.326,0,0,1-2.058.6,3.725,3.725,0,0,1-1.572-.314,2.557,2.557,0,0,1-1.07-.878,2.117,2.117,0,0,1-.386-1.22h1.265a1.309,1.309,0,0,0,.509,1.008,1.976,1.976,0,0,0,1.254.373,2.039,2.039,0,0,0,1.152-.291A.893.893,0,0,0,21.636,13.038Zm7.219,0a.931.931,0,0,0-.386-.8,3.718,3.718,0,0,0-1.347-.489,6.367,6.367,0,0,1-1.524-.492,2.169,2.169,0,0,1-.834-.684,1.635,1.635,0,0,1-.27-.943A1.919,1.919,0,0,1,25.262,8.1a3,3,0,0,1,1.965-.629,3.091,3.091,0,0,1,2.041.649,2.063,2.063,0,0,1,.783,1.661H28.779a1.142,1.142,0,0,0-.441-.9,1.652,1.652,0,0,0-1.111-.376,1.729,1.729,0,0,0-1.08.3.947.947,0,0,0-.39.786.767.767,0,0,0,.362.69,4.458,4.458,0,0,0,1.309.444,6.821,6.821,0,0,1,1.535.506,2.239,2.239,0,0,1,.872.708,1.74,1.74,0,0,1,.284,1.008,1.893,1.893,0,0,1-.793,1.589,3.326,3.326,0,0,1-2.058.6,3.725,3.725,0,0,1-1.572-.314,2.557,2.557,0,0,1-1.07-.878,2.117,2.117,0,0,1-.386-1.22H25.5a1.309,1.309,0,0,0,.509,1.008,1.976,1.976,0,0,0,1.254.373,2.039,2.039,0,0,0,1.152-.291A.893.893,0,0,0,28.854,13.038Zm9.461.219L39.737,7.6H41L38.849,15H37.823l-1.8-5.605L34.275,15H33.25L31.1,7.6h1.258l1.456,5.537L35.54,7.6h1.019Zm3.637-2.023a4.369,4.369,0,0,1,.427-1.955,3.187,3.187,0,0,1,1.189-1.34,3.238,3.238,0,0,1,1.74-.472,3.119,3.119,0,0,1,2.444,1.046,4.024,4.024,0,0,1,.933,2.782v.089a4.407,4.407,0,0,1-.414,1.938,3.14,3.14,0,0,1-1.183,1.336,3.275,3.275,0,0,1-1.767.479,3.111,3.111,0,0,1-2.437-1.046,4,4,0,0,1-.933-2.769Zm1.271.15a3.164,3.164,0,0,0,.571,1.976,1.934,1.934,0,0,0,3.059-.01,3.46,3.46,0,0,0,.567-2.116,3.159,3.159,0,0,0-.578-1.972,1.836,1.836,0,0,0-1.535-.755,1.816,1.816,0,0,0-1.511.745A3.435,3.435,0,0,0,43.224,11.384ZM53.847,8.738a3.79,3.79,0,0,0-.622-.048,1.667,1.667,0,0,0-1.688,1.06V15H50.271V7.6H51.5l.021.854a1.969,1.969,0,0,1,1.764-.991,1.292,1.292,0,0,1,.561.1Zm.854,2.5A4.333,4.333,0,0,1,55.508,8.5a2.745,2.745,0,0,1,4.17-.147V4.5h1.265V15H59.78l-.062-.793a2.575,2.575,0,0,1-2.112.93,2.526,2.526,0,0,1-2.1-1.053,4.382,4.382,0,0,1-.81-2.748Zm1.265.144a3.281,3.281,0,0,0,.52,1.969,1.68,1.68,0,0,0,1.436.711,1.845,1.845,0,0,0,1.757-1.08v-3.4A1.859,1.859,0,0,0,57.935,8.54a1.687,1.687,0,0,0-1.449.718A3.612,3.612,0,0,0,55.966,11.384Z" transform="translate(983 8721.148)" fill="#afafaf"/>
      <path id="Trazado_232445" data-name="Trazado 232445" d="M94.728,13.927h4.717V15H93.408V5.047h1.319Zm5.681-2.693a4.369,4.369,0,0,1,.427-1.955,3.187,3.187,0,0,1,1.189-1.34,3.238,3.238,0,0,1,1.74-.472,3.119,3.119,0,0,1,2.444,1.046,4.024,4.024,0,0,1,.933,2.782v.089a4.407,4.407,0,0,1-.414,1.938,3.14,3.14,0,0,1-1.183,1.336,3.275,3.275,0,0,1-1.767.479,3.111,3.111,0,0,1-2.437-1.046,4,4,0,0,1-.933-2.769Zm1.271.15a3.164,3.164,0,0,0,.571,1.976,1.934,1.934,0,0,0,3.059-.01,3.46,3.46,0,0,0,.567-2.116,3.159,3.159,0,0,0-.578-1.972,1.836,1.836,0,0,0-1.535-.755,1.816,1.816,0,0,0-1.511.745A3.435,3.435,0,0,0,101.68,11.384Zm6.747-.144a4.347,4.347,0,0,1,.8-2.751,2.757,2.757,0,0,1,4.231-.065l.062-.82h1.155v7.219a3.009,3.009,0,0,1-.851,2.263,3.141,3.141,0,0,1-2.287.827,3.8,3.8,0,0,1-1.565-.342,2.7,2.7,0,0,1-1.169-.937l.656-.759a2.473,2.473,0,0,0,1.989,1,1.938,1.938,0,0,0,1.439-.52A1.986,1.986,0,0,0,113.4,14.9v-.636a2.6,2.6,0,0,1-2.071.875,2.527,2.527,0,0,1-2.1-1.046A4.571,4.571,0,0,1,108.427,11.24Zm1.271.144a3.316,3.316,0,0,0,.513,1.965,1.666,1.666,0,0,0,1.436.714,1.852,1.852,0,0,0,1.757-1.087V9.6a1.874,1.874,0,0,0-1.743-1.06,1.681,1.681,0,0,0-1.442.718A3.612,3.612,0,0,0,109.7,11.384ZM117.956,15h-1.265V7.6h1.265Zm-1.367-9.358a.755.755,0,0,1,.188-.52.706.706,0,0,1,.557-.212.717.717,0,0,1,.561.212.747.747,0,0,1,.191.52.722.722,0,0,1-.191.513.73.73,0,0,1-.561.205.718.718,0,0,1-.557-.205A.73.73,0,0,1,116.589,5.642ZM121.176,7.6l.041.93a2.7,2.7,0,0,1,2.215-1.066q2.345,0,2.365,2.646V15h-1.265V10.105a1.7,1.7,0,0,0-.366-1.183,1.466,1.466,0,0,0-1.118-.383,1.825,1.825,0,0,0-1.08.328,2.228,2.228,0,0,0-.725.861V15h-1.265V7.6Z" transform="translate(983 8810.148)" fill="#fff"/>
      <path id="Trazado_232446" data-name="Trazado 232446" d="M11.574,13.927h4.717V15H10.254V5.047h1.319Zm5.681-2.693a4.369,4.369,0,0,1,.427-1.955,3.187,3.187,0,0,1,1.189-1.34,3.238,3.238,0,0,1,1.74-.472,3.119,3.119,0,0,1,2.444,1.046,4.024,4.024,0,0,1,.933,2.782v.089a4.407,4.407,0,0,1-.414,1.938,3.14,3.14,0,0,1-1.183,1.336,3.275,3.275,0,0,1-1.767.479,3.111,3.111,0,0,1-2.437-1.046,4,4,0,0,1-.933-2.769Zm1.271.15a3.164,3.164,0,0,0,.571,1.976,1.934,1.934,0,0,0,3.059-.01,3.46,3.46,0,0,0,.567-2.116,3.159,3.159,0,0,0-.578-1.972,1.836,1.836,0,0,0-1.535-.755,1.816,1.816,0,0,0-1.511.745A3.435,3.435,0,0,0,18.526,11.384Zm6.747-.144a4.347,4.347,0,0,1,.8-2.751A2.757,2.757,0,0,1,30.3,8.424l.062-.82h1.155v7.219a3.009,3.009,0,0,1-.851,2.263,3.141,3.141,0,0,1-2.287.827,3.8,3.8,0,0,1-1.565-.342,2.7,2.7,0,0,1-1.169-.937l.656-.759a2.473,2.473,0,0,0,1.989,1,1.938,1.938,0,0,0,1.439-.52A1.986,1.986,0,0,0,30.25,14.9v-.636a2.6,2.6,0,0,1-2.071.875,2.527,2.527,0,0,1-2.1-1.046A4.571,4.571,0,0,1,25.273,11.24Zm1.271.144a3.316,3.316,0,0,0,.513,1.965,1.666,1.666,0,0,0,1.436.714,1.852,1.852,0,0,0,1.757-1.087V9.6a1.874,1.874,0,0,0-1.743-1.06,1.681,1.681,0,0,0-1.442.718A3.612,3.612,0,0,0,26.544,11.384ZM34.8,15H33.538V7.6H34.8ZM33.435,5.642a.755.755,0,0,1,.188-.52.706.706,0,0,1,.557-.212.717.717,0,0,1,.561.212.747.747,0,0,1,.191.52.722.722,0,0,1-.191.513.73.73,0,0,1-.561.205.718.718,0,0,1-.557-.205A.73.73,0,0,1,33.435,5.642ZM38.022,7.6l.041.93a2.7,2.7,0,0,1,2.215-1.066q2.345,0,2.365,2.646V15H41.378V10.105a1.7,1.7,0,0,0-.366-1.183A1.466,1.466,0,0,0,39.9,8.54a1.825,1.825,0,0,0-1.08.328,2.228,2.228,0,0,0-.725.861V15H36.826V7.6Zm16.543,5.653L55.987,7.6h1.265L55.1,15H54.073l-1.8-5.605L50.525,15H49.5L47.353,7.6h1.258l1.456,5.537L51.79,7.6h1.019ZM59.911,15H58.646V7.6h1.265ZM58.543,5.642a.755.755,0,0,1,.188-.52.706.706,0,0,1,.557-.212.717.717,0,0,1,.561.212.747.747,0,0,1,.191.52.722.722,0,0,1-.191.513.73.73,0,0,1-.561.205.718.718,0,0,1-.557-.205A.73.73,0,0,1,58.543,5.642Zm5.106.171V7.6h1.381v.978H63.65v4.593a1.027,1.027,0,0,0,.185.667.777.777,0,0,0,.629.222,3.062,3.062,0,0,0,.6-.082V15a3.688,3.688,0,0,1-.971.136,1.575,1.575,0,0,1-1.278-.513,2.2,2.2,0,0,1-.431-1.456V8.581H61.039V7.6h1.347V5.813ZM67.772,8.5a2.689,2.689,0,0,1,2.188-1.032q2.345,0,2.365,2.646V15H71.06V10.105a1.7,1.7,0,0,0-.366-1.183,1.466,1.466,0,0,0-1.118-.383,1.825,1.825,0,0,0-1.08.328,2.228,2.228,0,0,0-.725.861V15H66.507V4.5h1.265Zm17.459,5.2a3.032,3.032,0,0,1-1.412,1.083,5.7,5.7,0,0,1-2.109.359,4.09,4.09,0,0,1-2.16-.571,3.8,3.8,0,0,1-1.459-1.624,5.607,5.607,0,0,1-.53-2.44V9.634A5.234,5.234,0,0,1,78.61,6.147,3.656,3.656,0,0,1,81.56,4.91a3.777,3.777,0,0,1,2.509.8,3.469,3.469,0,0,1,1.162,2.259H83.918a2.17,2.17,0,0,0-2.352-1.982,2.323,2.323,0,0,0-2,.927A4.526,4.526,0,0,0,78.88,9.6v.814a4.242,4.242,0,0,0,.766,2.665,2.482,2.482,0,0,0,2.071.989,4.575,4.575,0,0,0,1.292-.164,2,2,0,0,0,.916-.552v-2.23h-2.3V10.044h3.609Zm1.654-2.461a4.369,4.369,0,0,1,.427-1.955A3.187,3.187,0,0,1,88.5,7.938a3.238,3.238,0,0,1,1.74-.472,3.119,3.119,0,0,1,2.444,1.046,4.024,4.024,0,0,1,.933,2.782v.089a4.407,4.407,0,0,1-.414,1.938,3.14,3.14,0,0,1-1.183,1.336,3.275,3.275,0,0,1-1.767.479,3.111,3.111,0,0,1-2.437-1.046,4,4,0,0,1-.933-2.769Zm1.271.15a3.164,3.164,0,0,0,.571,1.976,1.934,1.934,0,0,0,3.059-.01,3.46,3.46,0,0,0,.567-2.116,3.159,3.159,0,0,0-.578-1.972,1.836,1.836,0,0,0-1.535-.755,1.816,1.816,0,0,0-1.511.745A3.435,3.435,0,0,0,88.157,11.384Zm6.713-.15A4.369,4.369,0,0,1,95.3,9.278a3.187,3.187,0,0,1,1.189-1.34,3.238,3.238,0,0,1,1.74-.472,3.119,3.119,0,0,1,2.444,1.046,4.024,4.024,0,0,1,.933,2.782v.089a4.407,4.407,0,0,1-.414,1.938,3.14,3.14,0,0,1-1.183,1.336,3.275,3.275,0,0,1-1.767.479A3.111,3.111,0,0,1,95.8,14.091a4,4,0,0,1-.933-2.769Zm1.271.15a3.164,3.164,0,0,0,.571,1.976,1.934,1.934,0,0,0,3.059-.01,3.46,3.46,0,0,0,.567-2.116,3.159,3.159,0,0,0-.578-1.972,1.836,1.836,0,0,0-1.535-.755,1.816,1.816,0,0,0-1.511.745A3.435,3.435,0,0,0,96.141,11.384Zm6.747-.144a4.347,4.347,0,0,1,.8-2.751,2.757,2.757,0,0,1,4.231-.065l.062-.82h1.155v7.219a3.009,3.009,0,0,1-.851,2.263,3.141,3.141,0,0,1-2.287.827,3.8,3.8,0,0,1-1.565-.342,2.7,2.7,0,0,1-1.169-.937l.656-.759a2.473,2.473,0,0,0,1.989,1,1.938,1.938,0,0,0,1.439-.52,1.986,1.986,0,0,0,.516-1.463v-.636a2.6,2.6,0,0,1-2.071.875,2.527,2.527,0,0,1-2.1-1.046A4.571,4.571,0,0,1,102.888,11.24Zm1.271.144a3.316,3.316,0,0,0,.513,1.965,1.666,1.666,0,0,0,1.436.714,1.852,1.852,0,0,0,1.757-1.087V9.6a1.874,1.874,0,0,0-1.743-1.06,1.681,1.681,0,0,0-1.442.718A3.612,3.612,0,0,0,104.16,11.384ZM112.417,15h-1.265V4.5h1.265Zm5.093.137a3.232,3.232,0,0,1-2.447-.988,3.666,3.666,0,0,1-.943-2.642v-.232a4.438,4.438,0,0,1,.42-1.965,3.28,3.28,0,0,1,1.176-1.354,2.956,2.956,0,0,1,1.637-.489,2.77,2.77,0,0,1,2.242.95,4.114,4.114,0,0,1,.8,2.721v.526h-5.011a2.629,2.629,0,0,0,.639,1.767,2.009,2.009,0,0,0,1.555.673,2.2,2.2,0,0,0,1.135-.273,2.851,2.851,0,0,0,.813-.725l.772.6A3.106,3.106,0,0,1,117.51,15.137Zm-.157-6.631a1.687,1.687,0,0,0-1.285.557,2.708,2.708,0,0,0-.643,1.562h3.705v-.1a2.409,2.409,0,0,0-.52-1.494A1.588,1.588,0,0,0,117.353,8.506Z" transform="translate(1037.764 8880.148)" fill="#fff"/>
      <path id="Trazado_232447" data-name="Trazado 232447" d="M3.268,13.927H7.985V15H1.949V5.047H3.268Zm5.681-2.693a4.369,4.369,0,0,1,.427-1.955,3.187,3.187,0,0,1,1.189-1.34,3.238,3.238,0,0,1,1.74-.472,3.119,3.119,0,0,1,2.444,1.046,4.024,4.024,0,0,1,.933,2.782v.089a4.407,4.407,0,0,1-.414,1.938,3.14,3.14,0,0,1-1.183,1.336,3.275,3.275,0,0,1-1.767.479,3.111,3.111,0,0,1-2.437-1.046,4,4,0,0,1-.933-2.769Zm1.271.15a3.164,3.164,0,0,0,.571,1.976,1.934,1.934,0,0,0,3.059-.01,3.46,3.46,0,0,0,.567-2.116,3.159,3.159,0,0,0-.578-1.972,1.836,1.836,0,0,0-1.535-.755,1.816,1.816,0,0,0-1.511.745A3.435,3.435,0,0,0,10.22,11.384Zm6.747-.144a4.347,4.347,0,0,1,.8-2.751A2.757,2.757,0,0,1,22,8.424l.062-.82h1.155v7.219a3.009,3.009,0,0,1-.851,2.263,3.141,3.141,0,0,1-2.287.827,3.8,3.8,0,0,1-1.565-.342,2.7,2.7,0,0,1-1.169-.937L18,15.875a2.473,2.473,0,0,0,1.989,1,1.938,1.938,0,0,0,1.439-.52,1.986,1.986,0,0,0,.516-1.463v-.636a2.6,2.6,0,0,1-2.071.875,2.527,2.527,0,0,1-2.1-1.046A4.571,4.571,0,0,1,16.967,11.24Zm1.271.144a3.316,3.316,0,0,0,.513,1.965,1.666,1.666,0,0,0,1.436.714,1.852,1.852,0,0,0,1.757-1.087V9.6A1.874,1.874,0,0,0,20.2,8.54a1.681,1.681,0,0,0-1.442.718A3.612,3.612,0,0,0,18.239,11.384ZM26.5,15H25.232V7.6H26.5ZM25.129,5.642a.755.755,0,0,1,.188-.52.706.706,0,0,1,.557-.212.717.717,0,0,1,.561.212.747.747,0,0,1,.191.52.722.722,0,0,1-.191.513.73.73,0,0,1-.561.205.718.718,0,0,1-.557-.205A.73.73,0,0,1,25.129,5.642ZM29.716,7.6l.041.93a2.7,2.7,0,0,1,2.215-1.066q2.345,0,2.365,2.646V15H33.073V10.105a1.7,1.7,0,0,0-.366-1.183,1.466,1.466,0,0,0-1.118-.383,1.825,1.825,0,0,0-1.08.328,2.228,2.228,0,0,0-.725.861V15H28.52V7.6Zm16.543,5.653L47.681,7.6h1.265L46.792,15H45.767l-1.8-5.605L42.219,15H41.194L39.047,7.6h1.258l1.456,5.537L43.484,7.6H44.5ZM51.6,15H50.34V7.6H51.6ZM50.238,5.642a.755.755,0,0,1,.188-.52.706.706,0,0,1,.557-.212.717.717,0,0,1,.561.212.747.747,0,0,1,.191.52.722.722,0,0,1-.191.513.73.73,0,0,1-.561.205.718.718,0,0,1-.557-.205A.73.73,0,0,1,50.238,5.642Zm5.106.171V7.6h1.381v.978H55.344v4.593a1.027,1.027,0,0,0,.185.667.777.777,0,0,0,.629.222,3.062,3.062,0,0,0,.6-.082V15a3.688,3.688,0,0,1-.971.136,1.575,1.575,0,0,1-1.278-.513,2.2,2.2,0,0,1-.431-1.456V8.581H52.733V7.6H54.08V5.813ZM59.466,8.5a2.689,2.689,0,0,1,2.188-1.032q2.345,0,2.365,2.646V15H62.754V10.105a1.7,1.7,0,0,0-.366-1.183,1.466,1.466,0,0,0-1.118-.383,1.825,1.825,0,0,0-1.08.328,2.228,2.228,0,0,0-.725.861V15H58.2V4.5h1.265Zm15.6,2.105H70.889V15H69.577V5.047h6.166V6.12H70.889V9.531h4.177ZM81.451,15a2.657,2.657,0,0,1-.178-.779,2.822,2.822,0,0,1-2.105.916,2.611,2.611,0,0,1-1.794-.619,2,2,0,0,1-.7-1.569,2.091,2.091,0,0,1,.878-1.794,4.141,4.141,0,0,1,2.471-.639h1.23V9.935a1.42,1.42,0,0,0-.4-1.056,1.593,1.593,0,0,0-1.169-.393,1.844,1.844,0,0,0-1.135.342,1.007,1.007,0,0,0-.458.827H76.823a1.745,1.745,0,0,1,.393-1.07,2.683,2.683,0,0,1,1.066-.817,3.588,3.588,0,0,1,1.48-.3,2.924,2.924,0,0,1,2,.639,2.306,2.306,0,0,1,.752,1.76v3.4a4.162,4.162,0,0,0,.26,1.62V15Zm-2.1-.964a2.223,2.223,0,0,0,1.128-.308,1.861,1.861,0,0,0,.772-.8V11.411h-.991q-2.324,0-2.324,1.36a1.151,1.151,0,0,0,.4.93A1.524,1.524,0,0,0,79.352,14.036Zm8.114.068a1.822,1.822,0,0,0,1.183-.41,1.443,1.443,0,0,0,.561-1.025h1.2a2.293,2.293,0,0,1-.437,1.21,2.882,2.882,0,0,1-1.077.916,3.107,3.107,0,0,1-1.425.342,3.047,3.047,0,0,1-2.4-1.008,4.016,4.016,0,0,1-.892-2.758v-.212a4.453,4.453,0,0,1,.4-1.921,3.02,3.02,0,0,1,1.138-1.306,3.233,3.233,0,0,1,1.753-.465,2.966,2.966,0,0,1,2.068.745,2.663,2.663,0,0,1,.878,1.935h-1.2a1.743,1.743,0,0,0-.543-1.179,1.691,1.691,0,0,0-1.207-.461,1.77,1.77,0,0,0-1.494.694,3.259,3.259,0,0,0-.53,2.006v.239a3.194,3.194,0,0,0,.526,1.969A1.779,1.779,0,0,0,87.466,14.1ZM94.9,15.137a3.232,3.232,0,0,1-2.447-.988,3.666,3.666,0,0,1-.943-2.642v-.232a4.438,4.438,0,0,1,.42-1.965A3.28,3.28,0,0,1,93.1,7.956a2.956,2.956,0,0,1,1.637-.489,2.77,2.77,0,0,1,2.242.95,4.114,4.114,0,0,1,.8,2.721v.526H92.771a2.629,2.629,0,0,0,.639,1.767,2.009,2.009,0,0,0,1.555.673,2.2,2.2,0,0,0,1.135-.273,2.851,2.851,0,0,0,.813-.725l.772.6A3.106,3.106,0,0,1,94.9,15.137ZM94.74,8.506a1.687,1.687,0,0,0-1.285.557,2.708,2.708,0,0,0-.643,1.562h3.705v-.1A2.409,2.409,0,0,0,96,9.036,1.588,1.588,0,0,0,94.74,8.506Zm10.767,2.878a4.4,4.4,0,0,1-.779,2.724,2.49,2.49,0,0,1-2.092,1.029,2.578,2.578,0,0,1-2.167-.991l-.062.854H99.245V4.5h1.265V8.417a2.564,2.564,0,0,1,2.112-.95,2.505,2.505,0,0,1,2.116,1.019,4.53,4.53,0,0,1,.769,2.789Zm-1.265-.144a3.417,3.417,0,0,0-.5-2,1.652,1.652,0,0,0-1.436-.7,1.857,1.857,0,0,0-1.8,1.162v3.2a1.909,1.909,0,0,0,1.812,1.162,1.643,1.643,0,0,0,1.415-.7A3.634,3.634,0,0,0,104.242,11.24Zm2.522-.007a4.369,4.369,0,0,1,.427-1.955,3.187,3.187,0,0,1,1.189-1.34,3.238,3.238,0,0,1,1.74-.472,3.119,3.119,0,0,1,2.444,1.046,4.024,4.024,0,0,1,.933,2.782v.089a4.407,4.407,0,0,1-.414,1.938,3.14,3.14,0,0,1-1.183,1.336,3.275,3.275,0,0,1-1.767.479,3.111,3.111,0,0,1-2.437-1.046,4,4,0,0,1-.933-2.769Zm1.271.15a3.164,3.164,0,0,0,.571,1.976,1.934,1.934,0,0,0,3.059-.01,3.46,3.46,0,0,0,.567-2.116,3.159,3.159,0,0,0-.578-1.972,1.836,1.836,0,0,0-1.535-.755,1.816,1.816,0,0,0-1.511.745A3.435,3.435,0,0,0,108.036,11.384Zm6.713-.15a4.369,4.369,0,0,1,.427-1.955,3.187,3.187,0,0,1,1.189-1.34,3.238,3.238,0,0,1,1.74-.472,3.119,3.119,0,0,1,2.444,1.046,4.024,4.024,0,0,1,.933,2.782v.089a4.407,4.407,0,0,1-.414,1.938,3.14,3.14,0,0,1-1.183,1.336,3.275,3.275,0,0,1-1.767.479,3.111,3.111,0,0,1-2.437-1.046,4,4,0,0,1-.933-2.769Zm1.271.15a3.164,3.164,0,0,0,.571,1.976,1.934,1.934,0,0,0,3.059-.01,3.46,3.46,0,0,0,.567-2.116,3.159,3.159,0,0,0-.578-1.972,1.836,1.836,0,0,0-1.535-.755,1.816,1.816,0,0,0-1.511.745A3.435,3.435,0,0,0,116.02,11.384Zm9.112.191-.793.827V15h-1.265V4.5h1.265v6.351l.677-.813,2.3-2.434h1.538l-2.878,3.09L129.193,15h-1.483Z" transform="translate(1039.764 8926.148)" fill="#fff"/>
      <path id="Trazado_232444" data-name="Trazado 232444" d="M4.806,10.974H2.468V15H1.148V5.047H4.443a3.9,3.9,0,0,1,2.587.766,2.755,2.755,0,0,1,.906,2.229,2.68,2.68,0,0,1-.5,1.62,3,3,0,0,1-1.4,1.032l2.338,4.225V15H6.966ZM2.468,9.9H4.484A2.275,2.275,0,0,0,6.04,9.394a1.714,1.714,0,0,0,.578-1.356,1.8,1.8,0,0,0-.55-1.418,2.33,2.33,0,0,0-1.589-.5H2.468Zm10.179,5.236a3.232,3.232,0,0,1-2.447-.988,3.666,3.666,0,0,1-.943-2.642v-.232a4.438,4.438,0,0,1,.42-1.965,3.28,3.28,0,0,1,1.176-1.354,2.956,2.956,0,0,1,1.637-.489,2.77,2.77,0,0,1,2.242.95,4.114,4.114,0,0,1,.8,2.721v.526H10.521a2.629,2.629,0,0,0,.639,1.767,2.009,2.009,0,0,0,1.555.673,2.2,2.2,0,0,0,1.135-.273,2.851,2.851,0,0,0,.813-.725l.772.6A3.106,3.106,0,0,1,12.646,15.137Zm-.157-6.631a1.687,1.687,0,0,0-1.285.557,2.708,2.708,0,0,0-.643,1.562h3.705v-.1a2.409,2.409,0,0,0-.52-1.494A1.588,1.588,0,0,0,12.489,8.506Zm5.694-.9.034.82a2.732,2.732,0,0,1,2.194-.957,2.115,2.115,0,0,1,2.112,1.189,2.8,2.8,0,0,1,.96-.861,2.837,2.837,0,0,1,1.4-.328q2.434,0,2.475,2.577V15H26.093V10.119a1.7,1.7,0,0,0-.362-1.186,1.6,1.6,0,0,0-1.217-.393,1.677,1.677,0,0,0-1.169.42,1.706,1.706,0,0,0-.54,1.131V15H21.533V10.153A1.411,1.411,0,0,0,19.954,8.54a1.692,1.692,0,0,0-1.7,1.06V15H16.987V7.6Zm14.15,7.533a3.232,3.232,0,0,1-2.447-.988,3.666,3.666,0,0,1-.943-2.642v-.232a4.438,4.438,0,0,1,.42-1.965A3.28,3.28,0,0,1,30.54,7.956a2.956,2.956,0,0,1,1.637-.489,2.77,2.77,0,0,1,2.242.95,4.114,4.114,0,0,1,.8,2.721v.526H30.208a2.629,2.629,0,0,0,.639,1.767A2.009,2.009,0,0,0,32.4,14.1a2.2,2.2,0,0,0,1.135-.273,2.851,2.851,0,0,0,.813-.725l.772.6A3.106,3.106,0,0,1,32.334,15.137Zm-.157-6.631a1.687,1.687,0,0,0-1.285.557,2.708,2.708,0,0,0-.643,1.562h3.705v-.1a2.409,2.409,0,0,0-.52-1.494A1.588,1.588,0,0,0,32.177,8.506Zm5.694-.9.034.82A2.732,2.732,0,0,1,40.1,7.467a2.115,2.115,0,0,1,2.112,1.189,2.8,2.8,0,0,1,.96-.861,2.837,2.837,0,0,1,1.4-.328q2.434,0,2.475,2.577V15H45.78V10.119a1.7,1.7,0,0,0-.362-1.186A1.6,1.6,0,0,0,44.2,8.54a1.677,1.677,0,0,0-1.169.42,1.706,1.706,0,0,0-.54,1.131V15H41.221V10.153A1.411,1.411,0,0,0,39.642,8.54a1.692,1.692,0,0,0-1.7,1.06V15H36.675V7.6Zm17.343,3.78a4.4,4.4,0,0,1-.779,2.724,2.49,2.49,0,0,1-2.092,1.029,2.578,2.578,0,0,1-2.167-.991L50.114,15H48.952V4.5h1.265V8.417a2.564,2.564,0,0,1,2.112-.95,2.505,2.505,0,0,1,2.116,1.019,4.53,4.53,0,0,1,.769,2.789Zm-1.265-.144a3.417,3.417,0,0,0-.5-2,1.652,1.652,0,0,0-1.436-.7,1.857,1.857,0,0,0-1.8,1.162v3.2a1.909,1.909,0,0,0,1.812,1.162,1.643,1.643,0,0,0,1.415-.7A3.634,3.634,0,0,0,53.949,11.24Zm5.927,3.9a3.232,3.232,0,0,1-2.447-.988,3.666,3.666,0,0,1-.943-2.642v-.232a4.438,4.438,0,0,1,.42-1.965,3.28,3.28,0,0,1,1.176-1.354,2.956,2.956,0,0,1,1.637-.489,2.77,2.77,0,0,1,2.242.95,4.114,4.114,0,0,1,.8,2.721v.526H57.75a2.629,2.629,0,0,0,.639,1.767,2.009,2.009,0,0,0,1.555.673,2.2,2.2,0,0,0,1.135-.273,2.851,2.851,0,0,0,.813-.725l.772.6A3.106,3.106,0,0,1,59.876,15.137Zm-.157-6.631a1.687,1.687,0,0,0-1.285.557,2.708,2.708,0,0,0-.643,1.562H61.5v-.1a2.409,2.409,0,0,0-.52-1.494A1.588,1.588,0,0,0,59.719,8.506Zm8.08.232a3.79,3.79,0,0,0-.622-.048,1.667,1.667,0,0,0-1.688,1.06V15H64.224V7.6h1.23l.021.854a1.969,1.969,0,0,1,1.764-.991,1.292,1.292,0,0,1,.561.1ZM74.32,5.047l3.254,8.121,3.254-8.121h1.7V15H81.218V11.124l.123-4.184L78.073,15h-1L73.808,6.961l.13,4.163V15H72.625V5.047Zm13.4,10.09a3.232,3.232,0,0,1-2.447-.988,3.666,3.666,0,0,1-.943-2.642v-.232a4.438,4.438,0,0,1,.42-1.965,3.28,3.28,0,0,1,1.176-1.354,2.956,2.956,0,0,1,1.637-.489,2.77,2.77,0,0,1,2.242.95,4.114,4.114,0,0,1,.8,2.721v.526H85.593a2.629,2.629,0,0,0,.639,1.767,2.009,2.009,0,0,0,1.555.673,2.2,2.2,0,0,0,1.135-.273,2.851,2.851,0,0,0,.813-.725l.772.6A3.106,3.106,0,0,1,87.719,15.137Zm-.157-6.631a1.687,1.687,0,0,0-1.285.557,2.708,2.708,0,0,0-.643,1.562h3.705v-.1a2.409,2.409,0,0,0-.52-1.494A1.588,1.588,0,0,0,87.562,8.506Z" transform="translate(991 8757.648)" fill="#afafaf"/>
      <g id="Rectángulo_49933" data-name="Rectángulo 49933" transform="translate(966 8760.648)" fill="#fff" stroke="#707070" stroke-width="1">
        <rect width="17" height="16" rx="6" stroke="none"/>
        <rect x="0.5" y="0.5" width="16" height="15" rx="5.5" fill="none"/>
      </g>
      <line id="Línea_2066" data-name="Línea 2066" x2="244" transform="translate(966.5 8853.148)" fill="none" stroke="#e8e8e8" stroke-width="1"/>
      <g id="Grupo_114646" data-name="Grupo 114646" transform="translate(1017.236 8880.148)">
        <g id="Grupo_114645" data-name="Grupo 114645" clip-path="url(#clip-path)">
          <path id="Trazado_227784" data-name="Trazado 227784" d="M15.883,12.329c-1.43,0-2.811,0-4.192,0-1.519,0-1.423.126-1.418-1.419,0-.676.007-1.351,0-2.027-.005-.434.192-.633.629-.633q4.492.006,8.983,0c.364,0,.6.157.619.54a11.6,11.6,0,0,1-1.417,6.749A10.268,10.268,0,1,1,13.94.693c.933.353.992.514.515,1.39-.358.656-.736,1.3-1.065,1.973a.723.723,0,0,1-1.049.417A6.171,6.171,0,0,0,4.119,9.367a6.273,6.273,0,0,0,5.242,7,5.744,5.744,0,0,0,6.411-3.617c.04-.116.063-.237.111-.419" transform="translate(0 0)" fill="#fff"/>
        </g>
      </g>
      <g id="Grupo_114648" data-name="Grupo 114648" transform="translate(1021.854 8923.978)">
        <g id="Grupo_114647" data-name="Grupo 114647" clip-path="url(#clip-path-2)">
          <path id="Trazado_227785" data-name="Trazado 227785" d="M3.356,21.172q0-4.523,0-9.047c0-.222-.047-.29-.28-.287-.945.015-1.89,0-2.835.011C.054,11.851,0,11.8,0,11.608q.015-1.675,0-3.35c0-.178.045-.234.228-.232.962.009,1.924,0,2.887.009.192,0,.246-.048.244-.243-.01-.936-.014-1.873,0-2.809A5.269,5.269,0,0,1,4.37,1.723,4.337,4.337,0,0,1,7.28.088a13.527,13.527,0,0,1,3.845.147c.139.018.164.086.164.205,0,.962-.005,1.924,0,2.887,0,.178-.086.192-.223.19-.472,0-.945-.005-1.418,0a3.383,3.383,0,0,0-.59.039,1.8,1.8,0,0,0-1.58,1.891c-.01.79,0,1.581-.006,2.371,0,.172.053.215.218.214,1.048-.007,2.1,0,3.144-.01.248,0,.293.062.255.3-.182,1.126-.351,2.254-.517,3.383-.026.176-.14.142-.245.142-.868,0-1.735.005-2.6,0-.178,0-.254.024-.254.233q.012,4.549.008,9.1Z" transform="translate(0 0)" fill="#fff"/>
        </g>
      </g>
    </g>
  </g>
</svg>
